<?xml version="1.0" encoding="UTF-8"?>
<svg id="Camada_2" data-name="Camada 2" xmlns="http://www.w3.org/2000/svg" xmlns:xlink="http://www.w3.org/1999/xlink" viewBox="0 0 890 1089.86">
  <defs>
    <style>
      .cls-1 {
        fill: #ddd;
      }

      .cls-2 {
        fill: url(#Gradiente_sem_nome_12-8);
      }

      .cls-3 {
        fill: url(#Gradiente_sem_nome_12-25);
      }

      .cls-4 {
        fill: url(#Gradiente_sem_nome_12);
      }

      .cls-5 {
        fill: url(#Gradiente_sem_nome_12-11);
      }

      .cls-6 {
        fill: url(#Gradiente_sem_nome_12-7);
      }

      .cls-7 {
        fill: url(#Gradiente_sem_nome_12-15);
      }

      .cls-8 {
        fill: url(#Gradiente_sem_nome_12-5);
      }

      .cls-9 {
        fill: url(#Gradiente_sem_nome_12-12);
      }

      .cls-10 {
        fill: url(#Gradiente_sem_nome_12-23);
      }

      .cls-11 {
        fill: url(#Gradiente_sem_nome_12-20);
      }

      .cls-12 {
        fill: url(#Gradiente_sem_nome_12-14);
      }

      .cls-13 {
        fill: url(#Gradiente_sem_nome_12-21);
      }

      .cls-14 {
        fill: url(#Gradiente_sem_nome_12-6);
      }

      .cls-15 {
        fill: url(#Gradiente_sem_nome_12-2);
      }

      .cls-16 {
        fill: url(#Gradiente_sem_nome_12-9);
      }

      .cls-17 {
        fill: url(#Gradiente_sem_nome_12-22);
      }

      .cls-18 {
        fill: url(#Gradiente_sem_nome_12-3);
      }

      .cls-19 {
        fill: url(#Gradiente_sem_nome_12-24);
      }

      .cls-20 {
        fill: url(#Gradiente_sem_nome_12-18);
      }

      .cls-21 {
        fill: url(#Gradiente_sem_nome_12-17);
      }

      .cls-22 {
        fill: url(#Gradiente_sem_nome_12-4);
      }

      .cls-23 {
        fill: url(#Gradiente_sem_nome_12-10);
      }

      .cls-24 {
        fill: url(#Gradiente_sem_nome_12-16);
      }

      .cls-25 {
        fill: url(#Gradiente_sem_nome_12-19);
      }

      .cls-26 {
        fill: url(#Gradiente_sem_nome_12-13);
      }
    </style>
    <linearGradient id="Gradiente_sem_nome_12" data-name="Gradiente sem nome 12" x1="80.56" y1="-27.65" x2="729.61" y2="991.58" gradientUnits="userSpaceOnUse">
      <stop offset="0" stop-color="#07942d"/>
      <stop offset="1" stop-color="#038020"/>
    </linearGradient>
    <linearGradient id="Gradiente_sem_nome_12-2" data-name="Gradiente sem nome 12" x1="-117.93" y1="98.75" x2="531.12" y2="1117.98" xlink:href="#Gradiente_sem_nome_12"/>
    <linearGradient id="Gradiente_sem_nome_12-3" data-name="Gradiente sem nome 12" x1="173.52" y1="-86.85" x2="822.57" y2="932.39" xlink:href="#Gradiente_sem_nome_12"/>
    <linearGradient id="Gradiente_sem_nome_12-4" data-name="Gradiente sem nome 12" x1="-35.6" y1="46.32" x2="613.45" y2="1065.56" xlink:href="#Gradiente_sem_nome_12"/>
    <linearGradient id="Gradiente_sem_nome_12-5" data-name="Gradiente sem nome 12" x1="232.43" y1="-124.36" x2="881.48" y2="894.87" xlink:href="#Gradiente_sem_nome_12"/>
    <linearGradient id="Gradiente_sem_nome_12-6" data-name="Gradiente sem nome 12" x1="-21.52" y1="37.36" x2="627.53" y2="1056.59" xlink:href="#Gradiente_sem_nome_12"/>
    <linearGradient id="Gradiente_sem_nome_12-7" data-name="Gradiente sem nome 12" x1="396" y1="-228.52" x2="1045.05" y2="790.71" xlink:href="#Gradiente_sem_nome_12"/>
    <linearGradient id="Gradiente_sem_nome_12-8" data-name="Gradiente sem nome 12" x1="-191.3" y1="145.48" x2="457.75" y2="1164.71" xlink:href="#Gradiente_sem_nome_12"/>
    <linearGradient id="Gradiente_sem_nome_12-9" data-name="Gradiente sem nome 12" x1="-12.82" y1="31.82" x2="636.23" y2="1051.05" xlink:href="#Gradiente_sem_nome_12"/>
    <linearGradient id="Gradiente_sem_nome_12-10" data-name="Gradiente sem nome 12" x1="196.13" y1="-101.16" x2="845.18" y2="918.07" xlink:href="#Gradiente_sem_nome_12"/>
    <linearGradient id="Gradiente_sem_nome_12-11" data-name="Gradiente sem nome 12" x1="285.06" y1="-157.87" x2="934.11" y2="861.36" xlink:href="#Gradiente_sem_nome_12"/>
    <linearGradient id="Gradiente_sem_nome_12-12" data-name="Gradiente sem nome 12" x1="179.12" y1="-90.41" x2="828.17" y2="928.82" xlink:href="#Gradiente_sem_nome_12"/>
    <linearGradient id="Gradiente_sem_nome_12-13" data-name="Gradiente sem nome 12" x1="71.63" y1="-21.96" x2="720.68" y2="997.27" xlink:href="#Gradiente_sem_nome_12"/>
    <linearGradient id="Gradiente_sem_nome_12-14" data-name="Gradiente sem nome 12" x1="-27.42" y1="41.12" x2="621.63" y2="1060.35" xlink:href="#Gradiente_sem_nome_12"/>
    <linearGradient id="Gradiente_sem_nome_12-15" data-name="Gradiente sem nome 12" x1="95.42" y1="-37.11" x2="744.47" y2="982.12" xlink:href="#Gradiente_sem_nome_12"/>
    <linearGradient id="Gradiente_sem_nome_12-16" data-name="Gradiente sem nome 12" x1="355.58" y1="-202.78" x2="1004.63" y2="816.45" xlink:href="#Gradiente_sem_nome_12"/>
    <linearGradient id="Gradiente_sem_nome_12-17" data-name="Gradiente sem nome 12" x1="-48.09" y1="54.28" x2="600.96" y2="1073.51" xlink:href="#Gradiente_sem_nome_12"/>
    <linearGradient id="Gradiente_sem_nome_12-18" data-name="Gradiente sem nome 12" x1="300.43" y1="-167.66" x2="949.48" y2="851.57" xlink:href="#Gradiente_sem_nome_12"/>
    <linearGradient id="Gradiente_sem_nome_12-19" data-name="Gradiente sem nome 12" x1="249.26" y1="-135.08" x2="898.31" y2="884.15" xlink:href="#Gradiente_sem_nome_12"/>
    <linearGradient id="Gradiente_sem_nome_12-20" data-name="Gradiente sem nome 12" x1="4.78" y1="20.61" x2="653.83" y2="1039.84" xlink:href="#Gradiente_sem_nome_12"/>
    <linearGradient id="Gradiente_sem_nome_12-21" data-name="Gradiente sem nome 12" x1="142.97" y1="-67.39" x2="792.02" y2="951.84" xlink:href="#Gradiente_sem_nome_12"/>
    <linearGradient id="Gradiente_sem_nome_12-22" data-name="Gradiente sem nome 12" x1="333.8" y1="-188.91" x2="982.85" y2="830.32" xlink:href="#Gradiente_sem_nome_12"/>
    <linearGradient id="Gradiente_sem_nome_12-23" data-name="Gradiente sem nome 12" x1="78.84" y1="-26.55" x2="727.89" y2="992.68" xlink:href="#Gradiente_sem_nome_12"/>
    <linearGradient id="Gradiente_sem_nome_12-24" data-name="Gradiente sem nome 12" x1="329.53" y1="-186.19" x2="978.58" y2="833.04" xlink:href="#Gradiente_sem_nome_12"/>
    <linearGradient id="Gradiente_sem_nome_12-25" data-name="Gradiente sem nome 12" x1="355.72" y1="-202.87" x2="1004.77" y2="816.36" xlink:href="#Gradiente_sem_nome_12"/>
  </defs>
  <g id="Camada_1-2" data-name="Camada 1">
    <g>
      <g>
        <path class="cls-4" d="m386.09,490.4c7.01-2.54,12.94-1.54,18.68-1.4,6.9.18,12.12-4.43,12.17-9.12.11-9.02,6.28-11.53,11.7-15.23,8.48-5.79,18.91-10.16,12.5-25.16,7.29,2.36,7.98,7.3,10.21,10.73,3.21,4.92,5.88,10.16,10.49,14.09,2.34,2,4.6,4.35,3.03,8.1-.5,1.2-.67,3.77-.34,3.89,15.59,5.6,9.99,22.99,18.23,32.57,1.53,1.78,2.4,5.22,5.04,4.79,10.82-1.74,11.42,9.31,17.41,13.53,2.86,2.01.46,5.29-.14,7.72-1.73,7.05-3.95,13.98-6.12,20.91-1.07,3.41-1.39,6.16.9,9.66,5.56,8.5.63,17.98-9.44,18.37-7.75.3-13.86,4.34-20.13,7.84-4.65,2.59-8.05,2.89-11.21-1.72-3.68-5.37-8.25-5.47-14.43-4.04-12.35,2.86-20.24-6.05-28.3-13.22-2.72-2.43-4.31-6.27-6-9.68-3.25-6.57-7.14-9.85-14.28-4.61-5.07,3.71-10.21,1.17-14.44-1.64-4.98-3.31,1.93-5.35,1.69-8.49-1.21-15.85,8.04-27.55,16.27-39.51,4.37-6.35,4.58-10.44-3.91-12.66-3.15-.82-6.73-1.57-9.62-5.72Z"/>
        <path class="cls-15" d="m65.68,484.14c16.78,1.25,31.54-5.8,47.12-8.12,6.81-1.01,13.47-3.12,20.17-4.85,8.1-2.09,15.91-4.05,23.46,2.28,3.82,3.2,7.97,3.12,8.28-3.66.08-1.74.16-4.02,2.28-3.95,1.38.05,3.69,1.65,3.91,2.86,3.21,17.74,20.49,13.74,31.11,19.33,9.99,5.26,15.81,11.8,12.71,22.44-2.6,8.92-6.16,16.77-14.99,21.28-7.09,3.62-7.52,11.3-9.47,17.71-3.31,10.91-8.74,17.86-21.47,15.57-4.97-.9-9.64.8-13.83,3.46-10.84,6.89-23.16,8.92-35.49,10.7-7.05,1.02-11.92-1.4-13.37-9.44-1.43-7.93-2.36-15.53-.43-23.62,1.16-4.86,1.81-10,1.65-15.34-.58-19.62-14.1-27.86-29.18-34.8-5.43-2.5-11.15-4.1-12.43-11.85Z"/>
        <path class="cls-18" d="m546.33,463.01c9.4-1.71,16.37-2.41,22.98-4.34,7.35-2.15,12.75,1.44,18.55,4.47,2.96,1.55,4.56,5.02,2.44,6.79-7.57,6.33-1.9,10.81,1.36,15.76,2.26,3.43,6.39,7.3,4.07,10.96-2.28,3.6-6.97-.35-10.64-.55-4.45-.24-9.53-.42-13.12-2.61-11.47-7.01-19.11-3-25.66,7-4.2,6.42-9.53,8.17-17.61,6.3-9.96-2.3-19.88,3.26-30.37,2.3-12.84-1.18-17.51-5.01-15.64-18.16.95-6.7-3.54-8.34-7.09-11.27-4.36-3.61-11.39-7.17.53-9.94,3.43-.8,4.62-4.08,6.1-6.73,5.28-9.47,11.51-18.15,19.63-25.42,2.32-2.08,5.5-4.78,3.99-7.87-4.31-8.81,2.85-14.35,5.86-20.55,3.17-6.52,9.21-3.29,10.69,1.6,4.17,13.86,12.24,10.21,20.29,5.2,4.61-2.87,7.52-3.03,11.38,1.03,4.59,4.83.05,7.56-1.83,10.7-5.27,8.78-13.05,16.37-11.15,28.15.8,4.94,1.9,8.26,5.25,7.2Z"/>
        <path class="cls-22" d="m172.63,460.06c10.11.97,16.11-1.87,15.22-12.3-.08-.91.57-2.03,1.19-2.81,13.17-16.6,23.78-34.64,30.2-57.11,5.74,6.96,7.39,13.39,9.15,19.39,4.15,14.21,12.6,22.57,27.79,23.54,4.93.32,9.43,2.17,12.85,6.03,4.3,4.86,7.73,8.83,1.2,15.56-7.36,7.61-6.09,14.53,1.66,20.96,2.59,2.14,4.19,4.14.63,6.35-4.66,2.9-3.68,6.73-2.71,10.93,3.01,13.08-1.26,16.11-13.99,17.53-12.33,1.37-27.41-5.18-35.05,9.61-3.88-.99-2.68-2.42-2.37-3.57,4.73-17.28-.78-26.55-18.69-31.43-17.31-4.71-20.53-7.29-27.08-22.68Z"/>
        <path class="cls-8" d="m361.12,125.69c0-1.37-.58-3.49.09-3.99,11.78-9.03,5.5-23.37,10.21-34.49,2.19-5.15,4.57-8.58,10.44-10.11,6.96-1.81,15.47-1.51,18.7-10.71.82-2.33,3.63-.37,5.36.64,5.99,3.5,11.97,7.02,17.95,10.55,1.76,1.04,4.15,1.96,3.48,4.49-.76,2.88-3.47,2.95-5.96,2.93-.69,0-1.39-.06-2.08-.02-4.46.26-10.26-4.92-13.11,1.26-3.07,6.65-6.27,13.79-2.54,21.77,7.05,15.04,13.78,30.25,20.43,45.47,3.76,8.6,1.87,12.31-7.6,12.71-11.16.48-21.47.65-30.44,9.62-7.08,7.08-17.03,3.5-25.1.27-3.31-1.32-5.66-5.17-6.28-11.21-1.33-13.02-4.87-25.2,7.09-35.2.67-.56.09-2.62.09-3.98-.24,0-.48,0-.71,0Z"/>
        <path class="cls-14" d="m289.46,618.78c-.58-9.61,3.98-16.1,8.82-22.38,3.01-3.9,3.57-6.8-.84-10.45-5.44-4.51-8.21-26.21-4.64-31.91,1.81-2.9,4.05-3.88,7.87-2.6,5.96,2.01,11.68,4.41,17.3,6.88,8.3,3.64,19.28,5.11,29.35,1.85,3.26-1.06,6.67-2.06,10.06-2.25,6.52-.35,13.43-2.23,14.61,8.63.56,5.13,3.88,11.74,9.27,14.32,9.87,4.72,6.22,11.83,3.99,18.29-2.41,7.01-8.36,5.51-14.06,4.43-9.13-1.73-18.63-1.51-27.26-5.78-4.31-2.13-5.88,1.65-6.63,4.36-3.33,11.93-12.54,12.14-21.57,10.09-10-2.27-19.41-5.49-26.27,6.52Z"/>
        <path class="cls-6" d="m814.62,455.93c.02-6.9,3.67-10.9,6.9-14.79,3.89-4.68,3.13-8.72,1.44-14.17-3.39-10.93-9.27-15.49-21.1-14.31-18.73,1.86-35.03-9.32-53.23-11.69-6.31-.82-9.78-9.68-8.93-16.82,1.01-8.42,8.25-9.28,14.38-7.21,13.19,4.45,17.2-5.67,22.41-13.29,5.16-7.55,6.96-7.09,11.87.86,8.39,13.58,21.17,23.61,34.16,32.68,4.73,3.3,6.71,5.69,5.9,11.37-2.01,14.06,8.04,23.87,22.15,22.49,5.12-.5,10.37-1.17,15.45.71,2.85,1.06,4.72,2.69,4.61,6.06-.1,3.13-1.12,5.29-4.44,6.06-17.09,3.96-34.16,7.98-51.57,12.05Z"/>
        <path class="cls-2" d="m177.7,649.35c.45,5.74-1.12,7.62-6.6,6.69-9.16-1.55-17.96,4.43-19.43,13.33-.63,3.8-2.17,6.63-4.64,8.86-6.48,5.83-10.72,11.78-4.09,20.17,1.87,2.37.56,4.54-.75,6.65-2.29,3.71-18.57,8.96-22.65,7.29-4.3-1.77-8.94-15.66-6.31-20.7,2.67-5.11,2.29-9.81.46-14.92-1.98-5.52-4.23-11.07-5.16-16.81-1.23-7.61-2.03-13.71,10.11-15.23,10.88-1.36,22.77-6.14,28.79-17.79,2.68-5.18,5-6.87,9.45-1.01,3.25,4.29,7.65,9.06,12.47,10.5,7.97,2.38,6.71,8.6,8.33,12.96Z"/>
        <path class="cls-16" d="m548.09,845.81c.13,5.75,5.75,12.68,6.31,21.11.39,5.9-.37,8.42-6.37,8.9-6.21.5-12.36,1.77-18.57,2.24-11.15.85-20.63,4.54-28.09,13.4-3.39,4.02-7.36,8.58-14.14,4.43-6.36-3.89-8.24-10.26-6.87-16.06,2.13-9.02,6.4-17.55,10-26.19,1.7-4.08,6.39-3.69,9.57-5.57,10.63-6.28,24.42-7.16,32.02-18.64,1.32-2,3.03-3.87,3.82-6.07,2.02-5.62,5.1-4.52,7.11-.72,3.34,6.32,7.69,12.6,5.19,23.19Z"/>
        <path class="cls-23" d="m301.01,84.95c-7.89-7.96-15.15-13.06-15.83-23.38-.35-5.28-4.89-9.91-8.92-12.31-10.14-6.05-10.49-14.47-7.55-23.77,2.92-9.25-.39-11.64-9.25-11.53-9.33.11-18.67-1.16-28-1.81-2.68-.19-5.03-1.16-5.15-4.07-.16-3.79,3.15-3.14,5.32-3.1,15.19.3,30.59-1.96,45.35,3.81,7.96,3.11,16.47,1.83,24.71,2.71,4.42.47,10.65.49,7.98,8.37-6.86,20.26-6.47,41.58-8.64,65.09Z"/>
        <path class="cls-5" d="m651.7,370.89c-.04,16.93-24.05,35.2-40.68,30.96-7.89-2.01-14.36-16.64-10.06-23.89,2.84-4.79.08-8.98-.88-12.88-1.39-5.64.15-8.42,4.82-10.75,4.01-2,8.03-4.03,10.56-8.11.66-1.06,2.09-2.02,3.32-2.3,14.88-3.31,32.95,11.55,32.92,26.96Z"/>
        <path class="cls-9" d="m364.75,241.55c0-13.25,2.71-16.58,16.35-17.1,7.35-.28,13.57-1.6,18.64-7.25,3.41-3.8,6.17-3.61,8.29,1.72,1.99,4.99,3.45,10.44,10.12,12.18,2.88.75.78,4.03.25,6.35-3.24,13.99-14.83,23.72-18.7,37.59-1.7,6.09-20.67,4.49-24.41-2.44-5.2-9.63-11.69-19.13-10.53-31.04Z"/>
        <path class="cls-26" d="m175.25,128.84c-12.63-5.05-26.64-2.19-40.76,1.99-3.16.94-10.09,1.96-10.02-1.67.13-6.74-5.9-13.05-1.34-19.82,1.53-2.27,4.96-4.74,4.61-6.57-2.72-14.45,6.31-9.98,12.39-7.35,13,5.64,26.06.66,39.03,1.56,5.91.41,14.74-2.75,14.89,7.55.22,14.93-6.88,24.26-18.81,24.32Z"/>
        <path class="cls-12" d="m189.49,327.36c-7.5,15.51-13.69,28.21-17.89,41.7-.53,1.71-1.45,3.34-3.55,3.07-1.87-.24-2.75-1.76-3.41-3.47-1.24-3.23-2.81-6.33-3.93-9.6-2.23-6.51-4.42-12.22-10.42-2.42-1.88,3.06-4.2,1.73-6.1.07-3.41-2.97-11.39-4.22-9.21-9.34,3.73-8.76-3.28-15.69-1.5-24.02,1.19-5.59,6.95-16.74,12.53-17.3,4.84-.48,3.99,2.9,2.98,5.49-4.36,11.1,2.02,13.82,11.11,14.87,8.74,1.01,17.08,5.85,29.4.95Z"/>
        <path class="cls-7" d="m230.24,174.9c-8.75.62-12.26-5.18-14.98-11.23-3.8-8.47-12.38-14.23-21.59-12.42-8.67,1.7-8.78-1.53-6.38-8.2,4.97-13.81,10.47-18.33,25.38-16.52,5.53.67,12.65-3.77,16.24,1.5,6,8.79,11.16,18.44,14.88,28.4,2.5,6.69-7.54,18.36-13.56,18.48Z"/>
        <path class="cls-24" d="m645.09,224.23c9.28,10.61,15.08,21.83,28.17,24.86,2.39.55,4,4.56,5.91,7.02,1.03,1.34,2.61,2.77,1.56,4.59-1.31,2.28-3.59,1.89-5.47.86-7.22-3.94-12.17-.94-17.08,4.56-5.29,5.92-28.4,6.55-34.45,1.47-4.41-3.71.71-18.69,7.37-21.54,12.04-5.16,14.96-9.14,13.99-21.82Z"/>
        <path class="cls-21" d="m59.91,274.41c3.95-6.98-.3-9.8-5.71-11.7,3.53-3.35,7.06-3.26,10.52-3.27,14.58-.03,29.17.32,43.73-.16,7.81-.26,9.64,3.18,8.85,10.03-.63,5.54-3.53,10.96,1.91,16.54,2.67,2.74-2.61,3.74-4.8,4.68-2.63,1.13-3.33-.37-3.59-3.06-1.33-14.2-3.79-16.75-17.49-16.36-10.81.31-21.95-2.45-33.43,3.3Z"/>
        <path class="cls-20" d="m607.51,286.95c-13.5,6.81-25.68,7.31-37.97,6.4-3.69-.28-3.02-3.33-.96-5.27,8-7.55,15.98-15.16,24.35-22.28,2.49-2.12,6.36-3.38,9.43-.15,3.41,3.59-1.74,4.26-2.46,6.5-2.03,6.34-3.21,12.24,7.6,14.81Z"/>
        <path class="cls-25" d="m546.07,351.28c-6.18-1.88-11.37-3.98-14.2-10.09-2.56-5.53.94-8.32,3.84-11.67,3.61-4.18,7.16-8.4,10.74-12.6,1.76-2.07,3.19-4.68,6.74-3.29,3.48,1.36,5.55,4.05,7.04,7.22,2.27,4.85-2.8,3.28-4.31,4.87-5.01,5.26-6.63,11.77-6.53,18.91.04,2.72,1.45,6.72-3.32,6.65Z"/>
        <path class="cls-11" d="m21.25,78.72c8.24-10.7,15.9-19.88,12.37-32.84-.42-1.53,1.11-2.69,2.58-2.19,2.16.73,5.49.74,5.69,3.67.43,6.43,4.08,11.65,5.82,17.55,1.52,5.15-6.25,12.43-14.74,13.72-3.01.46-6.16.07-11.72.07Z"/>
        <path class="cls-13" d="m208.86,32.42c-10.07.82-17.43-.2-18.64-10.2-.77-6.38-7.85-6.3-9.87-11.07,2.31-3.97,7.73-3.29,9.89-7.32,1.54-2.88,3.76-4.93,7.64-3.18,3.32,1.5,3.46,4.34,3.08,7.01-1.25,8.82,2.64,16.11,7.9,24.76Z"/>
        <path class="cls-17" d="m631.92,287.48c-.39-.02-4.01.42-7.19-.56-2.4-.74-7.54-.46-6.08-4.96,1.06-3.28,1.44-8.75,7.57-7.84,5.76.85,11.55,1.53,17.31,2.4,3.91.6,6.33,2.66,5.79,6.98-.56,4.49-4.1,3.84-7.11,3.96-2.41.09-4.82.02-10.28.02Z"/>
        <path class="cls-10" d="m217.26,175.43c-17.59,5.07-20.18,4.15-22.87-9.01-.68-3.32-5.04-8.84,1.07-10.49,4.75-1.28,11.17.91,13.14,5.75,2,4.93,5.42,8.63,8.66,13.75Z"/>
        <path class="cls-19" d="m622.09,238.35c-2.42,14.22-4.13,26.17-6.67,37.94-.7,3.23-2.83,7.56-8.19,5.24-1.57-.68-3.5-.81-3.83-2.92-.31-2.01.94-3.73,2.61-3.85,7.4-.53,7.19-6.24,8-11.24,1.22-7.48,2.29-14.97,3.44-22.46.29-1.85-.53-4.7,2.66-4.44,2.21.18,2,2.42,1.99,1.73Z"/>
        <path class="cls-3" d="m640.65,232.04c-2.1,3.99-5.27,7.43-9.98,8.98-1.44.47-2.41-1.07-2.07-2.61,1.1-4.99,3.67-8.8,9.02-9.8,2-.38,3.13.86,3.03,3.43Z"/>
      </g>
      <g>
        <path class="cls-1" d="m362.84,382.2c-8.99,6.27-7.36,14.66-7.36,22.54,0,5.44-.93,8.32-7.79,7.12-8.34-1.45-14.25,3.65-18.87,10.18-1.56,2.21-2.62,5.37-6.1,4.79-3.83-.64-3.25-3.56-3.01-6.5.39-4.95-3.3-5.28-6.95-5.56-5.88-.45-11.8-.67-17.6-1.64-8.1-1.36-15.1-10.34-15.65-18.47-.41-6.13,4.34-6.32,8-7.7,8.67-3.28,15.39-14.51,13.79-23.39-1.24-6.88-8.34-9.41-13.77-4.48-5.31,4.82-10.54,9.07-18.35,7.86-2.36-.37-5.28.22-6.34-2.54-2.19-5.7-5.54-8.39-11.92-6.39-1.05.33-3.46-1.23-4.1-2.5-5.28-10.46-17.72-18.72-9.53-33.39,2.82-5.05-.86-7.42-6.15-7.52-7.58-.15-17.32,2.32-21.95-3.19-4.44-5.28,2.78-13.55,2.74-20.58-.03-5.72.08-9.21,7.02-9.03,2.62.07,3.72-2.74,4.48-5.16,1.14-3.64,2.28-7.29,3.62-10.86,2.48-6.62,2.26-15.28,10.38-18.1,6.78-2.36,23.65,6.49,28.3,13.52,2.59,3.92,4.23,8.69,10.14,9.43,10.39,1.3,18.64,7.11,26.46,13.6,10.43,8.65,22.14,8.99,33.97,4.14,4.57-1.88,6.32-.57,8.19,2.9,2.51,4.67,3.84,9.76,4.24,14.93.36,4.72.97,8.88,5.37,11.67,3.03,1.92,3.84,5.1,2.76,8.27-1.51,4.44-.5,8.18,2.06,11.76,2.1,2.93,2.23,5.75-.38,8.42-2.9,2.97-2.07,6.3-1.14,9.73.68,2.51,1.89,4.6-.75,7.47-7.2,7.82-5.39,14.04,6.18,18.69Z"/>
        <path class="cls-1" d="m286.21,570.92c.05,8.29.02,13.73,6.04,17.04,3.46,1.9,2.55,5.04.41,8.01-3.22,4.46-6.03,9.09-7.83,14.48-2.35,7.04-2.33,12.58,4.94,16.64,1.98,1.1,4.34,3.4,4.59,5.4,1.37,10.78,6.56,18.4,16.6,22.74,1.64.71,2.9,2.67,2.2,4.32-4.05,9.53,2.78,10.63,9.19,12.94,12.85,4.63,13.57,9.59,5.24,20.36-11.24,14.52-25.17,22.1-43.78,20.25-6.07-.6-11.65.92-16.77,4.38-3.74,2.52-7.55,4.9-12.56,3.19-4.61-1.58-6.93,2.25-9.55,4.84-10.63,10.49-21.12,21.11-31.73,31.63-4.98,4.94-29.38,8.9-35.37,5.65-4.11-2.23-2.1-4.66.6-6.07,3.67-1.92,7.67-3.17,11.5-4.79,8.92-3.77,11.63-11.61,5.16-18.67-4.61-5.03-3.85-8.76-1.27-13.78,3-5.85,5.29-12.08,8.37-17.88,2.63-4.95.19-8.58-2.11-12.47-2.7-4.57-6.34-1.65-9.2-.72-5.48,1.79-10.8,2.28-16.32.67-8.22-2.4-14.53,3.32-21.78,5.03-2,.47-4.22,3.6-6.33.29-1.76-2.77-2.47-5.57-.02-8.58,4.88-6.02,11.18-10.9,12.65-19.52.52-3.02,4.82-7.07,8.9-5.82,10.28,3.13,19.46-3.01,29.38-2.47,8.47.46,15.5-2.82,20.38-10.06,3.14-4.64,7.27-7.66,13.11-6.48,11.51,2.32,17.61-6.18,24.98-12.14,4.16-3.36.93-7.15.08-10.52-2.74-10.86,3.81-20.61,14.94-20.01,5.83.31,6.23-3.07,7.46-6.46,2.31-6.34,2.66-13.39,7.87-21.39Z"/>
        <path class="cls-1" d="m192.46,652.69c-8.89,2.67-12.04-1.63-11.19-10.71.4-4.18-1.73-6.45-5.72-8.65-7.33-4.05-8.64-9.11-8.39-19.35.73-29.56,25.78-47.09,31.54-73.53,1.37-6.31,9.21-9,14.8-12.4,10.83-6.58,19.08-20.63,35.15-12.47,10.05-6.57,20.72-.47,31.1-1.28,11.05-.86,12.72,3.11,9.51,13.58-1.5,4.91-4.27,10.64,1.16,15.48,1.65,1.47,1.44,3.14.27,5.46-4.54,8.99-8.62,18.23-12.67,27.46-1.1,2.5-1.43,5.34-2.21,7.99-1.42,4.85-2.1,8.74-9.56,9.28-10.05.73-17.66,13.85-15.72,23.17,2.08,9.96-3.64,19.32-13.57,18.94-11.24-.44-19.01,3.15-25.56,12.01-4.37,5.92-11.6,5.38-18.95,5.02Z"/>
        <path class="cls-1" d="m402.61,283.98c-2.11,3.46-4.16,6.24-5.58,9.3-3.31,7.13-4.41,13.97,4.08,18.61.91.5,2.14.95,2.54,1.77,7.49,15.07,15.7,6.44,24.15,1.02,16.84-10.81,17.08-10.89,32.47,2.13,8.31,7.03,15.77,14.07,28.13,8.04,3.3-1.6,8.98.32,13.03,1.95,7.14,2.86,2.04,7.76.38,10.99-3.17,6.15-10.14,11.61.26,17.56,2.19,1.25.55,2.41-1.21,3.5-5.73,3.52-4.4,9.78-4.58,14.97-.11,3.26,4.69,6.45.36,10.11-6.22,5.25-10.37,13.46-19.74,14.21-4.14.33-8.35.34-12.5.08-6.21-.39-10.83,1.04-12.6,7.9-1.71,6.62-7.45,7.44-12.51,6.01-5.09-1.43-10.67-4.03-10.54-11,.32-17.19-10.96-28.7-20.78-40.44-4.04-4.83-11.71-3.16-17.52-.39-7.18,3.42-14.3,7.07-19.6,13.36-3.57,4.23-7.83,4.52-11.83.91-4.85-4.38-.51-6.4,2.71-8.47,1.57-1.01,3.09-2.36,2.31-4.14-2.97-6.87-2.79-13.24,2.18-19.14-8.5-8.05.33-21.22-9.42-29.72-5.29-4.61-6.46-12.75-1.86-20.08,5-7.96,16.66-13.67,25.67-11.82,7,1.43,13.96,3.01,22.01,2.79Z"/>
        <path class="cls-1" d="m279.57,507.96c5.8-2.71,10.48-4.88,15.14-7.1,12.68-6.01,18.36-15.76,16.24-29.61-1.07-7,3.38-9.41,8-11.64,7.91-3.82,9.22-8.36,2.79-14.74-1.71-1.7-3.33-3.64-4.43-5.76-2.46-4.73-1.93-9.31,4.45-7.58,5.71,1.55,7.71-1.04,9.76-4.8,2.45-4.48,6.05-7.89,10.62-9.59,5.39-2.01,13.54-2.04,14.21,3.67,1.07,9.13,6.72,11.2,13.03,13.91,2.49,1.07,3.66,3.05,4.4,5.44,2.96,9.59,5.67,19.27,8.97,28.73,1.51,4.33,1.2,7.67-1.12,11.68-4.4,7.62-1.86,15.41,6.76,17.79,10.04,2.78,8.45,6.57,3.72,13.24-6.34,8.94-12.98,17.81-13,29.86-.01,7.75-4.64,12.34-12.97,10.9-11.05-1.91-20.78,5.6-31.67,4.11-6.2-.84-13.47.68-16.65-7.4-.78-1.99-3.07-2.2-5.38-2.16-18.03.32-22.74-7.29-14.49-23.57,1.53-3.01,1.8-4.91-1.23-6.94-5.02-3.36-9.55-7.56-17.17-8.46Z"/>
        <path class="cls-1" d="m595.48,456.7c-4.71-5.03-2.63-9.14,2.01-11.11,12.36-5.23,12.62-21.1,24.27-26.79.76-.37,1.23-2.73.84-3.8-2.55-7.03,1.8-8.07,7.07-10.71,11.95-5.99,23.63-13.1,27.5-27.46,1.05-3.91,3.18-4.06,6.16-2.47,1.84.98,3.87,1.79,5.37,3.16,4.13,3.77,14.1,4.53,12.16,10.49-2.24,6.87-7.07,15.32-17.39,14.86-2.57-.12-3.67,1.73-4.84,3.38-6.08,8.54-12.6,16.63-21.88,21.95-4.16,2.39-3.8,5.7-1.36,8.68,3.37,4.11,3.38,12.96,11.23,11.13,30.42-7.08,42.98,20.79,37.45,42.96-2.32,9.3-7.29,18.08-6.06,28.18.11.88-.43,2.41-1.11,2.73-14.51,6.88-16.14,26.34-31.95,32.23-8.24,3.08-13.91,14.62-22.65,12.69-7.59-1.67-13.71-10.01-20.49-15.38-4.9-3.88-9.91-7.63-14.72-11.61-7.33-6.06-6.99-8.63,1.33-12.04,5.64-2.31,15.05-19.88,13.81-27.4-.97-5.89-.2-8.06,6.05-5.74,1.89.7,4.1.58,6.18.76,15.04,1.29,20.14-4.35,15.96-19.14-2.06-7.29-.83-10.74,6.71-12.4,3.19-.7,9.2-.91,7.86-6.05-1.29-4.94-3.28-11.26-10.25-11.55-8.67-.36-17.38-.14-26.06-.07-6.79.05-7.74,7.43-13.21,10.53Z"/>
        <path class="cls-1" d="m.02,117.75c3.58-10.17,10.16-21.12,17.01-31.9.69-1.09,3.18-1.74,4.68-1.51,12.58,1.9,21.59-5.74,31.56-11.18,16.25-8.87,30.4-22.38,50.3-23.45,2.41-.13,5.11-1.27,7.16-.53,17.48,6.3,34.9.6,52.34.17,6.81-.17,14-2.49,20.3,1.65,3.97,2.61,10.87,4.84,6.63,11.55-3.36,5.3-8.61,9.1-15.72,5.84-9.14-4.18-18.21-8.5-27.35-12.68-2.7-1.23-5.52-4.39-8.45-2.18-3.68,2.77-.28,6.48.44,9.51,1.76,7.39,4.14,14.64,6.51,21.87,1.89,5.75-.13,7.05-5.43,5.4-1.98-.62-4.04-.94-6.04-1.51q-13.19-3.73-11.47,9.15c.04.33.47.8.37.94-10.89,14.19-.45,33.35-11.33,47.83-3.3,4.4-4.72,4.68-8.55,1.43-9.75-8.27-18.53-17.83-30.26-23.55-2.78-1.36-5.6-3.57-8.47-3.66-7.48-.26-10.18-4.43-11.46-10.96-.41-2.07-.07-5.59-3.28-5.78-3.91-.23-3.56,3.85-4.37,6.09-3.06,8.47-6.15,16.99-8.18,25.74-2.14,9.23-10.03,7.45-15.79,8.9-5.48,1.38-5.28-4.69-6.12-7.84-1.2-4.51-4.18-6.14-7.94-7.16C1.94,128.52-.22,125.12.02,117.75Z"/>
        <path class="cls-1" d="m288.48,793.57c-3.74,7.03-.66,14.14,2.66,21.02,1.98,4.1-.93,6.43-2.22,9.47-3.31,7.76-5.99,15.4,5.44,19.05,5.13,1.64,3.7,3.81.37,6.19-4.79,3.43-9.62,6.83-14.18,10.56-5.63,4.6-10.63,7.89-15.27-1.25-2.93-5.77-7.58-2-10.74-.36-11.43,5.98-23.44,7.6-36.16,7.51-6.91-.05-11.29-1.95-13.52-8.48-1.99-5.81-5.69-8.56-12.26-9.06-14.65-1.11-28.36-6.07-41.55-12.46-2.87-1.39-6.31-2.79-5.05-6.68,1.51-4.66,5.18-1.52,7.85-1.22,8.79,1.01,16.95,1.72,21.46-8.74,3.01-6.97,11-5.36,16.64-6.24,13.96-2.17,22.1-12.28,30.43-21.35,5.19-5.65,10.58-9.21,17.44-9.66,8.57-.57,16.14-3.47,23.69-6.9,15.78-7.17,23.16,4.72,24.96,18.58Z"/>
        <path class="cls-1" d="m191.95,768.41c5.49-.65,12.27.46,19.25-1.58,7.09-2.07,9.09,6,12.91,9.92,3.71,3.81-.88,5.54-2.89,8.17-10.2,13.33-22.33,23.17-39.73,25.29-3.42.42-7.29.6-9.89,4.61-6.21,9.6-16.53,12.73-25.01,5.39-9.44-8.17-18.42-18.13-17.48-32.52.15-2.33.76-4.83,1.87-6.87,7.26-13.41,5.69-25.72-4.51-37.91-5.37-6.42-5.46-14.81-6.61-22.58-.53-3.59,3.44-3.62,6.18-3.85,10.38-.87,18.77-3.98,24.77-13.93,4.46-7.4,13.66-9.09,22.2-8.83,6.51.2,12.77,1.33,19.43-.66,6.66-2,6.82,2.72,4.83,7.38-2.99,7.02-6.02,14.04-9.5,20.82-2.5,4.88-2.61,8.46,1.38,12.99,6.28,7.12,4.9,10.47-3.98,14.5-5.75,2.61-12.97,3.09-15.08,11.11-1.5,5.72-.56,8.76,5.96,8.57,4.86-.14,9.72-.03,15.92-.03Z"/>
        <path class="cls-1" d="m329.25,713.6c6.9-7.69,14.89-14.54,24.88-15.88,11.02-1.48,20.92-10.81,32.96-5.01,14.23-10.77,29.11,5.46,43.62-.99,2.54-1.13,6.89-1,9.12.48,13.05,8.67,25.6,2.74,37.65-1.5,9.1-3.2,15.35,1.1,22.34,4.56,1.09.54,2.17,2.03,2.39,3.24,2.06,11.04-13.6,26.34-24.12,22.65-11.9-4.17-20.82-2.68-28.93,7.56-7.21,9.11-17.87,14.17-27.96,19.64-3.64,1.97-6.8,3.32-6.5,9.11.39,7.6-7.32,6.81-10.69,5.08-10.91-5.6-21.02-4.77-31.64.19-3.89,1.81-7.32,1.41-7.77-4.48-.31-4.08-1.77-8.09-2.82-12.1-1.06-4.06-1.91-8.22-7.6-8.27-2.48-.02-5.49-1.37-5.43-3.98.34-13.24-11.14-14.84-19.5-20.29Z"/>
        <path class="cls-1" d="m317.93,711.34c3.01-6.45,7.41-9.43,10.97-13.06,14.03-14.28,12.23-24.06-6.11-30.89-2.73-1.02-6.44-1.67-5.37-4.87,3-9.06-3.63-11.58-9.18-14.74-5-2.85-7.53-6.83-7.97-12.49-.19-2.36-.6-4.89-1.66-6.95-1.69-3.26-5.09-5.76-1.71-10.09,3.51-4.48,7.4-3.77,12.07-2.49,7.38,2.02,14.92,2.54,22.52.63,2.41-.61,5.41-.76,5.94-3.39,2.25-11.05,9.56-8.71,17.03-7.07,18.8,4.13,38.84,2.2,56.61,11.41,2.64,1.37,8.42,2.03,3.42,6.69-14.77,13.76-17.83,31.69-19.53,50.49-.7,7.75-2.15,16.81-13.86,9.23-1.59-1.03-3.21-.63-4.85.34-16.67,9.87-38.48,9.56-51.85,26.14-.77.96-3.17.6-6.47,1.1Z"/>
        <path class="cls-1" d="m526.58,710.41c2.96-21.84,15.73-39.58,28.31-56.39,6-8.01,19.17-11.04,30.17-12.38,10.27-1.25,20.86-.82,31.23-.03,12.51.95,15.99,8.58,8.18,18.12-4.29,5.25-5.05,10.81-4.11,16.53,3.03,18.5-6.08,32.91-15.39,47.11-4.25,6.48-12.7,7.7-19.15,11.24-2.91,1.6-9.17-1.93-7.44-8.15,2.71-9.76-2.98-10.71-10.12-10.26-5.53.35-11.11.7-16.55,1.69-5.52,1-10.28,3.45-12.54-5.27-1.58-6.11-8.02.19-12.59-2.21Z"/>
        <path class="cls-1" d="m504.3,786.39c-2.44.78-3.75,1.54-5.07,1.56-2.97.05-5.67,3.8-8.7.97-1.86-1.74-.83-4.1.6-5.54,3.02-3.05,5.43-8.57,10.7-6.38,4.77,1.98,9.37,2.05,14.19,2.03,2.46,0,5.67-.03,6.3-2.6,2.51-10.11,10.51-9.07,18.04-9.95,7.74-.91,13.34-4.95,15.07-13.21,1.78-8.45,3.98-16.8,5.64-25.27,1.01-5.19,4.51-5.46,8.55-5.29,4.78.2,3.81,3.18,3.82,6.56.02,8.08,9.75,12.8,17.13,8.67,11.44-6.41,14.08-5.64,19.82,5.65.74,1.46,2.45,2.6.82,4.52-9.61,11.35-3.83,22.94-.28,34.36,1.5,4.81-7.89,22.21-14.42,24.12-10.05,2.93-19.72,6.08-27.09,14.11-3.21,3.49-7.05,1.38-10.68.39-14.91-4.09-27.98-11.2-38.99-22.27-4.79-4.82-10.63-8.59-15.46-12.41Z"/>
        <path class="cls-1" d="m540.14,594.48c4.07-12.14.12-25.73-2.91-39.14-1.35-5.98.36-8.46,5.22-10.2,6.88-2.48,11.57-7.14,14.55-13.75,2.12-4.69,5.6-7.94,10.86-8.7,5.06-.73,9.41.01,8.67,6.67-.72,6.43,2.68,10.21,7.33,13.83,9.86,7.67,19.48,15.66,29.18,23.54,2.93,2.38,6.98,4.49,1.84,8.71-.87.72-1.72,3.02-1.31,3.5,8.95,10.45-.79,9.95-6.65,11.05-4.97.93-5.86,4.78-6.61,8.3-3.11,14.78-15.05,24.63-20.85,38.08-3.68,8.53-18.76,7.11-22.89-1.4-6.09-12.56-17.08-23.12-16.43-40.47Z"/>
        <path class="cls-1" d="m753.04,345.46c-9.71-.83-15.76,6.73-13.82,14.49,3.4,13.61-4.29,24.43-18.15,25.47-2.08.16-4.57-.62-6.19.27-23.23,12.7-34.37-10.97-51.31-16.99-3.3-1.18-3.36-4.09-1.51-6.88,1.53-2.31,2.61-5.69,4.77-6.7,16.41-7.67,15.73-23.04,17.24-37.35.6-5.73.99-10.76,7.81-13.12,4.06-1.41,4.93-6.53,6.53-10.25,2.67-6.19,4.88-8.18,10.79-2.44,16.43,15.94,31.03,33.8,49.58,47.53,1.33.99,3.21,2.21,1.82,4.14-2.56,3.53-6.3,1.79-7.55,1.85Z"/>
        <path class="cls-1" d="m755.56,444.57c-2.34,6.98-5.26,13.78,1.46,20.16,2.12,2.02-.85,2.57-2.06,3.37-6.05,3.99-11.84,8.73-19.5,9.11-4.24.22-7.32,2.22-9.69,5.29-5.15,6.66-9.72,5.71-15.24.13-10.51-10.63-23.72-17.89-31.94-31.77-4.18-7.06-16.35-11.73-26.94-8.78-5.66,1.57-8.11-.1-10.69-4.58-3.25-5.64,1.07-7.22,4.35-9.59,3.63-2.62,7.04-5.34,9.85-9.04,3.69-4.86,5.99-10.65,14.61-11.16,4.55-.27,8.74-8.15,12.94-12.73,3.13-3.41,5.17-4.36,8.84.17,4.52,5.58,10.7,9.78,15.82,14.92,7.43,7.48,13.6,16.06,14.71,26.77.79,7.58,3.98,8.42,10.27,6.59,5.29-1.53,10.85-2.07,16.19-3.46,4.39-1.14,6.67.07,7.03,4.58Z"/>
        <path class="cls-1" d="m534.29,582.78c-3.28,22.47,7.23,39.68,18.79,56.33,4,5.76-.17,7.19-2.68,11.3-9.85,16.15-20.29,32.08-27.56,49.64-1.51-1.42-3.74-4.59-4.71-4.24-9.31,3.35-14.33-4.76-21.26-7.5-14.1-5.58-19.21-14.47-14.24-28.96,8.1-23.61,17.58-46.74,26.57-70.03.92-2.39,2.1-6.16,5.7-2.82,7.74,7.19,12.85,1.71,19.37-3.71Z"/>
        <path class="cls-1" d="m83.13,363.73c15.04-.57,32,2.49,46.79-8.22,3.11-2.26,5.5,1.79,8.25,2.86,5.03,1.94,8.38,10.3,15.84,3.22,2.47-2.35,3.68,2.39,4.31,4.19,2,5.7,4.49,10.53,10.23,13.61,4.22,2.26,4.42,6.75.61,9.39-4.96,3.45-7.32,8.2-9.09,13.42-2.63,7.79-9.84,7.09-15.54,8.09-8.5,1.5-17.27,1.39-25.88,2.3-12.5,1.32-23.75.17-31.04-12.09-2.76-4.64-7.72-6.68-12.86-8.1-6.67-1.85-13.49-3.41-19.86-6.03-4.03-1.66-12.76.52-10.69-7.43,1.79-6.88,2.95-16.45,14.68-15.36,7.57.7,15.26.13,24.26.13Z"/>
        <path class="cls-1" d="m304.84,766.38c4.25-.33,8.84.49,13.26,4.38,6.84,6.02,15.36,3.49,19.02-5,2.6-6.04,4.78-12.27,7.35-18.33,1.17-2.76,2.02-6.28,6.31-5.58,3.86.63,5.62,3,6.74,6.83,3.19,10.95,5.28,20.72-6.07,29.34-7.52,5.71-6.26,14.42,1.77,19.78,5.23,3.49,5.23,6.75,3.57,12.09-3.15,10.12-2.39,21.94-13.98,27.88-2.36,1.21-4.64,4.9-7.1,2.87-6.92-5.71-11.94-.91-17.77,1.83-9.12,4.29-17.26-1.26-24.1-5.34-5.37-3.21-1.16-9.97,1.65-14.82.68-1.18,1.8-2.96,1.39-3.78-5.49-10.83-2.19-23.19-5.64-34.03-4.65-14.61-3.09-18.04,13.62-18.1Z"/>
        <path class="cls-1" d="m351.63,288.59c-13.25-4.4-14.12-20.07-27.11-23.63-2.78-.76-2.96-4.25-3.54-7.05-2.67-12.85-5.43-25.69-8.5-38.45-1.16-4.83-1.22-10.53-7.2-12.85-2.17-.84-3.27-2.71-2.46-5.02,1.1-3.12,4.15-2.83,6.18-2.06,9.87,3.75,13.97-.2,17.29-9.67,3.79-10.81,10.28-9.95,20.29-7.92,19.29,3.91,18,21.78,26.16,33.11,1.7,2.36,1.36,4.47-1.92,5.54-13.22,4.31-13.16,20.48-9.68,32.92.74,2.64,1.96,5.18,3.23,7.63,4.52,8.8,9.81,17.41-6.04,20.66-2.99.61-5.17,5.16-6.69,6.78Z"/>
        <path class="cls-1" d="m501.31,270.15c-4.59-.45-11.15-.91-17.65-1.79-6.95-.94-6.42-6.28-5.74-11.16.76-5.48,1.99-10.48-1.72-15.85-8.28-11.99-8.09-12.34-19.08-3.42-3.76,3.05-5.74,3.05-7.46-1.7-1.29-3.57-3.08-6.96-4.7-10.4-1.66-3.52-3.67-4.9-7.01-1.51-2.57,2.62-5.28,9.08-9.27,3.46-2.86-4.02-3.56-10.92,1.79-15.03,5.42-4.17,10.99-8.53,18.72-7.46,2.7.37,6.68,1.03,8.12-.4,15.97-15.95,37.02-2.23,54.48-9.57,3.91-1.65,9.54-.36,11.85,4.09,1.97,3.8.3,7.48-2.67,11.23-5.61,7.09-5.15,15.08-1,23.18,3.87,7.56,9.15,15.59-3.59,20.8-3.64,1.49-3.6,6.44-5.02,9.9-1.53,3.72-3.07,7.17-10.03,5.65Z"/>
        <path class="cls-1" d="m692.44,560.91c-4.95,10.07-.63,11.91,7.73,11.73,15.26-.34,30.53-.2,45.79,0,2.74.04,6.88-1.95,7.94,2.4.73,2.99-.1,6.88-2.96,8.42-13.27,7.12-21.44,19.03-30.19,30.56-4.31,5.69-10.35,6.2-16.89,3.44-6.49-2.74-12.43-8.09-20.39-4.79-.54.22-1.7.04-1.97-.36-8.44-12.61-20.01-4.84-30.08-4.08-7.08.54-9.85-.93-9.25-7.93.03-.34.12-.78-.04-1.03-7.76-12.21,1.51-23.22,2.49-34.8.39-4.62,2.11-6.85,7.5-3.95,12.84,6.92,26.08,9.16,40.29.38Z"/>
        <path class="cls-1" d="m111.12,427.98c-.73,9.43-1.33,16.83-12.74,21.93-10.05,4.49-21.73,11.41-24.54,24.97-1.13,5.46-5.35,5.36-8.9,3.54-10.32-5.3-17.76-14.32-25.91-22.18-4.9-4.73-3.72-11.92-.62-18.49,2.67-5.67,6.38-11.36,1.08-18.3-2.83-3.71,2.08-6.84,4.6-9.36,4.85-4.86,6.1-8.84-.6-13.21-2.27-1.48-6.19-3.19-4.37-7.19,2.12-4.67,5.88-1.19,8.05-.36,13.95,5.3,30.72,4.83,40.65,18.58,4.58,6.35,8.7,11.43,18.07,10.21,7.07-.92,4.59,6,5.25,9.87Z"/>
        <path class="cls-1" d="m47.69,118.24c2.84,4.09,6.13,5.26,10.57,6.2,19.39,4.14,31.61,19.31,46.03,31.05,3.57,2.91,1.37,5.74-1.18,7.76-13.05,10.32-25.24,22.29-40.89,28.37-8.93,3.47-19.38,5.38-28.25-2.06-2.69-2.25-5.9-2.34-8.9-1.93-10.44,1.42-11.49-4.44-10.35-12.51,1.85-13.12,4.12-25.84,20.6-28.24,4.09-.59,4.23-4.29,5.22-7.03,2.58-7.13,4.79-14.4,7.15-21.62Z"/>
        <path class="cls-1" d="m542.88,194.42c2.35,1.25,3.14-2.71,4.34-5.97,2.16-5.82,4.03-11.77,6.49-17.46,1.78-4.12,4.52-6.61,8.08-1.22,8.09,12.28,21.54,16.89,33.79,22.95,4.99,2.47,6.42,3.68,4.32,9.69-5.72,16.44-18.34,27.89-28.73,40.63-9.19,11.26-23.11,10.06-35.85,4.5-9.92-4.33-9.84-15.07-13.64-23.25-.63-1.34-.25-3.63.49-5.05,3.7-7.13,8.6-13.5,8.94-22.29.13-3.43,4.47-6.12,11.77-2.53Z"/>
        <path class="cls-1" d="m371.31,48.28c10.64-2.5,14.49,10.36,23.48,14.16,1.51.64.39,4.74-1.89,6.1-2.02,1.2-4.44,1.76-6.73,2.45-16.21,4.91-21.7,11.89-22.48,29.3-.28,6.22.73,12.61-6.14,16.36-2.04,1.12-1.71,3.37-1.56,5.57.85,12.81-6.67,19.59-18.97,17.57-9.88-1.62-19.78-3.41-29.74-4.25-6.17-.52-6.16-3.07-3.89-7.24,1.47-2.7,2.83-5.91,5.17-7.61,13.87-10.06,19.75-24.42,22.14-40.54,1.07-7.2,4.7-11.81,10.72-15.47,6.79-4.13,13.2-8.9,19.75-13.44,2.57-1.78,5.01-3.77,10.13-2.97Z"/>
        <path class="cls-1" d="m376,892.56c-.21,3.41-1.32,7.36-10.34,5.67-6.38-1.19-13.05,4.41-13.57,11.07-.42,5.42-2.8,6.31-6.4,7.34-7.29,2.09-14.72,3.7-21.92,6.06-5.48,1.79-8.38-.33-8.62-5.37-.34-7.33-4.66-8.38-10.49-8.13-2.77.12-5.54.03-8.32,0-11.5-.11-11.74-.22-7.01-10.55,2.13-4.65,2.05-7.66-2.89-9.98-5.82-2.73-4.01-4.39-.13-8.55,8.68-9.31,23-6.82,31.3-16.61,2.43-2.87,4.82,1.5,6.04,3.6,3.17,5.44,7.31,6.04,13.16,4.85,8.09-1.64,16.4-2.28,24.64-2.99,11.52-.99,14.8,3.71,14.54,23.58Z"/>
        <path class="cls-1" d="m324.24,950.93c-.48,5.86-1.86,11.81-1.26,17.56,1.35,13.02-5.59,17.26-16.92,19.43-18.21,3.49-35.46,4.39-51.4-7.73-7.05-5.37-10-11.06-6.55-19.29,1.13-2.7,1.88-5.27.95-8-2.67-7.9.26-13.21,7.09-17.34,5.34-3.23,9-10.61,15.48.36,4.6,7.78,31.68,8.63,39.34,3.95,3.59-2.2,6.95-7.66,11.43-4.87,3.6,2.25,1.05,7.74,1.49,11.77.15,1.37.02,2.77.02,4.15.11,0,.21.02.32.03Z"/>
        <path class="cls-1" d="m63.38,58.36c9.13-10.57,9.52-22.86,8.2-35.99,12.28-2.12,25.14-7.03,37.39-5.81,18.1,1.79,34.9-5.54,52.88-3.69,16.95,1.75,22.93,4.91,26.17,21.61.81,4.2,3.74,8.38,1.61,13.05-16.94-7.39-33.98-.98-50.88-.79-8.29.09-16.13.21-24.5-1.53-11.02-2.29-22.55.4-32.89,5.6-5.46,2.75-10.52,6.27-15.76,9.44-.74-.63-1.47-1.26-2.21-1.89Z"/>
        <path class="cls-1" d="m275.46,768.98c-8.64-3.41-15.19,2.82-22.46,5.4-15.82,5.62-22.24,4.21-30.92-6.98-3.02-3.89-3.76-7,0-10.82,9.26-9.38,17-21.18,27.92-27.72,7.91-4.73,18.2-8.06,27.88-10.05,11.51-2.36,23.38-2.88,35.2-2.26,2.95.16,6.72-1.19,8.22,2.64,1.33,3.41.52,6.89-1.87,9.75-1.32,1.58-2.69,3.71-4.45,4.26-15.44,4.75-21.86,18.15-29.55,30.33-2.34,3.71-4.61,7.22-9.98,5.45Z"/>
        <path class="cls-1" d="m571.61,964.03c5.85.86,13.22-1.29,20.56-2.67,5.34-1.01,10.36-.86,15.23,1.39,6.9,3.19,9.48,10.61,5.4,16.88-4.45,6.84-5.75,14.35-7.75,22.08-2.99,11.59-10.04,22.39-19.35,30.17-14.36,12.01-13.98,10.63-26.99-4.47-10.68-12.39-13.16-23.67-4.58-37.91,4.07-6.74,6.07-14.72,9.04-22.13,1.19-2.98,2.33-6.15,8.43-3.34Z"/>
        <path class="cls-1" d="m438.5,934.35c-5.51,9.18-2.51,20.29-.16,31.47.91,4.34-2.89,6.15-5.88,7.62-11.57,5.71-16.94,14.38-14.77,27.52.42,2.55.57,8.79-2.74,7.14-6.13-3.06-12.37,10.07-17.83-1.39-2.84-5.95-5.78-11.31-6.19-18.14-1.16-19.07-2.06-38.09.63-57.11,1.39-9.83,4.52-16.56,16.85-15.2,6.89.76,14.83-3.93,17.74,6.97.29,1.1,4.35,1.62,6.67,1.66,5.36.1,6.35,3.2,5.67,9.47Z"/>
        <path class="cls-1" d="m322.24,285.38c-6.53.69-11.2-.56-15.69-3.94-8.78-6.6-17.3-13.25-28.88-15.51-9.43-1.84-13.63-15.01-8.2-22.84,9.83-14.18,10.2-29.64,7.25-45.68-2.09-11.37,6.05-23,17.52-24.84,4.22-.68,7.38-.59,4.85,5.03-3.59,7.98-1.55,16.4-1.96,24.63-.07,1.35-.16,3.36.62,4.01,16.08,13.16,11.91,33.49,17.78,50.23,2.26,6.43,2.25,13.29,11.4,14.91,4.66.83,6.89,6.97,5.85,11.01-1.52,5.92-7.73,1.99-10.56,2.98Z"/>
        <path class="cls-1" d="m211.68,912.4c-.37-6.23-1.05-12.46-1.05-18.69,0-11.93,9.83-22.39,21.55-23,7.92-.42,14.61-4.25,21.54-7.3,5.33-2.34,9.16-2.17,11.85,3.53,1.67,3.54,4.42,6.04,8,7.79,2.01.98,5.7,2.85,3.24,5.13-7.33,6.82-.69,8.47,3.53,10.75,4.87,2.63,4.8,5.39,2.41,10.06-4.42,8.62-9.29,15.3-20.55,13.02-4.21-.85-8.23.49-11.3,3.95-3.4,3.82-7.86,5.49-12.86,6.16-1.97.26-5.06.7-5.58,1.93-5.93,13.92-13.56,1.52-20.23,1.27-2.53-.1-3.8-2.82-1.87-5.6,1.9-2.74,2.03-5.84,1.32-8.99Z"/>
        <path class="cls-1" d="m387.6,865.54c3.64-7.42,4.49-10.99-3.45-14.05-7.49-2.89-4.93-12.79-6.46-19.6-1.26-5.6,4.35-6.45,7.96-7.88,15.15-6.01,27.73-16.25,41.27-24.89,7.46-4.75,12.26-3.32,14.07,5.16.22,1.01-.08,2.82.37,2.99,7.7,3.06,5.74,11.26,8.95,16.11,3.84,5.79,2.66,8.82-.08,13.6-3.04,5.31-7.22,10.02-7.66,16.82-.28,4.36-14.31,9.46-19.54,6.5-12.36-7.01-22.75-2.58-35.44,5.23Z"/>
        <path class="cls-1" d="m505.16,579.53c2.02-6.72,3.22-12.27-1.17-18.84-3.08-4.61,2.45-10.94,3.22-16.71,1.07-7.95,9.6-15.92-1.46-23.79-3.15-2.24.94-5.75,4.31-5.74,8.98.03,17.49-6.17,26.95-1.3,4.31,2.22,6.87-2.41,8.99-5.36,6.93-9.65,13.98-16.68,27.1-8.84,4.39,2.62,10.78,1.96,16.27,2.63,3.16.39,6.8.45,7.46,4.25,1.03,5.96-4.55,8.93-7.02,13.32-1.47,2.61-3.42,2.35-6.15,1.28-15.82-6.18-23.29-3.71-31.83,10.25-2.02,3.3-4.2,6.17-7.69,8.21-13.85,8.12-14.11,8.28-10.48,24.89,1.35,6.17.22,10.42-4.1,14.94-4.69,4.91-8.91,7.73-14.57,1.98-2.85-2.9-6.23-1.3-9.83-1.17Z"/>
        <path class="cls-1" d="m374.98,561.1c9.63,1.97,17.97,6.11,26.82.85,2.6-1.55,4.81,3.5,5.83,6.16,5.04,13.09,17.39,17,28.05,23.09,2.69,1.54,5.46,1.4,7.98.14,5.74-2.86,9.69-.68,13.49,3.71,4.02,4.65,5.73,9.4,2.64,15.16-3.9,7.27-4.26,15.12-4.35,23.2-.11,9.3-5.5,12.13-13.64,7.75-4.58-2.46-9.18-4.92-13.58-7.68-4.18-2.63-11.58-3.83-4.98-11.66,2.67-3.17-1.31-4.91-3.71-5.82-8.35-3.18-15.75-9.1-25.13-9.31-6.87-.15-4.88-4.97-3.91-8.07,2.88-9.2,3.84-16.85-6.82-22.4-4.53-2.36-6.64-8.41-8.69-15.12Z"/>
        <path class="cls-1" d="m502.39,750.67c-5.88,11.31-11.78,22.61-17.65,33.92-1.64,3.16-4.88,3.78-7.78,4.68-3.91,1.21-6.77,3.04-7.7,7.39-1.28,6.03-5.39,8.31-11.37,8.32-5.64.01-12.95,3.73-12.29-7.25.16-2.72-3.24-3.47-5.46-4.11-5.35-1.54-8.34-4.86-8.34-10.4,0-3.87-2.54-5.59-5.31-6.94-5.45-2.65-5.77-6.03-6.59-12.33-1.4-10.71,4.98-12.27,10.8-15.81,5.29-3.22,11.19-5.44,15.53-10.21,1.16-1.27,2.57-3.89,5.07-1.99,1.89,1.44,1.47,3.34.99,5.58-2.54,11.9.8,15.45,12.85,12.92,11.94-2.5,24.58.49,37.27-3.79Z"/>
        <path class="cls-1" d="m398.21,483.53c-6.7.67-10.85,1.44-9.67-8.99,1.61-14.24-8.34-26.61-11.91-40.24-.94-3.58-5.37-4.11-8.55-5.25-5.54-1.98-6.55-6.42-5.04-10.89,1.74-5.14,6.05-2.08,8.62-.74,15.74,8.22,31.6,3.62,47.57,1.26,14.82-2.19,21.36.68,20.32,11.12-1.05,10.55,2.25,23.91-12.36,30.47-6.89,3.09-15.28,6.58-15.18,18.18.06,6.98-8.62,4.7-13.79,5.09Z"/>
        <path class="cls-1" d="m154.51,221.55c10.65-6.44,11.16-16.85,13.77-25.72,2.45-8.34,7.28-10.73,14.94-11.3,16.23-1.19,32.41-3,48.64-4.1,4.81-.33,7.58-2.44,9.89-6.24,2.99-4.92,7.52-5.55,8.81.2,2.16,9.6,10.02,12.58,18.87,18.78-4.63,0-7.13.42-9.44-.08-8.04-1.73-14.37-2.14-11.49,9.53,1.15,4.65-2.59,3.62-5.32,3.35-8.07-.82-15.83-.91-19.58,8.43-.31.76-1.71,1.89-1.85,1.79-8.73-6.2-12.84,3.48-18.95,5.74-11.21,4.13-22.1,9.31-32.86-.37-4.84-4.36-8.98,1.75-15.43-.02Z"/>
        <path class="cls-1" d="m261.26,111.48c7.66.96,17.29-2.82,19.51,10.21.64,3.78,7.46,1.94,11.46,2.05,5.77.15,7.68,2.07,4.91,7.62-4.54,9.09-7.44,18.59-6.47,28.96.37,3.91-2.35,6.25-4.91,8.67-3.52,3.33-8.57,6.21-10.04,10.32-4.37,12.2-11.85,7.17-15.17,1.7-4.52-7.45-13.49-13.22-11.71-24.15.42-2.61-1.86-5.8-3.26-8.54-4.1-8.01-8.45-15.89-12.57-23.89-2.7-5.25-2.45-10,4.54-10.56,7.92-.64,15.61-3.54,23.72-2.4Z"/>
        <path class="cls-1" d="m168.62,569.94c2.36.4,5.73-.02,6.86,1.38,2.15,2.64-.88,5.15-2.39,7.23-5.24,7.22-7.84,14.88-8.33,24.03-.32,6.01,1.1,17.1-12.4,12.19-4.26-1.55-5.88,4.3-7.39,7.38-5.15,10.49-15.21,13.91-24.86,17.42-4.03,1.47-10.68,3.19-13.14-2.2-2.53-5.55-7.68-11.97-2.72-18.37,5.07-6.54,5.14-11.5-.26-18.07-4.09-4.97,2.5-16.3,8.85-16.77,15.24-1.14,30.34-2.76,43.71-11.23,3.63-2.3,7.74-2.94,12.06-2.98Z"/>
        <path class="cls-1" d="m174.73,374.53c8.24-19.16,13.55-39.17,29.09-53.94,3.47-3.3,23.3-3.2,26.8.33,1.46,1.47,1.48,3.14.5,4.69-4.92,7.82-.28,13.82,3.91,19.69,7.18,10.06,11.94,20.84,13.01,33.38.42,4.9.56,7.85-5.15,9.01-5.53,1.12-16.41-2.61-20.01-7.71-5.07-7.2-32.17-13.01-39.66-8.52-2.27,1.36-4.22,3.47-8.49,3.08Z"/>
        <path class="cls-1" d="m388.91,762.47c7.49,1.81,14.29,7.47,22.76,4.75.21,10.18,12.06,9.93,15.46,17.27,3.19,6.89-1.18,11.42-6.15,13.43-16.02,6.46-27.63,20.57-44.64,25.1-2.65.71-5.12,2.09-7.77,2.82-7.39,2.02-10.94-1.37-9.33-9.01.57-2.68,1.68-5.29,2.87-7.78,2.79-5.84,2.14-10.26-4.08-13.57-8.2-4.36-6.64-9.64-1.61-16,8.39-10.62,20.29-13.76,32.49-17.01Z"/>
        <path class="cls-1" d="m416.82,89.06c2.4.28,5.76,1.72,7.04.66,15.79-13.04,27.38,2.9,40.67,5.9,6.27,1.42,9,8.37,12.47,13.46,2.76,4.05-1.52,5.93-4.02,6.71-10.73,3.3-12.5,12.03-13.17,21.16-.71,9.72-5.28,17.83-9.59,26.12-1.21,2.33-3.04,4.09-5.85,2.77-3.22-1.51-2.12-4.12-.69-6.1,6.41-8.88,1.36-13.72-6.05-17.77-14.64-8.01-24.49-19.82-29.51-35.86-3.05-9.75.7-17.85,8.71-17.05Z"/>
        <path class="cls-1" d="m546.83,881.36c16.57.02,17.12.82,21.59,14.48,2.87,8.77-1.86,10.9-7.94,8.77-13.1-4.6-17.44,2.85-20.73,12.86-1.75,5.32-4.26,8.99-10.84,8.96-5.34-.02-7.91,5.16-11.37,8.41-3.33,3.12-6.41,6.46-11.55,5.82-6.07-.75-14.89,3.02-16.51-6.17-1.59-9.06-8.52-19.36,2.47-27.63,2.48-1.86,4.93-3.95,6.82-6.38,12.29-15.85,29.43-19.3,48.06-19.11Z"/>
        <path class="cls-1" d="m798.44,481.63c-9.76-4.79-20.19-8.57-29.64-14.51-8.23-5.17-14.92-10.47-8.89-21.57,2.67-4.91-1.85-8.44-3.85-12.22-2.29-4.34-3.03-7.1,3.42-7.02,15.75.19,30.76-4.85,46.21-6.83,3.34-.43,7.2-2.81,9.05,1.72,1.99,4.86,7.85,10.06,3.79,15.12-9.15,11.39-10.12,25.52-14.93,38.33-.97,2.58-.46,6.59-5.15,6.99Z"/>
        <path class="cls-1" d="m274.63,64.89c-6.37-.99-9.66,3.41-14.03,5.08-4.37,1.67-7.8,8.47-14.3,2.1-2.73-2.67-4.47,2.92-6,5.22-7.37,11.1-8.3,10.41-16.05-.28-4.88-6.74-12.99-11.18-19.77-16.51-2.74-2.15-5.73-3.97-7.03-7.41-1.83-4.87-4.06-10.84-1.97-14.89,2.26-4.37,8.11-.63,12.41-.28,2.72.22,5.8.69,8.19-.27,10.67-4.29,21.8-2.81,32.79-3.54,9.12-.6,15.59,1.04,16.35,11.6.28,3.85,2.14,6.5,6.19,7.22,2.58.46,4.2,2.33,5.72,4.22,1.51,1.88,3.38,3.84,2.62,6.46-1.14,3.96-3.99.94-5.12,1.27Z"/>
        <path class="cls-1" d="m273.44,505.27c4.82-5.72,3.15-9.68,1.65-13.3-2.13-5.13-.85-8.62,3.64-11.38,6.51-4.01,3.42-6.56-1.17-9.48-9.34-5.94-9.62-8.68-1.87-17.41,3.3-3.72,6.57-6.31,2.64-12.26-7.08-10.71-1.24-21.32,12.13-23.04,4.09-.53,8.35-.36,12.48.04,12.53,1.23,13,1.51,8.65,13.43-2.4,6.59,1.79,9.93,4.84,13.67,3.88,4.75,4.99,8.15-1.63,10.98-7.4,3.17-9.63,8.09-7.96,16.46,1.95,9.76-3.2,17.53-11.79,22.31-6.02,3.35-12.52,5.84-21.6,9.99Z"/>
        <path class="cls-1" d="m385.52,1000.45c-6.04-4.25-6.73-10.45-11.99-14.1-11.82-8.21-23.97-8.07-36.61-5.1-7.97,1.87-10.15-.88-9.5-8.2,1.2-13.46,2.02-26.95,3.44-40.39.63-5.91,15.72-14.19,21.21-12.08,1.71.66,2.65,2.11,2.95,3.96,2.37,14.66,9.26,25.65,24.21,30.38,2.52.8,5.14,2.32,5.2,5.79.19,12.7,3.78,25.3,1.09,39.75Z"/>
        <path class="cls-1" d="m516.29,267.42c2.72,3.4,4.81,6.12,7.01,8.75,7.61,9.1,6.14,18.72-3.42,25.36-4.23,2.94-12.5,3.53-7.07,13.16,1.47,2.62-4.14,9.29-10.94,7.3-7.45-2.18-14.9-3.18-22.33.02-4.02,1.73-6.61-.9-9.25-3.08-4.29-3.54-8.59-7.08-12.6-10.92-2.56-2.45-7.96-4.06-6.05-8.49,1.84-4.25,5.42-8.77,10.93-8.42,8.93.57,13.69-2,13.5-11.96-.1-5.15,3.23-7.74,9.28-6.3,6.69,1.59,13.73,1.71,20.5,3.03,6.93,1.35,7.24-4.97,10.43-8.45Z"/>
        <path class="cls-1" d="m451.8,816.84c12.03,3.85,20.35,8.3,27.35,14.19,7.19,6.06,9.86,12.91,6.08,24.1-6.36,18.82-16.76,28.05-36.41,32.41-11.88,2.64-20.92-1.49-30.15-4.41-4.36-1.38-6.47-12.13-8.07-19-.74-3.18,3.41-3.85,6.09-1.78,9.42,7.25,22.27,3.87,26.94-1.17,8.01-8.63,11.18-21.95,15.47-33.64.66-1.79-3.52-5.35-7.31-10.71Z"/>
        <path class="cls-1" d="m493.93,397.32c4.09.68,8.37.8,12.22,2.16,6.15,2.18,1.43,7.09.35,8.82-3.96,6.35-4.04,14.04-6.42,19.8-5.45,13.2-15.99,24.43-25.25,35.84-2.34,2.89-6.31-.32-8.91-2.84-11.33-10.95-15.4-26.09-22.73-39.34-.94-1.7-.79-3.87,1.03-4.49,11.8-3.97,18.7-19.37,34.69-14.1,5.3,1.75,8.74-6.83,15.02-5.85Z"/>
        <path class="cls-1" d="m104.14,168.72c3.67,10.42,3.79,19.9,4.53,29.08.82,10.07-11.05,21.38-22.97,23.36-5.8.96-11.75,1.62-17.6,1.48-7.39-.18-13.5,1.35-18.48,7.32-3.01,3.61-7.72,8.51-12.09,5.02-4.53-3.62-8.62-9.5-8-16.22,1.41-15.19,6.65-19.94,22.22-19.77,12.49.14,21.34-7.51,30.82-13.58,7.24-4.63,13.68-10.51,21.57-16.7Z"/>
        <path class="cls-1" d="m428.93,413.16c-20.47,1.34-39.43,8.71-58.67-1.15-8.16-4.18-13.38-14.88-7.61-21.83,7.92-9.54,15.97-19.41,27.83-24.59,7.66-3.34,14.3-3.26,19.72,4.99,6.81,10.38,15.78,19.57,13.09,33.62-.68,3.56,3.86,4.5,5.64,8.95Z"/>
        <path class="cls-1" d="m768.13,543.67c-1.87,3.19-4.25,5.6-4.73,8.34-2.48,14.16-11.65,16.42-24.11,15.43-11.35-.9-22.84-.39-34.25-.13-6.68.15-9.49-1.64-5.36-8.13,3.29-5.16,2.02-9.65-2.72-12.42-9.05-5.28-7.49-14.57-9.13-22.52-.91-4.4,2.72-3.72,5.48-2.8,6.79,2.26,13.44,3.06,19.76-1.38,2.68-1.88,5.1-1.12,7.61.59,5.43,3.69,11.23,6.89,16.43,10.88,14.21,10.9,14.12,11.02,31.02,12.14Z"/>
        <path class="cls-1" d="m551.28,408.85c8.29-.16,11.16-5.98,15.89-9.01,4.61-2.96,9.96-9.18,14.34,1.64,1.66,4.11,7.99,6.21,11.91,9.56,5.77,4.93,9.36-.68,13.84-2.4,3.69-1.41,7.58-2.16,9.87,2.35,2.06,4.05-.27,6.36-3.55,8.39-4.44,2.73-8.03,5.61-8.47,11.91-.39,5.62-6.8,7.46-10.81,10.46-5.08,3.8-8.79,7.5-3.75,17.38-13.87-9.82-25.18-4.21-36.3-2.28-7.35,1.27-7.99-1.4-7.92-7.35.09-6.97,4.71-11.36,8.16-16.35,5.89-8.52,13.53-16.74-3.2-24.3Z"/>
        <path class="cls-1" d="m657.46,358.46c-2.74-2.89-4.99-5.54-7.53-7.87-5.15-4.72-7.05-9.27-.44-14.38,3.44-2.65,3.96-6.68,2.77-10.42-4.6-14.4,1.87-28.02,2.58-42.02.32-6.21,5.31-4,7.71-3.06,8.2,3.2,11.67-1.03,15.22-7.43,5.88-10.59,6.36-10.42,13.72-1.13,8.81,11.13,6.56,22.43-6.36,29.83-2.78,1.59-4.14,3.2-4.45,6.23-.61,5.83-1.41,11.64-2.14,17.46-1.21,9.75-2.47,19.55-13.22,23.94-4,1.63-3.94,6.34-7.86,8.86Z"/>
        <path class="cls-1" d="m243.42,975.3c-8.22-2.1-12.63.41-17.47,5.73-6.52,7.17-15.08,6.56-23.91,2.63-9.33-4.15-11.45-10.2-9.37-19.89,2.15-9.98,6.6-18.97,9.82-28.46,1.42-4.18,3.99-5.22,7.99-3.72,4.54,1.7,9.13,3.26,13.69,4.89,5.4,1.93,10.98,4.55,11.81-4.88.2-2.33,2.52-3.78,4.46-3.76,6.46.04,11.05-3.13,15.34-7.44,1.83-1.84,4.78-2.45,6.5-.23,1.92,2.47-.54,4.54-2.23,6.13-2.26,2.13-4.76,4.05-7.33,5.8-6.99,4.74-11.81,9.66-8.51,19.57,2.43,7.29-7.3,14.67-.79,23.64Z"/>
        <path class="cls-1" d="m551.36,165.58c-5.31,5.71-3.72,16.9-9.01,19.84-5.17,2.87-12.52,7.85-18.61,6.45-10.04-2.31-19.16.06-28.65,1.33-5.21.69-10.26.31-15.43-1.12-4.5-1.24-6.79-3.47-6.17-7.99,1.15-8.27-2.97-11.89-10.51-13.64-3.18-.74-8.74-.54-7.72-6.23.9-5.06,4.61-6.99,9.98-6.95,9.42.06,18.48.15,27.09,5.31,9.17,5.49,19.67,2.72,29.62,2.52,4.31-.09,5.2-3.77,5.65-7.48.88-7.31,4.36-7.44,9.62-3.49,3.6,2.7,7.61,4.84,11.39,7.32,1.37.9,3.2,1.63,2.76,4.14Z"/>
        <path class="cls-1" d="m686.71,673.39c-7.39,1.71-11.82-2.76-16.03-7.54-3.43-3.89-6.99-5.89-11.17-1.11-6.15,7.03-12.62,2.47-18.98.59-6.64-1.96-5.82-7.87-6.33-12.82-1.23-12.07,3.79-23.06,6.32-34.48.72-3.26,3.57-4.27,6.25-4.71,7.47-1.22,14.99-2.56,22.53-2.93,6.01-.3,7.35,3.23,5.68,8.96-3.51,12.04,2.13,22.92,5.67,33.87,1.03,3.17,4.56,5.88,8.55,7.06,4.2,1.24,9.26,2.13,8.23,8.54-1.15,7.19-6.99,3.59-10.72,4.57Z"/>
        <path class="cls-1" d="m180.62,448c-8.67-8.83-16.49-17.77-17.29-31.05-.28-4.61-.41-8.76,1.16-13.17,3.24-9.12,11.19-14.98,15.42-23.76,4.09-8.49,30.14-6.56,35.23,1.22,1.74,2.65-.28,5.18-1.03,7.79-6.38,22.08-19.05,40.63-33.49,58.97Z"/>
        <path class="cls-1" d="m175.68,161.69c-10.12,9.16-3.94,20.74-10.04,29.09-2.91,3.99-3.97,9.6-4.97,14.66-2.4,12.13-14.68,12.63-22.02,18.85-2.67,2.26-5.46-2.09-5.09-5.53.62-5.79.69-12.12,4.47-16.75,4.26-5.22,2.49-8.7-1.6-12.32-5.99-5.3-9.27-17.07-21.11-8.31-2.73,2.02-4.19-1.23-4.61-3.73-1.03-6.2-.52-12.48,5.82-15.29,8.65-3.85,17.12-8.73,27.64-5.45,9.46,2.95,19.18,5.49,31.53,4.77Z"/>
        <path class="cls-1" d="m211.06,276.96c-1.31-.27-4.71.01-6.58-1.54-9.39-7.8-21.19-8.41-32.13-11.61-7.13-2.09-12.53-5.83-11.96-14.46.25-3.8-2.35-5.59-5.41-6.7-6.9-2.5-5.24-7.04-1.45-10.06,5.51-4.37,10.25-10.16,19.54-3.19,8.67,6.51,19.94,2,29.15-2.28,6.23-2.89,9.06-1.22,8.65,4.42-.85,11.75,4.62,21.33,8.8,31.48,3.35,8.13.28,13.78-8.61,13.92Z"/>
        <path class="cls-1" d="m295.5,369.33c-.78,5.31-1.29,11.03-9.24,13.46-13.12,4.01-15.75,13.67-6.92,24.41,4.3,5.23,5.65,8.49-1.72,11.27-.95.36-1.82.97-2.69,1.52-3.56,2.3-.99,11-10.23,7.96-11.24-3.71-24.47-2.61-29.58-17.04-3.56-10.04-2.25-15.86,8.12-18,10.77-2.22,11.47-7.51,9.11-15.99-.83-2.98-1.08-6.13-1.68-9.18-.46-2.36.24-4.29,2.42-5.14,2.59-1.01,3.35,1.14,4.58,2.92,5.33,7.68,17.53,9.5,25.07,3.83,2.21-1.66,4.08-3.78,6.27-5.46,1.62-1.24,3.47-2.55,5.63-.94,2,1.49,2.09,3.44.84,6.38Z"/>
        <path class="cls-1" d="m690.58,473.79c6.06,1.82,8.34,5.6,11.62,8.08,8.61,6.53,15.63,16.2,28.73,13.71,3.77-.72,6.99,2.29,8.24,5.4,5.6,13.97,18.23,19.05,30.3,24.98,3.61,1.78,8.6,2.99,6.92,8.64-1.55,5.22-6.38,2.81-9.84,3.2-9.32,1.04-17.48-.24-24.13-8.42-3.53-4.35-9.83-6.34-14.51-9.89-6.54-4.97-12.98-7.71-20.52-2.14-2.81,2.07-5.71,1.23-8.9.41-4.91-1.26-9.84-3.19-15.98-1.65,1.93-14.46,9.33-27.14,8.08-42.32Z"/>
        <path class="cls-1" d="m454.99,810.98c11.45-1.73,18.2-5.02,19.52-14.41.11-.8,1.35-1.53,2.19-2.11,4.14-2.84,28.74-1.6,32.74,1.68,4.83,3.97,9.72,7.88,14.34,12.08,10.96,9.96,8.24,21.92-6.15,26.65-5.14,1.69-10.44,2.13-14.66,6.65-1.84,1.97-7.74,5.14-9.86.18-6.77-15.87-22.28-20.8-38.12-30.72Z"/>
        <path class="cls-1" d="m597.7,955.78c-12.23,1.21-21,5.8-30.89,1.08-6.12-2.92-12.86.82-19.36,1.02-3.88.12-8.89,3.7-10.9-1.8-2.25-6.16-7.34-13.05-2.29-19.46,5.27-6.7,8.62-14.16,11.78-21.79,2.05-4.96,5.08-6.74,10.35-6.35,10.02.74,18.89,4.38,26.76,10.26,4.8,3.59,6.1,8.16,3.38,14.47-4.58,10.65-1.87,16.48,11.18,22.57Z"/>
        <path class="cls-1" d="m82.69,358.39c-8.69,0-17.38-.06-26.07.03-5.76.06-7.6-2.17-5.41-7.74,1.42-3.61,2.86-6.84,6.26-9.25,6.23-4.42,12.78-8.69,17.97-14.19,8.45-8.95,17.45-7.13,26.38-2.44,7.4,3.89,14.8,7.59,22.75,10.14,8.09,2.59,7.86,7.61,3.93,13.49-4.91,7.36-12.65,9.46-20.79,9.86-8.32.42-16.68.09-25.02.1Z"/>
        <path class="cls-1" d="m306.54,72.88c.72-15.23,2.22-32.02,6.93-48.44,1.79-6.23,4.15-8.07,9.93-4.03,10.2,7.12,20.56,14.02,30.99,20.8,4.78,3.11,5.55,5.7.17,8.89-3.26,1.94-6.09,4.68-9.46,6.37-12.71,6.37-19.66,16.36-21.28,30.57-.38,3.35.27,10.25-5.29,9.08-5.12-1.08-11.49-3.82-11.96-11.16-.22-3.45-.04-6.92-.04-12.08Z"/>
        <path class="cls-1" d="m77.81,479.06c4.27-15.67,16.05-21.46,27.05-27.1,6.13-3.15,10.72-5.28,9.9-13.22-.65-6.26,3.24-7.03,8.01-4.64,6.8,3.42,13.79,6.63,20.1,10.83,6.82,4.55,12.97,3.62,17.3-2.16,4.91-6.56,7.29-3.94,10.28,1.02.71,1.18,1.86,2.09,2.53,3.28,1.41,2.51,6.08,3.64,4.22,7.33-1.35,2.67-4.92,1.95-7.66,2-3.21.06-7.4.09-7.64,3.73-.75,11.44-6.22,7.59-12.05,4.45-4.44-2.39-8.87.08-13.11,1-18.9,4.11-37.73,8.58-58.95,13.47Z"/>
        <path class="cls-1" d="m296.35,166.97c-.73-28.86-.52-29.06,27.68-24.46,4.44.72,8.87,1.5,13.3,2.26,8.08,1.38,16.19,11.43,12.76,18.47-3.43,7.03.85,10.11,3.71,14.28-2.21,2.36-4,1.39-5.84.39-11.8-6.45-21.2-3.8-25.7,9.19-3.18,9.17-8.75,10.46-15.75,7.55-7.4-3.08-4.17-9.72-2.81-15.28.08-.33.29-.63.42-.95,4.7-11.55,4.54-11.78-7.77-11.44Z"/>
        <path class="cls-1" d="m465.07,1000.82c-.17-3.58-.01-8.06,1.84-12.3,5.17-11.84,2.28-25.26,8.03-37.26,3.8-7.93,7.99-10.85,15.69-7,4.04,2.02,8.06,1.43,12.13,1.74,2.33.18,5.29-.6,6.29,2.31.92,2.67-1.16,4.68-3,6.15-13.39,10.77-11.55,25.62-10.28,39.94.71,8.01,4.03,16.19-9.58,13.79-2.53-.45-4.32,1.91-6.03,3.61-3.2,3.18-5.99,6.61-11.5,3.91-5.29-2.59-2.99-7.07-3.58-10.86-.16-1.01-.02-2.07-.02-4.05Z"/>
        <path class="cls-1" d="m639.05,565.64c-11.24,21.24,3.63,43.4-6.05,63.89-3.31,7.01-3.66,11.65-13.58,7.83-7.32-2.82-16.43-1.35-24.74-1.17-8.92.18-9.44-2.6-4.77-9.46,5.79-8.51,12.8-16.45,14.99-27.01.84-4.06,4.19-5.06,7.6-6.14,6.88-2.17,16.76-2.4,8.76-14.2-2.35-3.46,2.42-4.35,4.26-5.78,3.72-2.89,7.11-6.54,13.52-7.95Z"/>
        <path class="cls-1" d="m573.56,1046.06c-6.43,5.47-12.2,9.29-16.26,14.99-3.74,5.25-9.22,1.16-13.62,1.1-2.66-.04-.79-5.21-.43-8.07,1.22-9.79-8.65-17.57-20.06-13.79-9.31,3.08-10.52-.69-10.04-7.81.53-7.92-5.7-11.37-9.89-16.25-1.85-2.16-5.18-3.32-3.4-7.65,1.81-4.39,4.97-4.29,8.45-4.07,18.03,1.17,34.81,3.85,44.97,22.24,4.26,7.71,8.28,17.2,20.29,19.31Z"/>
        <path class="cls-1" d="m607.9,345.22c-1.25,4.11-4.23,4.99-6.48,5.88-6.95,2.74-8.16,7.37-6.2,13.99,1.32,4.47,2.62,8.44-1.69,13.25-3.92,4.38,2.55,9.25,3.43,14.13.88,4.92,8.76,10.98,1.88,14.2-5.05,2.36-10.86-4.42-14.01-9.88-1.72-2.97-2.1-7.13-6.88-5.92-6.68,1.69-5.85-1.82-4.8-6.14,2.04-8.37,1.91-15.43-9.96-14.13-.64.07-1.39-.2-1.99-.52-7.88-4.12-5.88-11.95-6.09-18.38-.24-7.54-3.19-16.26,5.05-21.95,2.17-1.49,5.29-1.7,6.29,1.06,3.22,8.87,14.05,10.05,17.77,18.22,2.1,4.61,5.64,3.03,8.85,1.92,4.77-1.65,9.43-3.63,14.85-5.74Z"/>
        <path class="cls-1" d="m496.32,392.81c4.71-7.27,14.46-11.41,5.1-20.97-3.75-3.83,3.44-11.85,9.05-9.42,7.76,3.36,16.6,3.96,23.18,10.84,6.32,6.6,17.43,5.4,23.86,13.64,6.97,8.95,7.03,12.29-3.6,15.97-5.12,1.77-9.65,2.78-13.3,8.16-4.42,6.51-10.7,4.91-13.62-2.58-3.15-8.09-7.78-13.45-17.19-13.54-4.02-.04-8.02-1.21-13.47-2.1Z"/>
        <path class="cls-1" d="m727.45,489.41c2.9-6.12,7.64-7.28,12.32-8.46,1.99-.5,4.64-.13,5.95-1.31,16.7-15.04,30.82-1.35,45.64,3.96,3.96,1.42,2.32,3.5.56,6.15-5.89,8.88-12.06,17.72-13.05,28.85-.39,4.31-2.65,5.29-6.38,3.35-10.28-5.35-22.13-8.49-27.34-20.71-3.1-7.26-9.21-10.84-17.7-11.84Z"/>
        <path class="cls-1" d="m419.85,687.98c-3.45-.02-6.78-.58-10.19-1.25-8.68-1.68-11.62-5.04-9.57-14.67,2.39-11.21,2.17-22.89,8.58-33.15,3.47-5.57,6.92-8.64,13.05-3.71.54.43,1.17.73,1.76,1.1,6.43,3.99,15.69,5.56,18.86,12.04,3.17,6.49-4.57,13.06-6.01,20.08-.41,2-1.16,3.93-1.46,5.94-.54,3.6,3.89,7.83-.02,10.65-4.22,3.06-9.74,3.19-14.99,2.96Z"/>
        <path class="cls-1" d="m510.87,773.74c-10.62-.25-12.85-4.02-8.13-13.31,3.02-5.93,6.48-11.35,12.02-15.35,7.34-5.3,5.83-14.32,8.44-21.59,1.27-3.55,2.45-6.11,6.4-7.16,4.58-1.21,4.63,2,6.16,4.73,2.95,5.29,7.92,2.56,12.16,1.93,6.51-.96,10.19.3,7.74,8.07-1.24,3.93-1.68,8.11-2.57,12.15-3.61,16.33-5.9,18.45-22.68,19.79-5.1.41-9.46.58-10.83,7.05-.92,4.35-5.3,3.55-8.7,3.68Z"/>
        <path class="cls-1" d="m530.33,931.61c-6.43,11.3.05,20.84,3.37,30.39,1.63,4.69,6.68,1.4,10.23.92q17-2.3,10.69,13.26c-3.12,7.7-6.06,15.47-9.44,23.05-1.21,2.71-.88,7.91-6.24,6.28-4.31-1.31-9.7-.85-11.32-7.18-3.2-12.42-6.66-24.86-20.62-30.03-1.99-.74-4.43-3.02-2.3-4.56,10.98-7.97,10.18-24.29,22.46-31.13.8-.44,1.77-.57,3.18-1Z"/>
        <path class="cls-1" d="m475.85,939.82c-6.53-11.27-18.02-9.13-29.26-8.44-1.81.11-2.3-2.36-2.33-4.12-.14-6.69-4.51-7.35-9.89-7.75-7.51-.55-10.27-6.19-6.62-12.87,1.82-3.33,3.86-6.61,6.26-9.53,1.69-2.06,4.34-4.42,6.83-1.04,4.55,6.19,10.71,3.97,16.2,3.04,7.62-1.28,15.25-1.51,22.77-.76,5.46.55,10.81,2.39,4,9.51-6.73,7.05-1.02,15.22.05,22.56.94,6.42-1.43,8.12-8.01,9.37Z"/>
        <path class="cls-1" d="m465.76,973.66c-2.35,10.74-7.21,22.46-6.2,35.23.21,2.65-1.82,3.49-4.26,2.96-3.04-.66-6.13-1.19-9.08-2.13-8.67-2.73-12.41.21-11.53,9.35.36,3.78.31,7.65-.03,11.43-.25,2.83,1.8,7.58-2.09,8.02-3.94.45-8.81-2.36-8.96-6.99-.48-14.54-.25-29.11-.02-43.67.05-3.04,3.2-4.26,5.35-5.97,8.51-6.73,18-11.62,28.14-15.36,7.16-2.64,8.87-1.56,8.7,7.12Z"/>
        <path class="cls-1" d="m531.33,251.51c2.85.66,6.39.61,8.82,2.22,7.5,4.96,14.23,4.34,22.03.22,7.11-3.75,14.57-6.4,18.05-14.52.81-1.88,2.48-3.37,3.43-5.21,1.54-2.96,3.86-2.76,6.13-1.51,3.49,1.91,1.61,4.18-.31,5.72-4.92,3.94-4.35,7.97-.99,12.55,4.52,6.16-.47,10.97-3.7,14.61-4.25,4.79-7.83,12.16-16.5,10.26-2.35-.52-4.67-1.36-6.89-2.33-5.76-2.52-10.17-2.14-11.18,5.18-.99,7.14-4.59,6.89-10.15,4.61-8.23-3.37-13.79-9.28-17.74-16.81-4.05-7.73.17-14.6,8.99-15Z"/>
        <path class="cls-1" d="m60.29,333.1c2.9-8.48-.41-14.1.02-19.98.51-6.81,1.51-11.82,10.51-8.11,4.36,1.8,9.6,1.32,14.23,2.64,7.95,2.26,12.97-1.24,19.28-5.9,9.5-7.02,19.74-14.19,33.46-11.17,8.61,1.9,7.09,5.98,3.99,10.95-1.61,2.58-4.1,4.69-6.44,6.73-5.02,4.4-11.74,7.35-6.42,16.58,2.2,3.81-2.55,5.78-6.46,4.2-5.74-2.32-11.31-5.05-16.91-7.7-11.69-5.53-23.09-9.09-33.59,2.59-2.7,3.01-6.42,5.1-11.67,9.16Z"/>
        <path class="cls-1" d="m484.91,746.93c-6.46,1.11-13.25,2.42-20.09,3.4-5.87.84-11.18.56-7.92-7.84,1.11-2.85.27-5.28-.28-8.02-1.29-6.41,4.34-11.92,10.89-10.76,4.76.85,9.4,2.38,14.16,3.33,9.95,1.99,17.94-3.75,19.09-13.69.47-4.09,2.88-7.15,5.51-9.74,5.55-5.46,9.55-3.71,12.04,3.7,3.79,11.27-1.26,21.07-4.47,31.09-1.21,3.78-4.59,7.08-9.82,5.5-6.77-2.04-11.62,6.89-19.11,3.04Z"/>
        <path class="cls-1" d="m440.03,1028.77c0-.35,0-.7,0-1.04,0-14.3.02-14.35,13.83-10.9,9.49,2.37,19.54,2.78,23.92,14.93,1.61,4.46,9.11,7,14.19,9.96,5.04,2.94,5.87,5.46,1.87,10.44-8.27,10.31-19.24,12.07-30.1,3.81-2.19-1.67-4.04-3.64-6.87-4.51-16.87-5.17-16.85-5.23-16.85-22.69Z"/>
        <path class="cls-1" d="m386.45,915.08c-2.74-2.71-11.56-1.37-4.84-8.71,2.73-2.98,2.98-5.34,1.14-9.17-2.87-5.95-3.41-12.7-3.11-19.31.23-5.05-.93-11.82,8.38-6.93,4.35,2.29,6.43-2.98,9.1-5.29,3.93-3.4,6.58-3.28,8.58,1.77,1.15,2.9,3.32,5.63,3.61,8.57.94,9.57,4.03,15.81,15.42,14.18,2.41-.34,5.34,2.46,3.54,5.93-3.19,6.13-6.1,13-13.73,14.59-4.68.98-9.71.88-14.51.46-5.09-.45-9.29,1.59-13.58,3.91Z"/>
        <path class="cls-1" d="m274.09,212.59c-.88,10.81-3.14,20.06-8.85,28.28-2.57,3.7-4.31,7.92-10.41,5.4-6.81-2.81-16.98.23-18.92-10.66-.79-4.41-1.48-7.32-6.62-9-4.83-1.58-2.62-11.89,2.93-14.86,4.63-2.48,9.19-1.97,13.93-.15,4.84,1.85,8.29,1.08,7.62-5.33-.35-3.34-3.94-8.33,2.57-8.86,5.89-.48,12.92-1.24,15.99,6.04,1.3,3.08,1.33,6.71,1.76,9.14Z"/>
        <path class="cls-1" d="m440.11,673.29c1.07-7.25,4.62-16.06,9.83-23.69,5.79-8.47,20.77-8.1,27.78-.5,1.3,1.41,2.25,2.66,1.32,4.49-3.9,7.67-1.92,15.51-.81,23.35.72,5.03-.92,9.27-6,10.71-6.61,1.87-13.39,3.77-20.19,4.19-7.64.47-12.11-6.37-11.93-18.55Z"/>
        <path class="cls-1" d="m453.28,275.09c-4.59,1.11-8.09-1.37-11.38-4.82-5.27-5.51-10.8-10.78-16.13-16.23-2.89-2.95-8.02-4.93-4.35-10.77,2.65-4.21,2.53-12.09,11.05-7.36.26.14.84.13,1-.05,11.63-12.79,11.08,1.92,13.51,6.59,3.62,6.95,6.44,6.47,11.37,1.57,2.52-2.5,4.73-8.7,9.39-5.24,4.22,3.14,7.12,7.92,5.89,14.52-3.63,19.42-5.25,21.56-20.35,21.79Z"/>
        <path class="cls-1" d="m460.8,627.16c3.85-26.32,12.31-39.28,36.08-37.97,5.01.28,7.13,1.44,4.91,6.89-6.01,14.77-11.66,29.69-17.59,44.49-.58,1.46-2.36,3.8-3.09,3.63-6.35-1.51-11.8-5.31-18.14-7.26-4.03-1.24-1.22-6.9-2.18-9.78Z"/>
        <path class="cls-1" d="m293.46,86.03c-19.87-7.25-31.09,6.82-44.51,14.87-9.36,5.62-25.6,3.58-32.48-5.04-4.52-5.66-9.59-11.19-10.95-18.67-.92-5.11-4.83-7.26-8.53-9.7-2.24-1.48-2.59-3.4-.97-5.22,1.67-1.87,3.18,0,4.3,1.08,7.75,7.48,19.01,11,22.52,23.46,1.69,6,12.46,5.42,14.28,2.18,5.29-9.42,15.56-7.63,22.44-12.79,12.69-9.51,20.77-10.32,33.9,9.83Z"/>
        <path class="cls-1" d="m384.32,859.65c-2.35,3.68-4.77,8.26-9.44,6.6-11.79-4.19-23.09-.11-34.59.74-2.75.2-5.53.47-8.26.23-4.11-.36-5.42-4-6.86-7.02-1.64-3.43,1.58-4.95,3.58-6.55,8.35-6.65,16.59-13.49,25.36-19.56,7.64-5.29,18.21,0,20.51,9.18,1.32,5.28.39,12.29,8.31,13.87.6.12.92,1.62,1.39,2.51Z"/>
        <path class="cls-1" d="m471.85,277.52c-.33,4.89-1.76,8.38-6.76,7.94-6.72-.59-10.98,3.03-15.14,7.49-9.15,9.8-21.39,15.22-32.3,22.53-2.91,1.95-4.75,1.63-6.75-1.43-3.9-5.97-14.92-8.3-9.55-18.91,2.96-5.86,7.14-9.71,14.27-10.5,18.53-2.05,37-4.65,56.24-7.12Z"/>
        <path class="cls-1" d="m421.91,217.54c-.3,2.58,1.01,6.01-2.8,6.92-3.72.89-4.45-2.54-5.7-4.85-.98-1.81-1.75-3.77-2.41-5.73-2.43-7.25-5.98-8.75-11.6-2.68-2.09,2.25-4.57,4.42-7.29,5.77-6.27,3.1-12.03,3.33-15.2-4.6-.9-2.24-2.8-4.23-3.16-6.5-1.05-6.58-12.73-13.35-3.51-19.16,15.1-9.51,29.46-5.23,35.54,7.92,1.66,3.59,3.32,6.88,7.3,8.1,7.48,2.3,8.23,8.48,8.84,14.82Z"/>
        <path class="cls-1" d="m699.93,395.7c9.52-5.28,19.47-6.8,29.36-6.45,10.06.35,11.03,9.76,11.68,16.76.75,8.12,1.73,15.69,6.47,22.48,3.09,4.43,1.89,6.81-3.5,7.58-4.09.59-8.12,1.67-12.13,2.68-3.06.77-5.11-.76-5.44-3.31-2.07-15.97-12.26-26.45-23.76-36.16-.98-.82-1.58-2.09-2.68-3.58Z"/>
        <path class="cls-1" d="m342.86,736.53c-1.95,9.53-6.81,19.55-11.45,29.56-1.44,3.1-6.07,5-8.85,1.67-6.03-7.22-13.79-7.06-21.83-6.68-5.63.27-6.78-1.52-3.85-6.6,3.77-6.56,8.42-11.92,15.71-14.42,6.34-2.17,10.35-6.76,13.43-12.34,1.68-3.04,1.41-8.83,7.02-6.49,4.53,1.89,10.05,3.93,9.83,10.68-.03,1.04,0,2.08,0,4.63Z"/>
        <path class="cls-1" d="m622.35,451.36c2.43,0,4.87.03,7.3,0,3.97-.07,8.56.07,9.01,4.85.36,3.73-4.05,4.01-6.93,4.61-7.51,1.55-9.72,5.76-6.8,12.74,1.52,3.64,1.7,7.41,1.44,11.26-.35,5.11-2.68,8.14-8.07,6.38-6.81-2.22-15.24.7-20.55-5.65-2.33-2.78-6.69-5.43-4.07-10.65,4.55-9.06,4.57-21.63,18.25-23.44,3.42-.45,6.94-.07,10.42-.07v-.05Z"/>
        <path class="cls-1" d="m124.34,153.98c-.32-1.84-.53-2.41-.41-2.49,6.02-4.15-3.46-13.81,2.18-14.07,12.6-.57,23.55-9.21,36.46-6.33,2.36.53,4.75.95,7.15,1.27,13.25,1.75,17.38,11.15,9.6,21.78-1.75,2.4-4.26,1.96-6.61,2.06-6.96.3-13.84-.06-20.58-2.17-8.98-2.81-18.05-4.67-27.78-.06Z"/>
        <path class="cls-1" d="m832.38,410.31c.31-10.83,3.73-12.35,13.13-7.85,7.7,3.68,16.19,5.92,24.52,8.04,11.76,3,16,12.08,19.5,22.12,1.95,5.58-2.76,5.56-5.61,6.36-2.46.69-5.66,3.31-7.79-1.29-5.41-11.69-9.5-13.56-23.04-11.18-11.81,2.07-21.03-5.14-20.72-16.19Z"/>
        <path class="cls-1" d="m616.44,741.39c-7.73-6.28-10.8-11.32-5.18-19.22,10.46-14.68,17.21-30.61,14.37-49.35-.55-3.63-.42-7.66,3.69-10.4,1.93,2.57,3.2,5.37,6.56,7.03,8.41,4.15,11.07,15.17,5.49,22.83-3.21,4.41,1.37,9.12-2.26,13.54-5.01,6.11-8.25,13.57-14.04,19.21-4.29,4.18-9.44,7.86-8.64,16.35Z"/>
        <path class="cls-1" d="m703.76,665.98c-.24-5.58-4.05-6.92-7.87-8.48-9.81-4.01-20.37-24.37-17.38-33.96,2.03-6.53,8.51-9.14,13.22-6.38,8.13,4.78,20.53,3.98,23.4,16.98.57,2.57,2.24,4.25.12,6.64-6.3,7.08-10.94,14.94-11.48,25.19Z"/>
        <path class="cls-1" d="m690.74,678.98c-6.03,8.59-12.81,13.31-15.8,21.77-2.51,7.08-10.49,9.73-18.53,8.11-5.15-1.04-10.48-4.56-9.78-9.24,1.21-8.18,3.37-16,.97-24.33-.46-1.58,19.08-6.38,20.42-4.64,5.34,6.92,12.6,9.04,22.73,8.34Z"/>
        <path class="cls-1" d="m94.58,234.35c-5.93-1.18-10.01,1.08-14.23,2.37-11.56,3.54-23.05,7.3-34.65,10.71-1.92.56-5.02,2.31-6.08-1.34-.58-2,.17-3.72,2.22-5.24,12.97-9.62,26.82-16.23,43.57-14.63,4.52.43,8.41-.06,11.39-5.01,2.93-4.85,25.12-8.48,29.36-5.01,4.77,3.91.62,7.23-2.41,9.88-3.14,2.75-25.82,8.58-29.16,8.26Z"/>
        <path class="cls-1" d="m128.4,237.91c-4.36,10.15-8.93,17.12-22.38,16.64-22.52-.81-45.6-3.95-67.86,7.58,2.18-8.19,2.09-8.51,27.17-15.68,10.09-2.88,19.97-6.18,30.79-7.52,10.72-1.33,21.11-.54,32.28-1.01Z"/>
        <path class="cls-1" d="m248.96,106.39c8.1-5.24,15.99-10.85,24.35-15.64,11.98-6.87,36.42,4.91,38.46,18.08.41,2.62-1.35,3.71-2.66,5.2-4.15,4.7-9.71,4.36-15.31,4.58-5.73.22-10.09-.25-9.62-7.69.05-.81-2.62-2.61-3.98-2.55-10.26.41-20.37-5.11-31.23-1.97Z"/>
        <path class="cls-1" d="m538.69,1057.29c-1.79,6.03.18,14.89-9.19,18.14-7.7,2.68-15.48.94-22.06-2.48-5.27-2.75-9.91-8.43-10.64-14.54-.57-4.75,3.75-10.43,8.78-9.54,6.9,1.22,11.88-1.62,17.65-3.67,8.98-3.19,15.97,2.12,15.45,12.1Z"/>
        <path class="cls-1" d="m225.96,112.96c.27,7.02-2.56,10.53-9.99,8.85-1.34-.3-2.68-.86-4.02-.86-5.2,0-11.96,5.28-15.04.02-2.18-3.74.2-10.75,1.78-15.92,1.83-5.97.24-9.22-5.38-11.15-8-2.74-8.99-10.59-9.97-16.83-.9-5.72,4.83-7.45,9.99-5.86,5.01,1.55,6.88,6.04,8.97,10.62,4.37,9.57,8.57,19.65,19.74,23.6,3.84,1.36,3.95,4.32,3.93,7.52Z"/>
        <path class="cls-1" d="m42.17,21.77c1.88.19,6.01.49,10.11,1.04,15.51,2.09,20.27,13.67,10.78,26.7-2.65,3.63-6.38,6.39-4.21,11.76.67,1.66-.63,3.47-2.43,4.06-2.59.85-3.65-1.07-4.5-3.05-.95-2.22-2.66-4.44-2.7-6.68-.22-11.73-7.35-16.41-17.52-19.29-3.67-1.04-10.66-.91-9.83-6.8.88-6.23,6.67-8.19,12.85-7.76,1.72.12,3.46.02,7.45.02Z"/>
        <path class="cls-1" d="m192.05,274.4c-5.22,2.67-7.5,4.66-5.72,10.7,2.54,8.63-5.51,10.78-11.26,13.23-7.84,3.35-17.65,4.41-23.91.35-4.95-3.21,1.37-11.78,2.48-17.99.42-2.36,1.36-4.62,2.03-6.93,2.08-7.24,5.68-10.89,13.4-6.17,6.79,4.15,14.86,4.26,22.98,6.81Z"/>
        <path class="cls-1" d="m84.45,276.1c2.78,0,5.56.08,8.34-.02,6.61-.23,12.98.06,13.93,8.64.72,6.49-9.28,19.82-15.12,18.95-9.97-1.49-20.94-1.01-27.86-11.23-4.77-7.04-2.52-14.55,6.15-15.93,4.74-.75,9.7-.13,14.57-.13,0-.1,0-.19,0-.29Z"/>
        <path class="cls-1" d="m161.07,429.84c-.34,10.08-8.57,14.65-17.69,9.88-7.94-4.15-15.74-8.63-23.96-12.14-3.61-1.54-3.65-3.4-3.23-6.3.45-3.13,1.88-5,5.34-5.08,10.66-.25,21.41.71,31.85-2.53,3.43-1.07,5.16.56,5.65,3.99.59,4.08,1.35,8.13,2.04,12.19Z"/>
        <path class="cls-1" d="m472.45,151.93c-9.75,1.98-9.89-2.71-8.79-11.03,1.43-10.81,4.61-19.02,15.53-23.16,7.25-2.75,19.33,3.74,19.92,11.36.03.35.21.83.05,1.01-3.93,4.41-9.86,6.16-9.95,14.84-.06,5.56-9.43,7.94-16.76,6.98Z"/>
        <path class="cls-1" d="m609.9,197.85c11.26,4.87,25.91,1.52,30.31,17.18,1.17,4.18,1.18,6.1-2.76,8.16-3.87,2.02-8.52,2.82-11.24,6.94-1.45,2.21-3.5,1.4-5.37.05-6.16-4.45-12.33-8.88-18.56-13.23-4.22-2.95-1.96-6.12-.22-8.97,2.27-3.74,2.49-9.48,7.83-10.13Z"/>
        <path class="cls-1" d="m211.51,3.02c4.91.78,9.39,1.61,9.92,6.81.74,7.28,5.6,7.59,11.13,7.79,8.64.32,17.28.92,25.91,1.52,2.67.18,5.92-.09,5.29,4.36-.45,3.11-1.76,5.18-5.19,5.35-13.77.66-27.52-.47-41.31,2.86-5.27,1.27-7.58-7.32-9.86-11.93-2.2-4.45-2.02-10.18.2-15.07.49-1.08,2.92-1.28,3.93-1.68Z"/>
        <path class="cls-1" d="m295.59,914.71c11.92-4.63,15.09,4.97,19.13,13.78,1.06,2.32.02,2.72-1.26,3.96-8.22,7.96-30.74,7.88-38.89-.54-2.37-2.45-5.25-7.31-3.43-9.14,3.75-3.77,7.64-8.64,13.94-8.7,3.11-.03,6.23.36,10.5.63Z"/>
        <path class="cls-1" d="m420.59,184.61c5.82,1.03,10.91,1.85,15.95,2.87,2.04.41,4.07,1.33,5.69-.69,1.73-2.17.02-3.83-1.03-5.54-.9-1.47-1.81-2.93-2.79-4.34-1.51-2.18-2.47-4.48.31-6.2,2.34-1.45,4.86-.58,6.66,1.19,3.16,3.11,3.29,7.3,3.79,11.45,1.51,12.74,1.62,12.7-10.59,18.56-3.69,1.77-10.13,5.78-10.51,5.26-4.1-5.62-11.14-6.7-15.8-11.09-1.81-1.7-3.05-4.58-1.75-6.56,2.39-3.65,6.52-4.8,10.08-4.91Z"/>
        <path class="cls-1" d="m487.56,154.13c4.03-4.31,10.17-6.23,7.87-13.66-.72-2.31,3.67-3.5,6.13-4.63,5.94-2.74,12.31-2.13,18.31-1.13,7.29,1.21,10.67,9.34,5.85,14.48-3.22,3.42-1.5,10.76-8.06,10.81-10.08.08-20.76,2.62-30.09-5.87Z"/>
        <path class="cls-1" d="m647.3,324.15c.73,10.45-7.07,14.78-12.74,19.37-3.86,3.12-14.14-5.95-16.45-13.59-.3-.99-.66-1.98-.78-3-.53-4.48-5.39-9.44-.72-13.29,4.27-3.52,9.7-2.32,14.5.77,1.25.8,3.28.73,4.9.57,10.48-1.03,11.43-.22,11.28,9.17Z"/>
        <path class="cls-1" d="m684.39,533.21c-2.64,8.3,3.19,10.72,6.49,14.22,3.39,3.6,3.16,4.96-.78,8.62-9.39,8.73-20.01,2.48-29.89,3.88-1.69.24-4.69-2.22-5.56-4.13-1.33-2.91,2.23-3.74,3.95-5.06,3.57-2.75,6.57-5.22,7.35-10.43,1.07-7.18,7.79-11.18,13.45-13.25,6.15-2.25,5.27,3.74,4.98,6.14Z"/>
        <path class="cls-1" d="m142.6,58.83c12.21,5.78,21.54,10.14,30.82,14.62,5.76,2.78,5.39,9.29,8.13,13.92.28.47.16,1.65-.21,1.94-5.2,4.12-11.52,3.95-17.59,3.95-4.41,0-10.06,2.28-12.07-4.68-2.57-8.88-5.38-17.69-9.08-29.75Z"/>
        <path class="cls-1" d="m364.46,914.11c4.66,2.92,10.45,2.09,15.76,3.43,5.07,1.28,9.47,2.88,6.71,10.44-1.95,5.33-.06,11.65-1.6,17.51-1.19,4.53-2.94,5.35-7.34,3.76-9.08-3.27-19.85-18.98-19.22-28.74.23-3.52,1.38-6.03,5.7-6.4Z"/>
        <path class="cls-1" d="m593.59,864.13c.16,5.87-15.12,23.08-20.26,21.22-4.93-1.79-9.63-6.77-12.28-11.54-2.7-4.87-3.11-11.15-3.88-16.89-.6-4.45,2.36-5.46,5.95-3.86,8.83,3.95,16.61,11.08,27.65,7.77,1.99-.6,2.75,1.08,2.81,3.3Z"/>
        <path class="cls-1" d="m440.11,947.55c-.54-7.53,4.14-10.79,11.76-11.75,8.2-1.04,16.34-.21,19.03,8.34,2.04,6.5-1.4,12.77-9.03,15.08-1.32.4-2.55,1.06-3.82,1.61-15.34,6.63-17.73,4.97-17.94-13.27Z"/>
        <path class="cls-1" d="m120.82,272.02c.25-1.51.45-2.88.71-4.24,1.4-7.25.72-16.25,11.77-16.26,10.55-.01,8.13,9.33,10.39,15.24.25.65.53,1.32.58,2,.38,5.7,8.64,12.46,1.29,16.55-6.57,3.66-14.39-2.31-21.53-4.4-4.49-1.31-2.62-5.79-3.22-8.9Z"/>
        <path class="cls-1" d="m584.13,332.75c-.21-8.49,17.31-21.61,23.69-16.92,5.21,3.83,4.98,11.69,6.39,17.99,1.01,4.51-3.27,4.57-5.82,5.81-2.79,1.36-5.75,2.36-8.63,3.52-11.67,4.72-15.31,2.3-15.63-10.41Z"/>
        <path class="cls-1" d="m648.1,297.16c.4,9.13-7.93,15.24-16.81,11.71-3.8-1.51-7.16-2.26-10.99-1.07-9.26,2.89-13.34-3.71-15.07-10.25-1.84-6.98,5.79-9.03,9.89-8.01,9.56,2.36,19.03,3.56,28.79,3.36,2.76-.06,4.88.81,4.19,4.27Z"/>
        <path class="cls-1" d="m757.17,372.98c-9.47-.59-15.97-10.49-12.91-18.25.61-1.56,2.4-4.22,2.84-4.06,9.77,3.44,17.33-6.72,27.07-4.09,5.58,1.51,7.34,3.17,3.36,8.14-3.46,4.31-6.94,8.65-9.9,13.3-2.87,4.5-6.77,5.5-10.46,4.97Z"/>
        <path class="cls-1" d="m579.44,336.78c-6.98-3.01-8.57-8.76-11.8-13.1-4.05-5.45-6.33-12.19-13.25-15.46-3.13-1.48-5.55-5.57-2.13-8.53,2.95-2.55,5.97-6.82,11.61-3.77,11.85,6.39,18.29,19.51,15.63,32.83-.45,2.27-.06,4.71-.06,8.03Z"/>
        <path class="cls-1" d="m549.88,824.09c4.24-.55,7.23,1.22,10.28,2.48,5.03,2.07,9.11,1.3,13.01-2.71,5.3-5.45,11.3-9.98,19.8-10.46-.74,2.73-1.21,5.36-2.16,7.8-2.57,6.6-.48,17.63-6.7,19.39-8.8,2.48-18.66-2.72-27.84-5.37-4.81-1.39-5.38-6.49-6.4-11.12Z"/>
        <path class="cls-1" d="m330.64,843.58c-10.56,9.67-18.3,22.72-34.15,24.11-3.82.33-6.42,2.31-8.86,4.81-3.91,4.01-7.53,1.24-9.8-1.37-3-3.44,1.69-4.54,3.44-5.94,6.48-5.17,13.26-9.98,19.93-14.92.83-.62,1.78-1.84,2.51-1.73,9.44,1.47,17.96-1.96,26.93-4.96Z"/>
        <path class="cls-1" d="m198.2,313.61c1.16,5.22-.91,7.61-4.57,8.96-12.82,4.71-25.23.89-37.66-1.96-2.53-.58-3.17-2.41-2.59-4.75.9-3.59.81-7.69,5.82-8.75,9.29-1.98,18.75-4.48,24.97,5.79,4.23,6.99,8.9,1.9,14.03.72Z"/>
        <path class="cls-1" d="m509.47,1038.97c.69,4.92-2.06,6.02-6.01,3.75-7.42-4.27-14.81-8.69-21.67-13.79-2.93-2.17-4.48-6.25-1.45-10.03,2.67-3.33,5.36-5.76,10.48-3.95,10.17,3.6,18.34,13.46,18.66,24.01Z"/>
        <path class="cls-1" d="m409.12,280.94c-2.46-.13-4.87-1.72-3.82-5.75,1.03-3.98,2.02-8.19,4.12-11.62,5.02-8.17,10.56-8.36,17.84-.77,3.48,3.63,10.47,6.78,9.14,11.48-1.42,5.03-9.16,2.54-13.91,4.35-3.77,1.43-8.07,1.46-13.37,2.3Z"/>
        <path class="cls-1" d="m207,290.32c-2.31,6.37-2.91,14.24-11.02,18.23-4.18,2.06-7.13,3.39-10.64-1.12-3.24-4.16-3.29-6.43,1.23-9.91,2.94-2.26,6.83-5.92,5.89-10.4-1.46-6.94,2.65-6.71,7.07-6.57,5.85.19,7.67,3.82,7.48,9.77Z"/>
        <path class="cls-1" d="m120.85,210.3c-7.8,1.55-10.75-1.57-7.58-8.82,1.93-4.4-3.14-9.18.94-12.76,2.91-2.55,6.53-6.94,10.64-4.12,4.33,2.97,11,7.48,9.29,12.47-1.88,5.48-2.31,15.74-13.28,13.23Z"/>
        <path class="cls-1" d="m502.11,972.22c11.94,2.94,15.67,11.33,18.97,20.31,2.53,6.87-.22,8.75-6.67,8.37-13.2-.78-18.35-8.27-13.64-20.46,1-2.6,1.99-5.08,1.33-8.22Z"/>
        <path class="cls-1" d="m524.42,341.29c5.39,14.13,29.69,12.77,26.53,33.01-9.45.91-14.5-7.3-21.83-10.84-11.96-5.77.23-15.43-4.7-22.16Z"/>
        <path class="cls-1" d="m423.29,138.57c2.72,1.34,3.69,1.69,4.51,2.24,14.86,10.06,15.08,10.18,6.64,25.87-2.49,4.64-3.45,8.73-.43,13.37-11.32,1.44-11.73,1.3-19.03-6.39,5.11-5.03,16.64-3.68,16.77-12.12.1-6.99-4.95-14.06-8.46-22.97Z"/>
        <path class="cls-1" d="m785.25,417.51c-10.6,4.08-20.87,3.48-31.09,3.5-7.03.02-7.53-4.42-7.44-9.76.13-7.31,5.1-3.94,8.1-3.47,10.38,1.63,20.96,2.87,30.42,9.72Z"/>
        <path class="cls-1" d="m588.74,297.93c11.27-2.57,16.27,4.8,15.81,9.99-.62,7.01-10.31,6.88-15.89,7.54-6.46.76-8.22-6.79-8.66-11.96-.73-8.66,7-4.82,8.74-5.57Z"/>
        <path class="cls-1" d="m223.62,258.76c-7.34-12.16-9.18-24.09-8.54-38.6,4.58,5.89,5.8,12.26,13.69,13.48,4.99.77,4.46,8.11,1.49,12.31-2.59,3.65-4.08,7.73-6.64,12.81Z"/>
        <path class="cls-1" d="m609.05,264.51c-4.33-4.53-8.4-6.6-13.59-4.86.95-7.65,8.12-11.87,6.53-19.97-.78-3.97,5.33-4.79,8.75-4.9,5.45-.17,2.12,3.75,1.83,5.91-.97,7.42-2.17,14.82-3.53,23.81Z"/>
        <path class="cls-1" d="m521.58,309.22c1.81,5.45,3.6,10.92,5.44,16.36,1.99,5.86-2.82,8.05-6.16,10.53-3.61,2.69-7.88.36-10.3-1.91-3.58-3.37.37-6.9,2-10.04,2.51-4.84,9.27-7.5,9.01-14.94Z"/>
        <path class="cls-1" d="m491,1064.16c3.75-.74,4.46,2.65,5.94,4.62,4.64,6.16,8.92,12.23,18.28,11.15,3.92-.45,7.86,1.8,6.81,6.93-1.08,5.28-5.11,2.06-7.6,1.7-14.04-2.06-20.01-8.44-23.43-24.4Z"/>
        <path class="cls-1" d="m557.37,840.44c9.01,2.11,16.72,3.78,24.35,5.77,4.24,1.1,6.92,4.38,4.95,8.44-1.79,3.71-6.05,3.01-9.05,1.02-6.33-4.19-12.7-8.08-20.4-9.15-2.24-.31-4.23-1.42-3.63-3.92.63-2.6,2.94-2.4,3.77-2.16Z"/>
        <path class="cls-1" d="m151.5,223.66c-3.16,8.8-8.94,13.98-3.63,21.95,2.18,3.28-3.45,4.53-5.77,3.35-3.5-1.79-6.83-2.79-11.75-2.08,4.53-9.7,8.27-18.77,21.15-23.22Z"/>
        <path class="cls-1" d="m191.5,174.54c.15,6.56-5.65,5.11-8.85,5.93-4.94,1.26-8.53-2.21-8.05-6.83.64-6.26,6.51-11.73,11.19-11.74,5.32,0,3.44,8.27,5.71,12.64Z"/>
        <path class="cls-1" d="m460.98,197.3c.54-6.91-3.88-9.05-6.3-12.56-1.91-2.76-2.88-6.49-1.55-9.9.74-1.89,3.13-1.28,4.64-.72,3.67,1.36,8.48.85,10.1,5.84,1.52,4.69-.43,10.78-6.89,17.34Z"/>
        <path class="cls-1" d="m519.94,351.56c-.17,2.42-.36,5.73-4.1,6.54-2.25.49-14.27-9.92-13.46-11.41,1.69-3.07,2.25-7.56,7.63-6.93,6.23.73,10.07,4.81,9.92,11.8Z"/>
        <path class="cls-1" d="m531.73,285.16c5.34,2.04,8.41,2.82,11.07,4.31,6.05,3.38,9.53,2.15,11.04-4.87.51-2.37.4-6.34,4.43-5.79,2.16.29,5.28,1.71,5.92,3.4,1.44,3.76-2.71,4.95-4.84,6.93-9.39,8.76-17.86,5.77-27.63-3.98Z"/>
        <path class="cls-1" d="m446.15,893.72c9.22-5.23,17.22-5.78,24.68-8,2.39-.71,4.78-.18,5.47,3.06.75,3.54-1.47,3.92-4.05,4.35-7.78,1.32-15.55,2.05-26.11.59Z"/>
        <path class="cls-1" d="m546.96,306.61c-.82,2.48-1.89,7.6-4.73,6.07-5.73-3.08-8.03-9.71-10.13-15.81-.45-1.31.47-2.55,2.23-2.67,3.93-.28,12.7,8.02,12.63,12.41Z"/>
        <path class="cls-1" d="m401.62,172.01c6.24-.1,9.69,2.99,10.87,7.52.92,3.51-3.58,4.96-5.57,4.72-4.74-.56-9.94-2.79-11.15-7.65-.78-3.16,3.31-4.7,5.84-4.59Z"/>
        <path class="cls-1" d="m152.74,251.63c4.5.7,4.45,4.06,4.13,7.18-.44,4.26-2.68,9.95-6.21,9.51-5.26-.66-2.69-7.47-4.08-11.4-1.35-3.82,3.62-4.01,6.17-5.28Z"/>
        <path class="cls-1" d="m657.82,273.41c5.49-3.54,7.12-11.35,15.03-7.58,2.98,1.42,1.41,3.28.66,5.08-3.23,7.67-8.58,6.16-15.68,2.5Z"/>
        <path class="cls-1" d="m526.34,301.64c5.87,4.84,7.9,10.22,10.67,15.02,1.58,2.74-.25,4.66-2.3,5.94-3.39,2.12-4.26-1.02-4.71-3.09-1.13-5.33-4.86-10.21-3.67-17.87Z"/>
        <path class="cls-1" d="m610.31,228.55c-5.82,4.02-10.88,4.95-15.71.71-3.47-3.04,1.23-5.99,2.08-6.46,6.51-3.6,8.52,3.55,13.63,5.75Z"/>
        <path class="cls-1" d="m567.45,387.61c-5.54-2.29-7.98-6.56-7.42-11.33.36-3.1,3.9-1.52,6-.58,7.69,3.44-.75,7.96,1.43,11.91Z"/>
        <path class="cls-1" d="m376.65,901.85c-3.29,11.56-12.26,5.57-19.34,7.56,4.45-9.18,14.59-1.06,19.34-7.56Z"/>
      </g>
    </g>
  </g>
</svg>