<?xml version="1.0" encoding="UTF-8"?>
<svg id="Camada_2" data-name="Camada 2" xmlns="http://www.w3.org/2000/svg" viewBox="0 0 299 118.91">
  <defs>
    <style>
      .cls-1 {
        fill: #06942d;
      }

      .cls-2 {
        fill: #eaeaea;
      }
    </style>
  </defs>
  <g id="Camada_1-2" data-name="Camada 1">
    <g>
      <g>
        <g>
          <path class="cls-1" d="m246.8,13.43c-2.98,2.86-7.89,9.12-13.39,16.55,2.86,3.89,5.83,8.03,8.75,12.12,6.76-9.56,12.6-17.88,14.98-20.8,9.48-11.65,20.41-19.55,41.87-18.11,0,0-29.84-11.27-52.2,10.24Z"/>
          <path class="cls-2" d="m201.2,20.85c.68.77,1.34,1.56,2,2.37,2.67,3.28,9.69,13.36,17.5,24.36,2.88,4.05,5.85,8.22,8.76,12.23,3.31,4.56,6.53,8.9,9.39,12.59h17.12c-6.6-8.69-26.4-37.89-37.56-51.55h-17.22Z"/>
          <g>
            <path class="cls-2" d="m217.81,51.67c-6.58,9.3-12.22,17.34-14.54,20.2-9.5,11.69-20.43,19.64-41.94,18.19,0,0,29.84,11.27,52.2-10.24,2.9-2.79,7.65-8.82,12.98-16,0-.01-.02-.02-.03-.04-2.88-3.97-5.83-8.1-8.68-12.11Z"/>
            <path class="cls-2" d="m220.71,47.59c-.98,1.38-1.95,2.74-2.89,4.08,2.85,4.02,5.8,8.14,8.68,12.11,0,.01.02.02.03.04.97-1.3,1.95-2.64,2.95-4-2.91-4.01-5.89-8.18-8.76-12.23Z"/>
          </g>
        </g>
        <g>
          <path class="cls-2" d="m6.01,20.84c.17.35.33.72.47,1.12.14.4.21.86.21,1.38v4.07c.84-1.29,2.04-2.4,3.6-3.34,1.57-.94,3.22-1.72,4.96-2.32,1.74-.61,3.42-1.05,5.04-1.33,1.62-.28,2.9-.42,3.84-.42,3.87,0,7.46.74,10.79,2.22,3.33,1.48,6.2,3.5,8.62,6.06,2.42,2.56,4.32,5.56,5.69,8.99,1.38,3.43,2.06,7.1,2.06,11s-.69,7.57-2.06,11c-1.38,3.43-3.27,6.43-5.69,8.99-2.42,2.56-5.29,4.58-8.62,6.06-3.33,1.48-6.92,2.22-10.79,2.22-1.15,0-2.42-.1-3.81-.31-1.39-.21-2.84-.63-4.34-1.28-1.5-.64-3.03-1.58-4.6-2.8-1.57-1.22-3.13-2.82-4.7-4.81v27.53H0V20.84h6.01Zm18.13,49c3.03,0,5.8-.56,8.31-1.67,2.51-1.11,4.67-2.65,6.48-4.6,1.81-1.95,3.21-4.23,4.21-6.84.99-2.61,1.49-5.43,1.49-8.46s-.5-5.85-1.49-8.46c-.99-2.61-2.4-4.89-4.21-6.84-1.81-1.95-3.97-3.48-6.48-4.6-2.51-1.11-5.28-1.67-8.31-1.67s-6.27.64-9.3,1.93c-3.03,1.29-5.75,3.13-8.15,5.54v25.44c.94,1.67,2.09,3.14,3.45,4.41,1.36,1.27,2.8,2.34,4.34,3.21,1.53.87,3.13,1.52,4.81,1.96,1.67.44,3.29.65,4.86.65Z"/>
          <path class="cls-2" d="m63.73,20.84c.17.35.33.72.47,1.12.14.4.21.86.21,1.38v6.16c.66-1.36,1.67-2.62,3.03-3.79,1.36-1.17,2.91-2.18,4.65-3.03,1.74-.85,3.62-1.52,5.64-1.99,2.02-.47,4.04-.71,6.06-.71,2.12,0,4.16.3,6.11.89l-.52,2.87c-.14.77-.37,1.36-.68,1.78-.31.42-.69.72-1.12.91-.44.19-.92.31-1.46.34-.54.03-1.09.05-1.65.05h-.78c-2.54,0-4.95.42-7.24,1.25-2.28.84-4.3,1.92-6.06,3.24-1.76,1.32-3.17,2.81-4.23,4.47-1.06,1.65-1.65,3.3-1.75,4.94v34.95h-6.69V20.84h6.01Z"/>
          <path class="cls-2" d="m86.2,48.27c0-2.58.34-5.08,1.02-7.5.68-2.42,1.64-4.68,2.87-6.77,1.24-2.09,2.72-4,4.44-5.72,1.72-1.72,3.63-3.19,5.72-4.41,2.09-1.22,4.34-2.17,6.74-2.85,2.4-.68,4.89-1.02,7.47-1.02,3.9,0,7.57.74,11,2.22,3.43,1.48,6.43,3.5,8.99,6.06,2.56,2.56,4.58,5.56,6.06,8.99,1.48,3.43,2.22,7.1,2.22,11s-.74,7.57-2.22,11c-1.48,3.43-3.5,6.43-6.06,8.99-2.56,2.56-5.56,4.58-8.99,6.06-3.43,1.48-7.1,2.22-11,2.22-2.58,0-5.07-.34-7.47-1.02-2.4-.68-4.65-1.63-6.74-2.85-2.09-1.22-4-2.69-5.72-4.41-1.72-1.72-3.2-3.63-4.44-5.72-1.24-2.09-2.19-4.34-2.87-6.77-.68-2.42-1.02-4.92-1.02-7.5Zm6.69,0c0,3.03.56,5.85,1.67,8.46,1.11,2.61,2.65,4.89,4.6,6.84,1.95,1.95,4.24,3.48,6.87,4.6,2.63,1.11,5.44,1.67,8.44,1.67s5.85-.56,8.46-1.67c2.61-1.11,4.89-2.65,6.84-4.6,1.95-1.95,3.48-4.23,4.6-6.84,1.11-2.61,1.67-5.43,1.67-8.46s-.56-5.85-1.67-8.46c-1.11-2.61-2.65-4.89-4.6-6.84-1.95-1.95-4.23-3.48-6.84-4.6-2.61-1.11-5.43-1.67-8.46-1.67s-5.81.56-8.44,1.67c-2.63,1.12-4.92,2.65-6.87,4.6-1.95,1.95-3.48,4.23-4.6,6.84-1.12,2.61-1.67,5.43-1.67,8.46Z"/>
          <path class="cls-2" d="m140.48,20.84h2.93c1.32,0,2.55.35,3.68,1.05,1.13.7,1.94,1.62,2.43,2.77l17.87,41.06c.38.91.63,1.72.73,2.46.07.38.12.75.16,1.1.07-.8.17-1.44.29-1.93.12-.49.32-1.03.6-1.62l18.13-41.06c.52-1.18,1.32-2.12,2.4-2.82,1.08-.7,2.26-1.04,3.55-1.04h2.98c-2.09,4.84-4.13,9.53-6.11,14.05-1.99,4.53-3.95,9.02-5.9,13.48-1.95,4.46-3.91,8.93-5.88,13.43-1.97,4.49-4,9.14-6.09,13.95h-7.84l-23.93-54.85Z"/>
          <path class="cls-2" d="m193.14,5.38c0-.73.14-1.43.42-2.09.28-.66.66-1.24,1.15-1.72.49-.49,1.06-.87,1.72-1.15.66-.28,1.36-.42,2.09-.42s1.43.14,2.09.42c.66.28,1.24.66,1.72,1.15.49.49.87,1.06,1.15,1.72.28.66.42,1.36.42,2.09s-.14,1.43-.42,2.09c-.28.66-.66,1.24-1.15,1.72-.49.49-1.06.87-1.72,1.15-.66.28-1.36.42-2.09.42s-1.43-.14-2.09-.42c-.66-.28-1.24-.66-1.72-1.15-.49-.49-.87-1.06-1.15-1.72-.28-.66-.42-1.36-.42-2.09Zm8.67,15.46v54.85h-6.69V20.84h6.69Z"/>
        </g>
        <rect class="cls-2" x="195.15" y="73.94" width="6.69" height="8.55"/>
      </g>
      <rect class="cls-1" y="98.82" width="142.72" height="5.8"/>
      <g>
        <path class="cls-2" d="m0,110.38h3.55c.89,0,1.68.18,2.37.53.69.35,1.23.85,1.61,1.49.38.64.57,1.37.57,2.2s-.19,1.56-.57,2.2c-.38.64-.92,1.13-1.61,1.49-.69.35-1.48.53-2.37.53H0v-8.43Zm3.48,7.38c.68,0,1.28-.13,1.8-.4s.92-.64,1.2-1.11.42-1.03.42-1.66-.14-1.18-.42-1.66-.68-.85-1.2-1.11c-.52-.26-1.12-.4-1.8-.4H1.2s0,6.34,0,6.34h2.28Z"/>
        <path class="cls-2" d="m13.56,110.38h1.2v8.43h-1.2v-8.43Z"/>
        <path class="cls-2" d="m21.53,118.61c-.59-.2-1.05-.45-1.39-.76l.45-.94c.32.29.73.52,1.23.7.5.18,1.02.27,1.55.27.7,0,1.22-.12,1.57-.36.35-.24.52-.55.52-.95,0-.29-.09-.52-.28-.7-.19-.18-.42-.32-.7-.42-.28-.1-.67-.2-1.17-.33-.63-.15-1.15-.3-1.54-.46-.39-.15-.72-.39-1-.7-.28-.32-.42-.74-.42-1.28,0-.45.12-.86.36-1.22.24-.36.6-.65,1.08-.87s1.08-.33,1.79-.33c.5,0,.99.06,1.47.19.48.13.9.31,1.24.55l-.4.96c-.35-.22-.73-.4-1.13-.51-.4-.12-.79-.17-1.18-.17-.68,0-1.19.12-1.54.37s-.51.57-.51.96c0,.29.1.52.29.7.19.18.43.32.72.42.28.1.67.21,1.16.32.63.15,1.14.31,1.53.46.39.15.72.39.99.7.28.31.42.73.42,1.26,0,.44-.12.85-.36,1.21-.24.37-.61.65-1.1.87-.49.21-1.09.32-1.81.32-.63,0-1.25-.1-1.84-.3Z"/>
        <path class="cls-2" d="m33.56,111.43h-2.89v-1.05h6.97v1.05h-2.89s0,7.38,0,7.38h-1.19v-7.38Z"/>
        <path class="cls-2" d="m48.2,118.81l-1.82-2.59c-.22.02-.4.02-.53.02h-2.08s0,2.57,0,2.57h-1.2v-8.43h3.29c1.09,0,1.95.26,2.58.78.63.52.94,1.24.94,2.16,0,.65-.16,1.2-.48,1.66-.32.46-.78.79-1.37,1l2,2.83h-1.31Zm-.64-4.08c.4-.33.6-.8.6-1.41s-.2-1.08-.6-1.4c-.4-.33-.98-.49-1.75-.49h-2.05s0,3.79,0,3.79h2.05c.76,0,1.34-.16,1.75-.49Z"/>
        <path class="cls-2" d="m54.93,110.38h1.2v8.43h-1.2v-8.43Z"/>
        <path class="cls-2" d="m69.11,115.18c.28.36.42.81.42,1.36,0,.73-.28,1.29-.82,1.69-.55.39-1.35.59-2.4.59h-4.02v-8.43h3.78c.96,0,1.71.19,2.23.58.53.39.79.92.79,1.6,0,.44-.1.82-.31,1.14-.2.32-.48.57-.83.73.49.14.88.38,1.16.74Zm-5.62-3.82v2.7s2.47,0,2.47,0c.62,0,1.09-.11,1.43-.34.33-.23.5-.56.5-1.01s-.17-.78-.5-1.01c-.33-.23-.81-.34-1.43-.34h-2.47Zm4.31,6.14c.35-.22.52-.58.52-1.06,0-.94-.69-1.41-2.06-1.41h-2.77s0,2.81,0,2.81h2.77c.68,0,1.2-.11,1.54-.34Z"/>
        <path class="cls-2" d="m75.88,117.94c-.63-.64-.94-1.57-.94-2.77v-4.79h1.2v4.75c0,1.81.79,2.71,2.37,2.71.77,0,1.36-.22,1.77-.67.41-.45.61-1.13.61-2.04v-4.75h1.17v4.79c0,1.21-.31,2.14-.94,2.78-.63.64-1.5.96-2.63.96s-2-.32-2.63-.96Z"/>
        <path class="cls-2" d="m88.15,110.38h1.2v8.43h-1.2v-8.43Z"/>
        <path class="cls-2" d="m95.5,110.38h3.55c.89,0,1.68.18,2.37.53.69.35,1.23.85,1.61,1.49.38.64.57,1.37.57,2.2s-.19,1.56-.57,2.2c-.38.64-.92,1.13-1.61,1.49-.69.35-1.48.53-2.37.53h-3.55v-8.43Zm3.48,7.38c.68,0,1.28-.13,1.8-.4s.92-.64,1.2-1.11.42-1.03.42-1.66-.14-1.18-.42-1.66-.68-.85-1.2-1.11c-.52-.26-1.12-.4-1.8-.4h-2.28s0,6.34,0,6.34h2.28Z"/>
        <path class="cls-2" d="m110.57,118.35c-.68-.37-1.22-.89-1.61-1.55-.39-.66-.58-1.39-.58-2.2s.19-1.55.58-2.2c.39-.66.93-1.17,1.61-1.55.68-.37,1.45-.56,2.3-.56s1.61.19,2.29.56c.68.37,1.22.89,1.6,1.54.39.65.58,1.39.58,2.21s-.19,1.56-.58,2.21c-.39.65-.92,1.17-1.6,1.54-.68.37-1.45.56-2.29.56s-1.62-.19-2.3-.56Zm3.97-.93c.49-.28.88-.67,1.17-1.16.28-.49.43-1.05.43-1.66s-.14-1.16-.43-1.66c-.29-.49-.67-.88-1.17-1.16-.49-.28-1.05-.42-1.67-.42s-1.18.14-1.68.42c-.5.28-.9.67-1.18,1.16-.29.49-.43,1.05-.43,1.66s.14,1.16.43,1.66c.28.49.68.88,1.18,1.16.5.28,1.06.42,1.68.42s1.17-.14,1.67-.42Z"/>
        <path class="cls-2" d="m128.43,118.81l-1.82-2.59c-.22.02-.4.02-.53.02h-2.08s0,2.57,0,2.57h-1.2v-8.43h3.29c1.09,0,1.95.26,2.58.78.63.52.94,1.24.94,2.16,0,.65-.16,1.2-.48,1.66-.32.46-.78.79-1.37,1l2,2.83h-1.31Zm-.64-4.08c.4-.33.6-.8.6-1.41s-.2-1.08-.6-1.4c-.4-.33-.98-.49-1.75-.49h-2.05s0,3.79,0,3.79h2.05c.76,0,1.34-.16,1.75-.49Z"/>
        <path class="cls-2" d="m140.53,116.7h-4.48s-.93,2.11-.93,2.11h-1.24s3.82-8.43,3.82-8.43h1.19s3.83,8.43,3.83,8.43h-1.26s-.93-2.11-.93-2.11Zm-.42-.96l-1.82-4.13-1.82,4.13h3.64Z"/>
      </g>
    </g>
  </g>
</svg>