<?xml version="1.0" encoding="UTF-8"?>
<svg id="Camada_2" data-name="Camada 2" xmlns="http://www.w3.org/2000/svg" xmlns:xlink="http://www.w3.org/1999/xlink" viewBox="0 0 1579 1205.78">
  <defs>
    <style>
      .cls-1 {
        fill: url(#Gradiente_sem_nome_6);
      }

      .cls-2 {
        fill: url(#Gradiente_sem_nome_2);
      }
    </style>
    <linearGradient id="Gradiente_sem_nome_2" data-name="Gradiente sem nome 2" x1="528.98" y1="1265.14" x2="1279.37" y2="202.97" gradientUnits="userSpaceOnUse">
      <stop offset="0" stop-color="#eaeaea"/>
      <stop offset=".06" stop-color="#ececec"/>
      <stop offset=".56" stop-color="#fafafa"/>
      <stop offset="1" stop-color="#fff"/>
    </linearGradient>
    <linearGradient id="Gradiente_sem_nome_6" data-name="Gradiente sem nome 6" x1="1274.1" y1="652.58" x2="479.46" y2="587.18" gradientUnits="userSpaceOnUse">
      <stop offset="0" stop-color="#07942d"/>
      <stop offset=".16" stop-color="#41aa5e"/>
      <stop offset=".31" stop-color="#75bd88"/>
      <stop offset=".47" stop-color="#9fcdab"/>
      <stop offset=".61" stop-color="#bfd9c6"/>
      <stop offset=".75" stop-color="#d7e2da"/>
      <stop offset=".89" stop-color="#e5e8e5"/>
      <stop offset="1" stop-color="#eaeaea"/>
    </linearGradient>
  </defs>
  <g id="Camada_1-2" data-name="Camada 1">
    <path class="cls-2" d="m659.98,11c11.2,12.78,22.26,25.85,33.19,39.27,44.2,54.29,160.49,221.27,289.74,403.4-16.21,22.86-32.21,45.44-47.88,67.62-108.95,154.04-202.28,287.13-240.69,334.4C537.04,1049.3,356.08,1180.85,0,1156.94c0,0,494.05,186.57,864.22-169.55,48.03-46.2,126.61-145.97,214.97-264.95,16.01-21.55,32.3-43.66,48.82-66.28,54.84,75.5,108.16,147.4,155.55,208.41h283.42c-109.3-143.96-437.12-627.3-621.89-853.57h-285.11Z"/>
    <path class="cls-1" d="m315.28,1196.78c-3.99,0-7.99-.03-11.99-.08-168.02-2.11-292.4-48.37-293.64-48.84l-6.32-2.39,6.74.45c166.92,11.21,304.7-11.34,421.2-68.95,96.94-47.93,180.92-119.46,272.28-231.93,33.59-41.34,111.01-150.89,200.64-277.74,13.04-18.46,26.4-37.37,40.01-56.6,13.43-19,28.08-39.7,47.47-67.04-29.55-41.65-58.2-82.18-85.92-121.39-90.87-128.57-169.35-239.6-203.38-281.39-10.66-13.09-21.81-26.29-33.16-39.24l-1.45-1.66h287.79l.3.37c119.11,145.86,296.35,396.68,438.77,598.22,77.43,109.58,144.3,204.21,183.15,255.37l1.22,1.6h-285.93l-.3-.39c-43.05-55.43-93.69-123.26-154.76-207.33-16.06,21.98-32.21,43.9-48.02,65.18-101.78,137.06-172.14,223.77-215.08,265.08-84.54,81.33-182.64,140.87-291.58,176.96-83.6,27.7-173.72,41.71-268.06,41.71Zm-298.09-48.38c28.2,9.57,140.83,44.5,286.2,46.31,98.47,1.23,192.45-12.75,279.37-41.55,108.63-35.99,206.46-95.37,290.78-176.49,42.86-41.23,113.14-127.86,214.86-264.83,16.07-21.63,32.5-43.93,48.82-66.27l.81-1.11.81,1.11c61.28,84.37,112.06,152.42,155.23,208h280.92c-39.03-51.55-105.33-145.37-181.97-253.82C1250.72,398.4,1073.68,147.86,954.62,2h-282.43c10.86,12.44,21.54,25.09,31.76,37.64,34.07,41.84,112.57,152.9,203.46,281.49,27.84,39.39,56.63,80.11,86.32,121.96l.41.58-.41.58c-19.59,27.63-34.36,48.48-47.88,67.61-13.61,19.24-26.97,38.15-40.01,56.6-89.66,126.88-167.09,236.46-200.72,277.85-91.56,112.7-175.74,184.39-272.95,232.46-115.14,56.93-250.94,79.73-414.98,69.62Z"/>
  </g>
</svg>