<?xml version="1.0" encoding="UTF-8"?>
<svg id="Camada_2" data-name="Camada 2" xmlns="http://www.w3.org/2000/svg" viewBox="0 0 692.82 395.19">
  <defs>
    <style>
      .cls-1 {
        fill: #06942d;
      }
    </style>
  </defs>
  <g id="Camada_1-2" data-name="Camada 1">
    <path class="cls-1" d="m0,395.19c29.91-23.07,58.48-47.97,84.61-75.26,62.51-67.2,117.36-141.1,172.82-214.12,26.38-35.05,52.13-70.56,78.25-105.81l1.18,1.62c50.88,70.17,102.32,139.95,155.16,208.66,0,0-.8-.39-.8-.39,25.02.07,75.76.27,100.8.4,0,0,100.81.6,100.81.6l-100.8.6c-25.49.13-75.84.34-101.3.41-26.81-34.28-53.16-68.92-79.15-103.82-25.92-34.75-51.58-69.69-77.1-104.73h2.38c-77.14,104.09-153.13,209.52-240.09,305.76-29.35,31.72-62.27,60.1-96.75,86.08h0Z"/>
  </g>
</svg>