<?xml version="1.0" encoding="UTF-8"?>
<svg id="Camada_2" data-name="Camada 2" xmlns="http://www.w3.org/2000/svg" viewBox="0 0 64 48.07">
  <defs>
    <style>
      .cls-1 {
        fill: #eaeaea;
      }
    </style>
  </defs>
  <g id="Camada_1-2" data-name="Camada 1">
    <g id="OBcj4X.tif">
      <g>
        <path class="cls-1" d="m5.98,17.13c1.53-3.16,2.76-6.05,4.29-8.76.9-1.59,2.74-2.28,4.44-2.7,3.56-.87,7.03-.61,10.21,1.5.8.53,1.35,1.13,1.43,2.16.07.9.31,1.79.49,2.68.22,1.15.89,1.55,1.93.94,2.21-1.28,4.34-1.33,6.56,0,1.06.63,1.72.2,1.94-1.03.06-.31.12-.63.17-.94.49-3.28,1.82-4.72,5.1-5.41,2.63-.55,5.25-.41,7.8.48,1.87.65,3.31,1.7,4.15,3.64,1.03,2.41,2.31,4.7,3.64,7.37-2.28-1.13-4.3-1.95-6.5-2.27-4.21-.61-8.13.15-11.83,2.22-1.06.59-1.86,1.45-2.63,2.35-1.54,1.8-3.07,3.6-4.56,5.44-.48.6-.75.57-1.22,0-1.29-1.59-2.67-3.1-3.94-4.7-3.65-4.62-8.62-5.73-14.14-5.32-2.48.18-4.78,1.04-7.32,2.39Z"/>
        <path class="cls-1" d="m0,32.68c.04-8.46,6.84-15.19,15.31-15.18,8.42.01,15.26,6.87,15.25,15.28-.01,8.46-6.99,15.37-15.41,15.28C6.7,47.98-.04,41.13,0,32.68Zm15.23,10.11c5.58.02,10.17-4.51,10.21-10.08.04-5.7-4.44-10.24-10.14-10.26-5.65-.01-10.26,4.58-10.24,10.2.02,5.57,4.58,10.12,10.17,10.14Z"/>
        <path class="cls-1" d="m48.88,17.51c8.46.07,15.17,6.89,15.12,15.37-.05,8.43-6.93,15.24-15.33,15.19-8.46-.05-15.34-7.05-15.22-15.47.12-8.44,6.99-15.16,15.44-15.09Zm-.18,25.29c5.63.02,10.25-4.58,10.24-10.2-.01-5.62-4.5-10.11-10.14-10.13-5.6-.02-10.19,4.48-10.24,10.05-.05,5.65,4.5,10.27,10.14,10.29Z"/>
        <path class="cls-1" d="m49.68,2.56c-3.6-.67-7.07-.47-10.7,1.25,1.07-2.23,2.56-3.34,4.59-3.67,2.46-.41,4.53.39,6.11,2.42Z"/>
        <path class="cls-1" d="m24.97,3.69c-1.89-.69-3.55-1.29-5.32-1.41-1.77-.12-3.53-.04-5.58.43C15.57.75,17.26-.08,19.38,0c2.46.11,4.24,1.31,5.59,3.68Z"/>
      </g>
    </g>
  </g>
</svg>