<?xml version="1.0" encoding="UTF-8"?>
<svg id="Camada_2" data-name="Camada 2" xmlns="http://www.w3.org/2000/svg" viewBox="0 0 63.17 57.11">
  <defs>
    <style>
      .cls-1 {
        fill: #eaeaea;
      }
    </style>
  </defs>
  <g id="Camada_1-2" data-name="Camada 1">
    <g id="bOQiPn.tif">
      <g>
        <path class="cls-1" d="m10.13,14.18c.05-2.57.32-4.85,1.11-7.04C13.25,1.65,17.95-.94,23.67.31c2.48.54,4.76,1.56,6.87,2.95.75.49,1.26.54,2.05.03,2.54-1.65,5.27-2.84,8.33-3.18,4.8-.54,8.77,1.75,10.68,6.19,1.21,2.82,1.52,5.79,1.38,8.81-.04.83.21,1.24.94,1.61,2.26,1.13,4.31,2.56,6.04,4.41,4.26,4.54,4.27,10.26.03,14.81-1.76,1.89-3.85,3.34-6.14,4.48-.69.35-.91.76-.87,1.53.14,2.65-.11,5.26-.97,7.79-1.92,5.64-6.69,8.31-12.51,7.05-2.48-.54-4.77-1.54-6.88-2.93-.77-.51-1.28-.52-2.05-.02-2.51,1.61-5.2,2.8-8.2,3.18-4.75.6-8.81-1.68-10.75-6.09-1.25-2.85-1.59-5.86-1.44-8.92.04-.83-.2-1.25-.94-1.61-2.22-1.1-4.24-2.52-5.96-4.32-4.37-4.58-4.38-10.4-.03-14.99,1.46-1.53,3.09-2.87,4.99-3.78,1.52-.73,2.43-1.59,1.89-3.11Zm21.46,1.43c-2.14.04-4.27.11-6.4.34-.59.06-.97.29-1.31.76-2.54,3.46-4.67,7.15-6.4,11.08-.24.54-.24.98,0,1.52,1.73,3.93,3.86,7.62,6.4,11.08.34.47.71.71,1.31.77,4.27.44,8.53.45,12.8,0,.59-.06.97-.29,1.31-.76,2.53-3.46,4.67-7.15,6.4-11.08.24-.53.24-.98,0-1.52-1.73-3.93-3.86-7.61-6.39-11.08-.38-.52-.81-.7-1.43-.78-2.09-.24-4.18-.28-6.28-.33ZM3.71,28.59c0,.75.16,1.47.45,2.15,1.2,2.79,3.5,4.47,6,5.96.65.38.64-.09.72-.51.49-2.37,1.17-4.69,2.02-6.96.17-.45.2-.84.02-1.3-.87-2.3-1.58-4.66-2.04-7.08-.14-.73-.42-.63-.89-.35-1.74,1.04-3.36,2.21-4.63,3.81-.99,1.25-1.65,2.64-1.66,4.27Zm55.75,0c0-.75-.14-1.47-.43-2.16-1.19-2.85-3.54-4.55-6.09-6.05-.57-.34-.58.09-.66.46-.5,2.41-1.18,4.78-2.06,7.08-.17.46-.14.85.02,1.3.85,2.27,1.54,4.59,2.01,6.97.12.6.26.8.84.45,1.77-1.07,3.44-2.25,4.72-3.9.96-1.23,1.59-2.58,1.63-4.17ZM28.42,6.31c-1.8-1.16-3.59-1.95-5.54-2.36-4.06-.85-6.93.8-8.25,4.73-.55,1.65-.72,3.36-.79,5.1-.03.81.24.88.92.65,2.26-.77,4.58-1.32,6.94-1.69.43-.07.77-.23,1.05-.57,1.69-2.07,3.55-3.98,5.68-5.86Zm20.88,6.66c-.12-1.84-.41-3.91-1.41-5.81-1.16-2.19-2.96-3.39-5.44-3.43-2.63-.04-4.96.98-7.21,2.25-.72.41-.14.64.12.87,1.78,1.6,3.43,3.31,4.94,5.16.37.45.79.65,1.35.74,2.15.34,4.27.87,6.35,1.51q1.36.42,1.3-1.3Zm-20.86,37.85c-2.15-1.9-4.01-3.8-5.7-5.87-.21-.26-.46-.47-.8-.53-2.52-.39-4.99-1-7.42-1.8-.46-.15-.68-.08-.67.47.05,2.53.34,5.01,1.66,7.24,1.05,1.78,2.6,2.83,4.68,3,3.01.23,5.6-.95,8.25-2.51Zm6.31-.02c1.79,1.16,3.59,1.96,5.53,2.37,4.11.85,7-.84,8.3-4.84.52-1.62.69-3.29.76-4.98.03-.79-.23-.89-.91-.66-2.26.77-4.58,1.31-6.93,1.69-.42.07-.77.21-1.06.56-1.69,2.07-3.55,3.98-5.68,5.86Zm.53-38.77c-1.12-1.32-2.22-2.24-3.29-3.17-.25-.21-.46-.3-.74-.05-1.09.96-2.24,1.87-3.3,3.21,2.49-.11,4.77-.13,7.34.01Zm-.04,33.07c-2.52.13-4.81.13-7.33,0,1.11,1.32,2.21,2.23,3.28,3.16.25.22.46.3.74.05,1.09-.96,2.23-1.87,3.31-3.22ZM15.38,23.37c1.24-2.15,2.39-4.14,3.6-6.25-1.56.25-2.89.75-4.24,1.2-.48.16-.49.48-.41.87.28,1.36.51,2.73,1.04,4.18Zm28.66-6.28c1.45,2.14,2.54,4.18,3.73,6.36.52-1.53.79-2.93,1.07-4.34.09-.45-.1-.68-.51-.82-1.31-.44-2.61-.91-4.29-1.21Zm-25.05,22.9c-1.25-2.16-2.41-4.16-3.61-6.23-.54,1.4-.75,2.77-1.04,4.12-.1.46-.02.77.49.94,1.32.42,2.61.92,4.17,1.17Zm25.17,0c1.56-.27,2.94-.75,4.31-1.25.34-.12.42-.35.36-.67-.27-1.42-.5-2.86-1.08-4.32-1.21,2.1-2.37,4.1-3.6,6.23Z"/>
        <path class="cls-1" d="m40.81,26.3c0,1.92-.53,3.23-1.59,4.3-2.34,2.36-4.71,4.69-7.03,7.07-.52.53-.8.43-1.26-.05-2.24-2.29-4.53-4.53-6.78-6.81-2.15-2.18-2.41-5.23-.68-7.48,1.79-2.33,4.79-2.86,7.48-1.22.6.37.92.18,1.4-.11,1.88-1.13,3.82-1.19,5.72-.08,1.81,1.05,2.69,2.7,2.74,4.37Zm-3.71.17c-.01-.54-.37-1.14-1.14-1.46-.89-.36-1.57,0-2.21.61-.71.67-1.28,1.87-2.14,1.89-.88.02-1.43-1.21-2.15-1.86-1.01-.92-2.03-1.04-2.83-.27-.82.79-.74,1.91.24,2.92,1.35,1.38,2.74,2.71,4.08,4.1.46.49.75.57,1.26.03,1.36-1.43,2.77-2.8,4.17-4.19.42-.42.74-.88.73-1.77Z"/>
      </g>
    </g>
  </g>
</svg>