<?xml version="1.0" encoding="UTF-8"?>
<svg id="Camada_2" data-name="Camada 2" xmlns="http://www.w3.org/2000/svg" xmlns:xlink="http://www.w3.org/1999/xlink" viewBox="0 0 496.54 286.17">
  <defs>
    <style>
      .cls-1 {
        fill: url(#Gradiente_sem_nome_10-3);
      }

      .cls-2 {
        fill: url(#Gradiente_sem_nome_10-2);
      }

      .cls-3 {
        fill: url(#Gradiente_sem_nome_10-6);
      }

      .cls-4 {
        fill: url(#Gradiente_sem_nome_10-4);
      }

      .cls-5 {
        fill: url(#Gradiente_sem_nome_10-8);
      }

      .cls-6 {
        fill: url(#Gradiente_sem_nome_10);
      }

      .cls-7 {
        fill: url(#Gradiente_sem_nome_10-10);
      }

      .cls-8 {
        fill: url(#Gradiente_sem_nome_10-7);
      }

      .cls-9 {
        fill: url(#Gradiente_sem_nome_10-9);
      }

      .cls-10 {
        fill: url(#Gradiente_sem_nome_10-5);
      }
    </style>
    <linearGradient id="Gradiente_sem_nome_10" data-name="Gradiente sem nome 10" x1="6.26" y1="36.38" x2="549.23" y2="418.17" gradientUnits="userSpaceOnUse">
      <stop offset="0" stop-color="#111182"/>
      <stop offset="1" stop-color="#090947"/>
    </linearGradient>
    <linearGradient id="Gradiente_sem_nome_10-2" data-name="Gradiente sem nome 10" x1="41.53" y1="-13.78" x2="584.5" y2="368.02" xlink:href="#Gradiente_sem_nome_10"/>
    <linearGradient id="Gradiente_sem_nome_10-3" data-name="Gradiente sem nome 10" x1="84.29" y1="-74.6" x2="627.27" y2="307.2" xlink:href="#Gradiente_sem_nome_10"/>
    <linearGradient id="Gradiente_sem_nome_10-4" data-name="Gradiente sem nome 10" x1="124.46" y1="-131.72" x2="667.43" y2="250.07" xlink:href="#Gradiente_sem_nome_10"/>
    <linearGradient id="Gradiente_sem_nome_10-5" data-name="Gradiente sem nome 10" x1="-79.51" y1="158.36" x2="463.46" y2="540.15" xlink:href="#Gradiente_sem_nome_10"/>
    <linearGradient id="Gradiente_sem_nome_10-6" data-name="Gradiente sem nome 10" x1="-54.18" y1="122.33" x2="488.79" y2="504.13" xlink:href="#Gradiente_sem_nome_10"/>
    <linearGradient id="Gradiente_sem_nome_10-7" data-name="Gradiente sem nome 10" x1="-29.38" y1="87.06" x2="513.59" y2="468.86" xlink:href="#Gradiente_sem_nome_10"/>
    <linearGradient id="Gradiente_sem_nome_10-8" data-name="Gradiente sem nome 10" x1="10.64" y1="30.14" x2="553.61" y2="411.94" xlink:href="#Gradiente_sem_nome_10"/>
    <linearGradient id="Gradiente_sem_nome_10-9" data-name="Gradiente sem nome 10" x1="41.96" y1="-14.4" x2="584.93" y2="367.4" xlink:href="#Gradiente_sem_nome_10"/>
    <linearGradient id="Gradiente_sem_nome_10-10" data-name="Gradiente sem nome 10" x1="56.67" y1="-35.31" x2="599.64" y2="346.49" xlink:href="#Gradiente_sem_nome_10"/>
  </defs>
  <g id="Camada_1-2" data-name="Camada 1">
    <g>
      <path class="cls-6" d="m115.91,112.42v31.44H.41V0h112.83v31.44H40.69v24.25h63.92v30.42h-63.92v26.31h75.22Z"/>
      <path class="cls-2" d="m206.75,143.86l-19.94-29.18-21.37,29.18h-42.34l42.34-55.7-41.1-55.7h43.98l19.73,28.16,20.55-28.16h41.31l-41.1,54.26,42.54,57.13h-44.6Z"/>
      <path class="cls-1" d="m283.82,138.32c-9.73-4.93-17.3-11.78-22.71-20.55-5.41-8.77-8.12-18.7-8.12-29.8s2.7-21,8.12-29.7c5.41-8.7,12.98-15.48,22.71-20.35,9.73-4.86,20.76-7.3,33.09-7.3s23.5,2.71,32.68,8.12c9.18,5.41,15.69,12.92,19.52,22.5l-30.21,15.41c-5.07-10-12.47-15-22.2-15-6.99,0-12.78,2.33-17.37,6.99-4.59,4.66-6.89,11.1-6.89,19.32s2.29,14.9,6.89,19.63c4.59,4.73,10.38,7.09,17.37,7.09,9.73,0,17.13-5,22.2-15l30.21,15.41c-3.84,9.59-10.35,17.09-19.52,22.5-9.18,5.41-20.07,8.12-32.68,8.12s-23.36-2.47-33.09-7.4Z"/>
      <path class="cls-4" d="m495.92,98.03h-80.98c1.64,5.75,4.83,10.17,9.56,13.26,4.73,3.08,10.65,4.62,17.78,4.62,5.34,0,9.97-.75,13.87-2.26,3.9-1.51,7.84-3.97,11.82-7.4l20.55,21.37c-10.83,12.06-26.65,18.09-47.48,18.09-13.02,0-24.46-2.47-34.32-7.4-9.87-4.93-17.5-11.78-22.92-20.55-5.41-8.77-8.12-18.7-8.12-29.8s2.64-20.79,7.91-29.49c5.27-8.7,12.57-15.52,21.89-20.45,9.32-4.93,19.8-7.4,31.44-7.4s21.17,2.3,30.21,6.88c9.04,4.59,16.2,11.24,21.48,19.94,5.27,8.7,7.91,19.01,7.91,30.93,0,.28-.21,3.49-.62,9.66Zm-73.88-34.53c-4.04,3.43-6.61,8.09-7.71,13.98h45.63c-1.1-5.89-3.67-10.55-7.71-13.98-4.04-3.42-9.08-5.14-15.11-5.14s-11.07,1.71-15.11,5.14Z"/>
      <path class="cls-10" d="m0,165.31h30.58v119.41H0v-119.41Z"/>
      <path class="cls-3" d="m139.04,248.83h-63.41c1.29,4.51,3.78,7.97,7.48,10.38,3.7,2.41,8.34,3.62,13.92,3.62,4.18,0,7.81-.59,10.86-1.77,3.06-1.18,6.14-3.11,9.25-5.79l16.09,16.74c-8.48,9.44-20.87,14.16-37.17,14.16-10.19,0-19.15-1.93-26.88-5.79-7.72-3.86-13.71-9.23-17.94-16.09-4.24-6.86-6.36-14.64-6.36-23.33s2.06-16.28,6.2-23.09c4.13-6.81,9.84-12.15,17.14-16.01,7.29-3.86,15.5-5.79,24.62-5.79s16.58,1.8,23.66,5.39c7.08,3.6,12.69,8.8,16.82,15.61,4.13,6.81,6.2,14.89,6.2,24.22,0,.22-.16,2.74-.48,7.56Zm-32.99-61.8l-13.84-12.23-13.84,12.23h-20.28l20.92-24.46h26.39l20.92,24.46h-20.28Zm-24.86,34.76c-3.17,2.68-5.18,6.33-6.03,10.94h35.73c-.86-4.61-2.87-8.26-6.03-10.94-3.17-2.68-7.11-4.02-11.83-4.02s-8.67,1.34-11.83,4.02Z"/>
      <path class="cls-8" d="m236.64,205.71c6.6,6.44,9.9,16.15,9.9,29.13v49.89h-30.58v-44.9c0-11.91-4.77-17.86-14.32-17.86-5.26,0-9.47,1.72-12.63,5.15-3.17,3.43-4.75,8.58-4.75,15.45v42.16h-30.58v-87.22h29.13v9.49c3.43-3.54,7.51-6.25,12.23-8.13,4.72-1.88,9.87-2.82,15.45-2.82,10.84,0,19.55,3.22,26.15,9.66Z"/>
      <path class="cls-5" d="m285.65,280.38c-7.62-3.86-13.55-9.23-17.78-16.09-4.24-6.86-6.36-14.64-6.36-23.33s2.12-16.44,6.36-23.25c4.24-6.81,10.16-12.12,17.78-15.93,7.62-3.81,16.25-5.71,25.91-5.71s18.4,2.12,25.59,6.36c7.19,4.24,12.28,10.11,15.29,17.62l-23.66,12.07c-3.97-7.83-9.76-11.75-17.38-11.75-5.47,0-10.01,1.83-13.6,5.47-3.6,3.65-5.39,8.69-5.39,15.13s1.8,11.67,5.39,15.37c3.59,3.7,8.13,5.55,13.6,5.55,7.62,0,13.41-3.92,17.38-11.75l23.66,12.07c-3,7.51-8.1,13.38-15.29,17.62-7.19,4.24-15.72,6.36-25.59,6.36s-18.29-1.93-25.91-5.79Z"/>
      <path class="cls-9" d="m365.79,183.18c-3.43-3.11-5.15-6.97-5.15-11.59s1.71-8.47,5.15-11.59c3.43-3.11,7.94-4.67,13.52-4.67s10.08,1.48,13.52,4.43c3.43,2.95,5.15,6.73,5.15,11.35s-1.72,8.83-5.15,11.99c-3.43,3.17-7.94,4.75-13.52,4.75s-10.09-1.55-13.52-4.67Zm-1.77,14.32h30.58v87.22h-30.58v-87.22Z"/>
      <path class="cls-7" d="m484.71,205.95c7.62,6.6,11.43,16.71,11.43,30.34v48.44h-28.48v-11.27c-4.4,8.48-12.98,12.71-25.75,12.71-6.76,0-12.61-1.18-17.54-3.54-4.94-2.36-8.67-5.55-11.18-9.58-2.52-4.02-3.78-8.61-3.78-13.76,0-8.26,3.16-14.67,9.49-19.23,6.33-4.56,16.09-6.84,29.29-6.84h17.38c-.54-9.23-6.71-13.84-18.51-13.84-4.18,0-8.42.67-12.71,2.01-4.29,1.34-7.94,3.19-10.94,5.55l-10.3-20.76c4.83-3.22,10.7-5.71,17.62-7.48,6.92-1.77,13.87-2.66,20.84-2.66,14.48,0,25.53,3.3,33.15,9.9Zm-24.94,58.34c2.68-1.71,4.61-4.24,5.79-7.56v-7.56h-13.2c-8.91,0-13.36,2.95-13.36,8.85,0,2.68,1.02,4.83,3.06,6.44,2.04,1.61,4.83,2.41,8.37,2.41s6.65-.86,9.33-2.57Z"/>
    </g>
  </g>
</svg>