<?xml version="1.0" encoding="UTF-8"?>
<svg id="Camada_2" data-name="Camada 2" xmlns="http://www.w3.org/2000/svg" viewBox="0 0 65.84 65.79">
  <defs>
    <style>
      .cls-1 {
        fill: #fff;
      }
    </style>
  </defs>
  <g id="Camada_1-2" data-name="Camada 1">
    <g id="Dvsl2K.tif">
      <path class="cls-1" d="m2.29,34c0-4.74,1-9.26,3.07-13.53.39-.8.29-1.27-.34-1.86-1.41-1.31-2.75-2.7-4.1-4.08-1.45-1.48-1.16-2.92.77-3.66,1.92-.74,3.84-1.45,5.78-2.13.66-.23,1.05-.6,1.28-1.28.67-1.94,1.4-3.86,2.13-5.78.74-1.93,2.17-2.24,3.65-.79,1.38,1.35,2.76,2.69,4.08,4.1.58.62,1.04.74,1.86.36,18.8-8.79,40.54,2.13,44.73,22.44,3.72,18.05-9.11,35.66-27.53,37.77-18.85,2.16-35.4-12.61-35.37-31.57ZM23.35,15.73c11.42-6.05,22.69-1.38,27.97,6.19,5.64,8.08,4.97,19.01-1.69,26.32-6.62,7.27-17.45,9.02-25.94,4.18-4.31-2.46-7.45-6-9.26-10.63-2.45-6.27-1.87-12.38,1.35-18.44-1.33.23-2.48.36-3.59.63-1.09.26-1.96.02-2.64-.82-.66-.81-.96-.61-1.31.27-1.96,4.89-2.57,9.93-1.72,15.12,1.87,11.37,10.55,20.41,21.79,22.8,11.25,2.39,22.93-2.5,29.19-12.22,6.25-9.7,5.89-22.14-.91-31.49-7.55-10.39-21.39-14.31-33.12-9.41-.81.34-1.19.6-.31,1.31.85.68,1.11,1.54.84,2.63-.27,1.11-.41,2.26-.63,3.57Zm27.92,18.33c-.02-1.59-.21-3.16-.64-4.69-3.16-11.33-16.73-16.23-26.37-9.55-.75.52-1.02.85-.18,1.57,1.07.92,2.05,1.94,3,2.99.68.76,1.19.95,2.23.39,3.99-2.17,8.97-1.3,12.17,1.95,3.24,3.29,3.93,8.29,1.72,12.33-2.2,4.01-6.73,6.13-11.19,5.23-6.91-1.4-10.5-8.95-7.16-15.16.42-.78.43-1.22-.25-1.82-1.09-.96-2.15-1.97-3.08-3.09-.85-1.02-1.23-.65-1.82.23-4.07,6.09-3.86,14.1.57,19.96,4.47,5.92,12.17,8.33,19.16,6,7.07-2.35,11.83-8.92,11.84-16.35Zm-23.8-.1c-.02,2.9,1.8,5.45,4.52,6.34,2.69.88,5.62-.06,7.32-2.33,1.73-2.31,1.75-5.45.05-7.78-1.68-2.31-4.61-3.27-7.29-2.44-.86.27-1.2.49-.36,1.27,1.23,1.13,2.39,2.33,3.54,3.53.91.95.93,2.05.14,2.85-.8.8-1.9.77-2.85-.13-.87-.82-1.68-1.71-2.56-2.52-.58-.54-1.2-1.73-1.74-1.46-.77.39-.74,1.61-.78,2.55,0,.04,0,.09,0,.13Zm-8.23-17.45c.29-1.51.52-2.8.78-4.08.08-.38-.07-.65-.33-.91-1.85-1.84-3.69-3.67-5.52-5.53-.46-.47-.66-.34-.86.22-.3.89-.64,1.76-.99,2.63-.14.36-.12.63.17.92,2.2,2.19,4.39,4.39,6.74,6.73Zm-2.67,2.72c-1.83-1.8-3.44-3.38-5.04-4.97-2.29-2.28-2.28-2.27-5.26-.97-.63.28-.71.45-.21.94,1.83,1.79,3.63,3.61,5.43,5.43.3.3.59.44,1.02.35,1.25-.25,2.51-.48,4.06-.78Z"/>
    </g>
  </g>
</svg>