<?xml version="1.0" encoding="UTF-8"?>
<svg id="Camada_2" data-name="Camada 2" xmlns="http://www.w3.org/2000/svg" viewBox="0 0 21.83 21.83">
  <defs>
    <style>
      .cls-1 {
        fill: #06942d;
      }
    </style>
  </defs>
  <g id="Camada_1-2" data-name="Camada 1">
    <g>
      <path class="cls-1" d="m18.04,0H3.79C1.7,0,0,1.7,0,3.79v14.25c0,2.09,1.7,3.79,3.79,3.79h14.25c2.09,0,3.79-1.7,3.79-3.79V3.79c0-2.09-1.7-3.79-3.79-3.79Zm-3.85,18.14c-2.16,0-4.32,0-6.48,0-2.28,0-3.98-1.72-3.99-4,0-2.15,0-4.3,0-6.44,0-2.31,1.71-4,4.02-4.01,1.07,0,2.15,0,3.22,0,1.07,0,2.15,0,3.22,0,2.26.01,3.97,1.71,3.98,3.96,0,2.18,0,4.35,0,6.53,0,2.25-1.72,3.96-3.98,3.96Z"/>
      <path class="cls-1" d="m16.87,7.74c0-1.63-1.11-2.74-2.73-2.75-2.13,0-4.27,0-6.4,0-1.59,0-2.71,1.12-2.71,2.72,0,2.13,0,4.27,0,6.4,0,1.6,1.12,2.72,2.7,2.73,2.15,0,4.3,0,6.44,0,1.57,0,2.68-1.13,2.69-2.69,0-1.07,0-2.15,0-3.22,0-1.06,0-2.12,0-3.18Zm-5.97,6.44c-1.81-.03-3.24-1.51-3.21-3.31.03-1.81,1.51-3.24,3.31-3.21,1.81.03,3.24,1.51,3.21,3.31-.03,1.81-1.51,3.25-3.31,3.21Zm3.82-6.36c-.37.01-.67-.27-.67-.64,0-.35.27-.63.62-.65.37-.01.67.27.67.64,0,.35-.27.63-.62.65Z"/>
      <path class="cls-1" d="m10.93,8.96c-1.09.01-1.95.9-1.93,1.99.02,1.07.88,1.92,1.95,1.92,1.09,0,1.96-.88,1.96-1.97,0-1.09-.89-1.96-1.97-1.95Z"/>
    </g>
  </g>
</svg>