<?xml version="1.0" encoding="UTF-8"?>
<svg id="Camada_2" data-name="Camada 2" xmlns="http://www.w3.org/2000/svg" xmlns:xlink="http://www.w3.org/1999/xlink" viewBox="0 0 2099.61 418.04">
  <defs>
    <style>
      .cls-1 {
        fill: url(#Gradiente_sem_nome_12);
      }

      .cls-2 {
        fill: url(#Gradiente_sem_nome_10);
      }
    </style>
    <linearGradient id="Gradiente_sem_nome_10" data-name="Gradiente sem nome 10" x1="1727.43" y1="178.82" x2="2100.44" y2="178.82" gradientUnits="userSpaceOnUse">
      <stop offset="0" stop-color="#111182"/>
      <stop offset="1" stop-color="#090947"/>
    </linearGradient>
    <linearGradient id="Gradiente_sem_nome_12" data-name="Gradiente sem nome 12" x1="120.96" y1="440.95" x2="1294.85" y2="30.28" gradientUnits="userSpaceOnUse">
      <stop offset="0" stop-color="#07942d"/>
      <stop offset="1" stop-color="#038020"/>
    </linearGradient>
  </defs>
  <g id="Camada_1-2" data-name="Camada 1">
    <g>
      <path class="cls-2" d="m2099.61,0l-11.85,3.07c-1.98.49-3.94,1.04-5.9,1.62l-5.89,1.66-5.89,1.65c-1.96.55-3.91,1.17-5.86,1.76l-11.71,3.55c-15.55,4.93-31.03,10.07-46.46,15.37-7.71,2.66-15.42,5.31-23.09,8.09l-11.53,4.08-11.51,4.16-11.5,4.17-11.47,4.25-22.94,8.52c-15.29,5.69-30.52,11.54-45.76,17.36l-22.85,8.76-22.81,8.87-45.59,17.85-45.53,18,1.76-2.84,3.93,56.9,3.71,56.92c1.18,18.98,2.39,37.95,3.44,56.93,1.08,18.98,2.22,37.96,3.15,56.95-1.91-18.92-3.61-37.86-5.37-56.79-1.79-18.93-3.43-37.87-5.08-56.8l-4.81-56.82-4.59-56.83-.17-2.06,1.92-.78c15.13-6.15,30.29-12.21,45.47-18.24,15.17-6.05,30.36-12.03,45.6-17.91l22.87-8.79,22.91-8.69c15.3-5.73,30.63-11.37,45.99-16.92,7.67-2.8,15.36-5.55,23.08-8.24l11.56-4.05,11.59-3.97,11.59-3.96,11.63-3.87c7.75-2.58,15.54-5.05,23.33-7.52,7.78-2.5,15.6-4.86,23.43-7.2,3.91-1.2,7.85-2.29,11.77-3.41l11.79-3.34c15.77-4.28,31.62-8.31,47.65-11.46Z"/>
      <path class="cls-1" d="m1318.51,418.04l2.31-68.55,2.43-68.55,4.97-137.11,2.26,1.77c-113.15,34.35-226.2,68.98-339.53,102.8-28.33,8.47-56.7,16.79-85.13,24.95-28.44,8.13-56.89,16.2-85.64,23.43-28.85,6.93-57.8,13.02-86.99,18.18-29.19,5.1-58.56,9.21-88.08,12.01-59,5.61-118.72,5.83-177.6-1.87-29.43-3.78-58.62-9.4-87.32-16.86l-10.74-2.89c-3.58-.97-7.17-1.88-10.7-3.03l-21.25-6.56-21-7.33c-3.52-1.17-6.96-2.55-10.41-3.9l-10.36-4.05-5.18-2.02c-1.73-.67-3.46-1.33-5.15-2.09l-10.2-4.42c-6.79-2.96-13.63-5.82-20.27-9.11l-10.03-4.79-5.01-2.39c-1.67-.8-3.35-1.57-4.98-2.46l-19.71-10.27c-1.64-.87-3.3-1.68-4.91-2.59l-4.84-2.73-9.67-5.46-9.67-5.46c-3.19-1.88-6.33-3.84-9.5-5.75l-9.48-5.79-4.73-2.9c-1.58-.97-3.17-1.92-4.7-2.95l-18.56-12.19c-6.24-3.98-12.21-8.36-18.29-12.58l-9.08-6.38-4.54-3.19-4.45-3.32-17.77-13.29-4.44-3.32-4.35-3.45-8.69-6.89-8.69-6.89-4.34-3.45c-1.44-1.16-2.84-2.37-4.26-3.55l-16.98-14.27c-5.71-4.7-11.19-9.67-16.72-14.57L0,87.23c22.37,19.33,44.91,38.46,68.4,56.39l8.77,6.77,4.38,3.39,4.48,3.26,17.91,13.04,4.48,3.26,4.57,3.12,9.14,6.25c6.12,4.13,12.12,8.43,18.4,12.32l18.66,11.92c6.27,3.89,12.67,7.56,18.99,11.38,3.17,1.88,6.32,3.81,9.52,5.65l9.68,5.35,9.68,5.35,4.84,2.68c1.61.89,3.28,1.69,4.92,2.54l19.71,10.04c1.63.86,3.31,1.62,4.98,2.4l5.01,2.34,10.02,4.67c6.64,3.22,13.47,5.99,20.25,8.88l10.18,4.32c1.69.75,3.41,1.39,5.13,2.05l5.16,1.98,10.32,3.95c3.44,1.32,6.87,2.67,10.37,3.81l20.91,7.15,21.16,6.38c3.51,1.12,7.09,2,10.65,2.94l10.69,2.8c28.56,7.2,57.56,12.66,86.78,16.3,58.47,7.42,117.75,6.88,176.39,1.3,29.34-2.82,58.55-6.95,87.6-12.06l21.75-4.06c7.24-1.4,14.46-2.94,21.69-4.4l5.42-1.1,5.4-1.19,10.81-2.38c3.6-.81,7.22-1.55,10.8-2.41l10.74-2.57c28.6-7.16,57.05-15.18,85.46-23.27,28.42-8.1,56.77-16.44,85.13-24.76,56.72-16.64,113.35-33.63,170.03-50.45l85.02-25.24,85.07-25.09,2.38-.7-.12,2.47-6.51,137.02-3.3,68.51-3.42,68.51Z"/>
    </g>
  </g>
</svg>