<?xml version="1.0" encoding="UTF-8"?>
<svg id="Camada_2" data-name="Camada 2" xmlns="http://www.w3.org/2000/svg" viewBox="0 0 223.67 70.97">
  <defs>
    <style>
      .cls-1 {
        fill: #06942d;
      }

      .cls-2 {
        fill: #fff;
      }
    </style>
  </defs>
  <g id="Camada_1-2" data-name="Camada 1">
    <g>
      <g>
        <path class="cls-1" d="m184.63,10.05c-2.23,2.14-5.9,6.82-10.02,12.38,2.14,2.91,4.36,6.01,6.54,9.07,5.06-7.15,9.42-13.38,11.2-15.56,7.09-8.71,15.27-14.62,31.32-13.55,0,0-22.32-8.43-39.05,7.66Z"/>
        <path class="cls-2" d="m150.51,15.6c.51.58,1.01,1.17,1.5,1.77,2,2.45,7.25,10,13.09,18.23,2.15,3.03,4.38,6.15,6.56,9.15,2.48,3.41,4.89,6.66,7.03,9.42h12.81c-4.94-6.5-19.75-28.34-28.1-38.56h-12.88Z"/>
        <g>
          <path class="cls-2" d="m162.94,38.65c-4.92,6.96-9.14,12.97-10.87,15.11-7.11,8.75-15.28,14.69-31.37,13.61,0,0,22.32,8.43,39.05-7.66,2.17-2.09,5.72-6.6,9.71-11.97,0,0-.01-.02-.02-.03-2.16-2.97-4.36-6.06-6.49-9.06Z"/>
          <path class="cls-2" d="m165.1,35.6c-.73,1.03-1.46,2.05-2.16,3.05,2.13,3,4.34,6.09,6.49,9.06,0,0,.01.02.02.03.72-.97,1.46-1.97,2.21-2.99-2.18-3-4.4-6.12-6.56-9.15Z"/>
        </g>
      </g>
      <g>
        <path class="cls-2" d="m4.49,15.59c.13.26.25.54.35.84.1.3.16.64.16,1.04v3.05c.63-.96,1.52-1.8,2.7-2.5,1.17-.7,2.41-1.28,3.71-1.74,1.3-.46,2.56-.79,3.77-1,1.21-.21,2.17-.31,2.87-.31,2.89,0,5.58.55,8.07,1.66,2.49,1.11,4.64,2.62,6.45,4.53,1.81,1.91,3.23,4.16,4.26,6.72,1.03,2.57,1.54,5.31,1.54,8.23s-.51,5.66-1.54,8.23c-1.03,2.57-2.45,4.81-4.26,6.72-1.81,1.92-3.96,3.43-6.45,4.53-2.49,1.11-5.18,1.66-8.07,1.66-.86,0-1.81-.08-2.85-.23-1.04-.16-2.12-.47-3.24-.96-1.12-.48-2.27-1.18-3.44-2.09-1.17-.91-2.34-2.11-3.52-3.6v20.6H0V15.59h4.49Zm13.56,36.66c2.27,0,4.34-.42,6.21-1.25,1.88-.83,3.49-1.98,4.85-3.44,1.35-1.46,2.4-3.17,3.15-5.12.74-1.95,1.11-4.06,1.11-6.33s-.37-4.38-1.11-6.33c-.74-1.95-1.79-3.66-3.15-5.12-1.35-1.46-2.97-2.6-4.85-3.44-1.88-.83-3.95-1.25-6.21-1.25s-4.69.48-6.96,1.45c-2.27.96-4.3,2.34-6.1,4.14v19.03c.7,1.25,1.56,2.35,2.58,3.3,1.02.95,2.1,1.75,3.24,2.4,1.15.65,2.34,1.14,3.6,1.47,1.25.33,2.46.49,3.63.49Z"/>
        <path class="cls-2" d="m47.68,15.59c.13.26.25.54.35.84.1.3.16.64.16,1.04v4.61c.49-1.02,1.25-1.96,2.27-2.83,1.02-.87,2.17-1.63,3.48-2.27,1.3-.64,2.71-1.13,4.22-1.49,1.51-.35,3.02-.53,4.53-.53,1.59,0,3.11.22,4.57.66l-.39,2.15c-.1.57-.27,1.02-.51,1.33-.23.31-.51.54-.84.68-.33.14-.69.23-1.09.25-.4.03-.81.04-1.23.04h-.59c-1.9,0-3.71.31-5.41.94-1.71.63-3.22,1.43-4.53,2.42-1.32.99-2.37,2.1-3.17,3.34-.8,1.24-1.23,2.47-1.31,3.69v26.15h-5V15.59h4.49Z"/>
        <path class="cls-2" d="m64.48,36.11c0-1.93.25-3.8.76-5.61.51-1.81,1.22-3.5,2.15-5.06.92-1.56,2.03-2.99,3.32-4.28,1.29-1.29,2.72-2.39,4.28-3.3,1.56-.91,3.24-1.62,5.04-2.13,1.8-.51,3.66-.76,5.59-.76,2.92,0,5.66.55,8.23,1.66,2.57,1.11,4.81,2.62,6.72,4.53,1.92,1.91,3.43,4.16,4.53,6.72,1.11,2.57,1.66,5.31,1.66,8.23s-.55,5.66-1.66,8.23c-1.11,2.57-2.62,4.81-4.53,6.72-1.92,1.92-4.16,3.43-6.72,4.53s-5.31,1.66-8.23,1.66c-1.93,0-3.79-.25-5.59-.76-1.8-.51-3.48-1.22-5.04-2.13-1.56-.91-2.99-2.01-4.28-3.3-1.29-1.29-2.4-2.72-3.32-4.28-.93-1.56-1.64-3.25-2.15-5.06-.51-1.81-.76-3.68-.76-5.61Zm5,0c0,2.27.42,4.38,1.25,6.33.83,1.95,1.98,3.66,3.44,5.12,1.46,1.46,3.17,2.61,5.14,3.44,1.97.83,4.07,1.25,6.31,1.25s4.38-.42,6.33-1.25c1.95-.83,3.66-1.98,5.12-3.44,1.46-1.46,2.61-3.17,3.44-5.12.83-1.95,1.25-4.06,1.25-6.33s-.42-4.38-1.25-6.33c-.83-1.95-1.98-3.66-3.44-5.12-1.46-1.46-3.17-2.6-5.12-3.44-1.95-.83-4.06-1.25-6.33-1.25s-4.34.42-6.31,1.25c-1.97.83-3.68,1.98-5.14,3.44-1.46,1.46-2.61,3.17-3.44,5.12-.83,1.95-1.25,4.06-1.25,6.33Z"/>
        <path class="cls-2" d="m105.09,15.59h2.19c.99,0,1.91.26,2.76.78.85.52,1.45,1.21,1.82,2.07l13.37,30.72c.29.68.47,1.29.55,1.84.05.29.09.56.12.82.05-.6.12-1.08.22-1.45.09-.36.24-.77.45-1.21l13.56-30.72c.39-.89.99-1.59,1.8-2.11.81-.52,1.69-.78,2.66-.78h2.23c-1.56,3.62-3.09,7.13-4.57,10.51-1.49,3.39-2.96,6.75-4.42,10.08-1.46,3.34-2.92,6.68-4.4,10.04s-2.99,6.84-4.55,10.43h-5.86l-17.9-41.03Z"/>
        <path class="cls-2" d="m144.48,4.03c0-.55.1-1.07.31-1.56.21-.49.49-.92.86-1.29.36-.36.79-.65,1.29-.86.49-.21,1.02-.31,1.56-.31s1.07.1,1.56.31c.49.21.92.5,1.29.86.36.37.65.8.86,1.29.21.5.31,1.02.31,1.56s-.1,1.07-.31,1.56c-.21.5-.5.93-.86,1.29-.36.37-.8.65-1.29.86-.5.21-1.02.31-1.56.31s-1.07-.1-1.56-.31c-.5-.21-.93-.49-1.29-.86-.36-.36-.65-.79-.86-1.29-.21-.49-.31-1.02-.31-1.56Zm6.49,11.57v41.03h-5V15.59h5Z"/>
      </g>
      <rect class="cls-2" x="145.98" y="55.31" width="5" height="6.4"/>
    </g>
  </g>
</svg>