<?xml version="1.0" encoding="UTF-8"?>
<svg id="Camada_2" data-name="Camada 2" xmlns="http://www.w3.org/2000/svg" viewBox="0 0 21.09 21.09">
  <defs>
    <style>
      .cls-1 {
        fill: #06942d;
      }
    </style>
  </defs>
  <g id="Camada_1-2" data-name="Camada 1">
    <g id="CyEANs.tif">
      <path class="cls-1" d="m0,10.53c0-2.51,0-5.01,0-7.52C0,1.18,1.18,0,3,0c5.03,0,10.06,0,15.09,0,1.82,0,3,1.18,3,3,0,5.03,0,10.06,0,15.08,0,1.82-1.18,2.99-3,3-1.01,0-2.01,0-3.02,0-.33,0-.47-.08-.47-.44.01-2.09.01-4.19,0-6.28,0-.32.12-.45.44-.43.37.02.74,0,1.12,0,.27,0,.43-.09.53-.35.35-.9.7-1.79,1.07-2.68.14-.33.05-.45-.3-.45-.79,0-1.57-.01-2.36,0-.37,0-.53-.1-.51-.49.03-.67,0-1.35.01-2.02,0-.47.12-.59.59-.6.54-.02,1.07-.02,1.61-.01.32,0,.45-.13.44-.44,0-.87,0-1.74,0-2.6,0-.22-.02-.43-.31-.43-1.14.01-2.29-.12-3.42.14-1.67.39-2.9,1.91-3.02,3.62-.06.79-.04,1.57-.03,2.35,0,.39-.14.51-.51.49-.56-.02-1.13,0-1.69,0-.31,0-.46.11-.45.43,0,.88,0,1.76,0,2.64,0,.3.14.41.43.41.61,0,1.21,0,1.82,0,.28,0,.4.1.4.39,0,2.14,0,4.27,0,6.41,0,.27-.12.36-.38.36-2.44,0-4.88.02-7.32-.01C1.15,21.05,0,19.82,0,18.17c0-2.55,0-5.1,0-7.65Z"/>
    </g>
  </g>
</svg>