<?xml version="1.0" encoding="UTF-8"?>
<svg id="Camada_2" data-name="Camada 2" xmlns="http://www.w3.org/2000/svg" viewBox="0 0 22.36 22.36">
  <defs>
    <style>
      .cls-1 {
        fill: #06942d;
      }
    </style>
  </defs>
  <g id="Camada_1-2" data-name="Camada 1">
    <g id="OWLTDt.tif">
      <path class="cls-1" d="m11.14,22.36c-2.65,0-5.3,0-7.94,0C1.3,22.36,0,21.06,0,19.14c0-5.31,0-10.62,0-15.93C0,1.3,1.3,0,3.2,0c5.33,0,10.65,0,15.98,0,1.88,0,3.18,1.31,3.18,3.19,0,5.33,0,10.65,0,15.98,0,1.88-1.3,3.19-3.18,3.19-2.68,0-5.35,0-8.03,0Zm.75-12.42c0-.24,0-.36,0-.47,0-.57-.09-.65-.67-.65-.57,0-1.14,0-1.7,0-.41,0-.58.19-.57.58,0,.31,0,.61,0,.92,0,2.39,0,4.77,0,7.16,0,.59.1.7.68.7.54,0,1.08,0,1.62,0,.53,0,.64-.11.64-.64,0-1.37,0-2.74,0-4.1,0-.53.1-1.04.38-1.5.34-.56.85-.78,1.48-.7.62.07,1,.42,1.18,1.01.12.38.15.77.15,1.16,0,1.4,0,2.79,0,4.19,0,.4.17.59.57.59.6,0,1.19,0,1.79,0,.55,0,.65-.11.66-.67,0-.92,0-1.83,0-2.75-.01-1.06.05-2.13-.12-3.18-.24-1.54-1.03-2.53-2.33-2.78-1.39-.27-2.71-.15-3.76,1.16Zm-7.23,3.51c0,1.35,0,2.7,0,4.06,0,.51.15.66.64.66.57,0,1.13,0,1.7,0,.45,0,.6-.15.6-.61,0-2.72,0-5.44,0-8.16,0-.45-.15-.59-.61-.59-.54,0-1.08,0-1.61,0-.6,0-.71.11-.71.72,0,1.31,0,2.62,0,3.92Zm-.42-7.35c0,1.04.83,1.89,1.87,1.91,1.05.01,1.92-.85,1.92-1.91,0-1.05-.83-1.89-1.88-1.9-1.06-.01-1.92.84-1.92,1.9Z"/>
    </g>
  </g>
</svg>