<?xml version="1.0" encoding="UTF-8"?>
<svg id="Camada_2" data-name="Camada 2" xmlns="http://www.w3.org/2000/svg" viewBox="0 0 667 602.72">
  <defs>
    <style>
      .cls-1 {
        letter-spacing: 0em;
      }

      .cls-2 {
        letter-spacing: 0em;
      }

      .cls-3 {
        letter-spacing: -.02em;
      }

      .cls-4 {
        fill: #07942d;
      }

      .cls-5, .cls-6 {
        fill: #111182;
      }

      .cls-7 {
        letter-spacing: 0em;
      }

      .cls-8 {
        letter-spacing: -.02em;
      }

      .cls-6 {
        font-family: Montserrat-Regular, Montserrat;
        font-size: 56px;
      }

      .cls-9 {
        fill: #eaeaea;
        font-family: Montserrat-Bold, Montserrat;
        font-size: 88.47px;
        font-weight: 700;
      }

      .cls-10 {
        letter-spacing: 0em;
      }
    </style>
  </defs>
  <g id="Camada_1-2" data-name="Camada 1">
    <path class="cls-4" d="m0,446.16c80.59,35.35,167,65.83,259.65,90.23,89.66,23.61,232.65,45.7,407.35,66.33V91.91c-162.86-11.96-289.45-22.61-357.76-31.98C202.76,45.33,99.67,26.31,0,0v446.16Z"/>
    <g>
      <text class="cls-9" transform="translate(265.77 321.65)"><tspan x="0" y="0">O ti</tspan><tspan class="cls-10" x="164.81" y="0">m</tspan><tspan x="258.14" y="0">e</tspan><tspan class="cls-2" x="0" y="96">P</tspan><tspan class="cls-7" x="63.87" y="96">r</tspan><tspan class="cls-3" x="101.21" y="96">o</tspan><tspan x="157.83" y="96">vix!</tspan></text>
      <rect class="cls-5" x="270" y="448.12" width="210" height="9" rx="4.5" ry="4.5"/>
      <text class="cls-6" transform="translate(265.6 226.64)"><tspan class="cls-8" x="0" y="0">C</tspan><tspan x="38.97" y="0">on</tspan><tspan class="cls-1" x="111.99" y="0">h</tspan><tspan x="150.01" y="0">eça</tspan></text>
    </g>
  </g>
</svg>