<?xml version="1.0" encoding="UTF-8"?>
<svg id="Camada_2" data-name="Camada 2" xmlns="http://www.w3.org/2000/svg" viewBox="0 0 218.82 69.43">
  <defs>
    <style>
      .cls-1 {
        fill: #06942d;
      }

      .cls-2 {
        fill: #111182;
      }

      .cls-3 {
        fill: #0e0e7a;
      }
    </style>
  </defs>
  <g id="Camada_1-2" data-name="Camada 1">
    <g>
      <g>
        <path class="cls-1" d="m180.62,9.83c-2.18,2.1-5.77,6.68-9.8,12.11,2.09,2.85,4.27,5.88,6.4,8.87,4.95-7,9.22-13.09,10.96-15.23,6.94-8.52,14.94-14.31,30.64-13.25,0,0-21.84-8.25-38.2,7.49Z"/>
        <path class="cls-2" d="m147.25,15.26c.5.57.98,1.14,1.47,1.74,1.95,2.4,7.09,9.78,12.81,17.83,2.1,2.97,4.28,6.02,6.41,8.95,2.42,3.34,4.78,6.52,6.88,9.21h12.53c-4.83-6.36-19.32-27.73-27.49-37.73h-12.6Z"/>
        <g>
          <path class="cls-2" d="m159.4,37.81c-4.82,6.81-8.94,12.69-10.64,14.78-6.95,8.56-14.95,14.37-30.69,13.32,0,0,21.84,8.25,38.2-7.49,2.12-2.04,5.6-6.45,9.5-11.71,0,0-.01-.02-.02-.03-2.11-2.9-4.27-5.93-6.35-8.86Z"/>
          <path class="cls-3" d="m161.52,34.83c-.72,1.01-1.42,2.01-2.12,2.99,2.09,2.94,4.24,5.96,6.35,8.86,0,0,.01.02.02.03.71-.95,1.43-1.93,2.16-2.93-2.13-2.93-4.31-5.98-6.41-8.95Z"/>
        </g>
      </g>
      <g>
        <path class="cls-2" d="m4.4,15.25c.13.26.24.53.34.82.1.29.15.63.15,1.01v2.98c.61-.94,1.49-1.76,2.64-2.45,1.15-.69,2.36-1.26,3.63-1.7,1.27-.45,2.5-.77,3.69-.97,1.19-.2,2.12-.31,2.81-.31,2.83,0,5.46.54,7.9,1.62,2.43,1.08,4.54,2.56,6.31,4.43,1.77,1.87,3.16,4.07,4.17,6.58,1.01,2.51,1.51,5.19,1.51,8.05s-.5,5.54-1.51,8.05c-1.01,2.51-2.4,4.7-4.17,6.58-1.77,1.87-3.87,3.35-6.31,4.44-2.43,1.08-5.07,1.62-7.9,1.62-.84,0-1.77-.08-2.79-.23-1.02-.15-2.08-.46-3.17-.94-1.1-.47-2.22-1.15-3.36-2.05-1.15-.89-2.29-2.06-3.44-3.52v20.15H0V15.25h4.4Zm13.27,35.86c2.22,0,4.24-.41,6.08-1.22,1.84-.82,3.42-1.94,4.74-3.36,1.33-1.43,2.35-3.1,3.08-5.01.73-1.91,1.09-3.98,1.09-6.19s-.36-4.28-1.09-6.19c-.73-1.91-1.75-3.58-3.08-5.01-1.33-1.43-2.91-2.55-4.74-3.36-1.84-.82-3.86-1.22-6.08-1.22s-4.59.47-6.81,1.41c-2.22.94-4.21,2.29-5.96,4.05v18.62c.69,1.22,1.53,2.3,2.52,3.23.99.93,2.05,1.71,3.17,2.35,1.12.64,2.29,1.12,3.52,1.43,1.22.32,2.41.48,3.56.48Z"/>
        <path class="cls-2" d="m46.64,15.25c.13.26.24.53.34.82.1.29.15.63.15,1.01v4.51c.48-.99,1.22-1.92,2.22-2.77.99-.85,2.13-1.59,3.4-2.22,1.27-.62,2.65-1.11,4.13-1.45,1.48-.34,2.96-.52,4.43-.52,1.55,0,3.05.22,4.47.65l-.38,2.1c-.1.56-.27.99-.5,1.3-.23.31-.5.53-.82.67-.32.14-.68.22-1.07.25-.4.03-.8.04-1.2.04h-.57c-1.86,0-3.63.31-5.3.92-1.67.61-3.15,1.4-4.43,2.37-1.29.97-2.32,2.06-3.1,3.27-.78,1.21-1.2,2.42-1.28,3.61v25.58h-4.89V15.25h4.4Z"/>
        <path class="cls-2" d="m63.08,35.33c0-1.89.25-3.71.75-5.49.5-1.77,1.2-3.42,2.1-4.95.9-1.53,1.99-2.92,3.25-4.19,1.26-1.26,2.66-2.34,4.19-3.23,1.53-.89,3.17-1.59,4.93-2.08s3.58-.75,5.47-.75c2.85,0,5.54.54,8.05,1.62,2.51,1.08,4.7,2.56,6.58,4.43,1.87,1.87,3.35,4.07,4.43,6.58,1.08,2.51,1.63,5.19,1.63,8.05s-.54,5.54-1.63,8.05c-1.08,2.51-2.56,4.7-4.43,6.58-1.87,1.87-4.07,3.35-6.58,4.44-2.51,1.08-5.19,1.62-8.05,1.62-1.89,0-3.71-.25-5.47-.75-1.76-.5-3.4-1.19-4.93-2.08-1.53-.89-2.92-1.97-4.19-3.23-1.26-1.26-2.35-2.66-3.25-4.19-.9-1.53-1.61-3.18-2.1-4.95-.5-1.77-.75-3.6-.75-5.49Zm4.89,0c0,2.22.41,4.28,1.22,6.19.82,1.91,1.94,3.58,3.36,5.01,1.43,1.43,3.1,2.55,5.03,3.36,1.92.82,3.98,1.22,6.17,1.22s4.28-.41,6.19-1.22c1.91-.82,3.58-1.94,5.01-3.36,1.43-1.43,2.55-3.1,3.36-5.01.82-1.91,1.22-3.98,1.22-6.19s-.41-4.28-1.22-6.19c-.82-1.91-1.94-3.58-3.36-5.01-1.43-1.43-3.1-2.55-5.01-3.36-1.91-.82-3.98-1.22-6.19-1.22s-4.25.41-6.17,1.22c-1.92.82-3.6,1.94-5.03,3.36-1.43,1.43-2.55,3.1-3.36,5.01-.82,1.91-1.22,3.98-1.22,6.19Z"/>
        <path class="cls-2" d="m102.81,15.25h2.14c.97,0,1.87.26,2.7.76.83.51,1.42,1.19,1.78,2.03l13.08,30.05c.28.66.46,1.26.54,1.8.05.28.09.55.11.8.05-.59.12-1.06.21-1.41.09-.36.24-.75.44-1.19l13.27-30.05c.38-.87.97-1.55,1.76-2.06.79-.51,1.66-.76,2.6-.76h2.18c-1.53,3.54-3.02,6.97-4.47,10.28-1.45,3.31-2.89,6.6-4.32,9.86-1.43,3.26-2.86,6.54-4.3,9.83-1.44,3.29-2.92,6.69-4.45,10.21h-5.73l-17.51-40.14Z"/>
        <path class="cls-2" d="m141.34,3.94c0-.54.1-1.04.31-1.53.2-.48.48-.9.84-1.26.36-.36.78-.64,1.26-.84.48-.2.99-.31,1.53-.31s1.04.1,1.53.31c.48.2.9.48,1.26.84.36.36.64.78.84,1.26.2.48.31.99.31,1.53s-.1,1.05-.31,1.53c-.2.48-.48.9-.84,1.26-.36.36-.78.64-1.26.84-.48.2-.99.31-1.53.31s-1.05-.1-1.53-.31c-.48-.2-.91-.48-1.26-.84-.36-.36-.64-.78-.84-1.26-.2-.48-.31-.99-.31-1.53Zm6.35,11.32v40.14h-4.89V15.25h4.89Z"/>
      </g>
      <rect class="cls-2" x="142.82" y="54.11" width="4.89" height="6.26"/>
    </g>
  </g>
</svg>